<svg width="20" height="20" viewBox="0 0 20 20" fill="none" xmlns="http://www.w3.org/2000/svg">
<g clip-path="url(#clip0_1245_17988)">
<path d="M3.86175 15.4644L5.04675 9.86183C5.09247 9.6457 4.95431 9.43343 4.73818 9.38771C4.52204 9.34199 4.30978 9.48015 4.26405 9.69628L3.07905 15.2989C3.03333 15.515 3.1715 15.7273 3.38763 15.773C3.60376 15.8187 3.81603 15.6806 3.86175 15.4644ZM15.0153 9.86314L16.2219 15.4699C16.2684 15.6859 16.4812 15.8233 16.6971 15.7768C16.9131 15.7303 17.0505 15.5176 17.004 15.3016L15.7974 9.69484C15.7509 9.47886 15.5382 9.34146 15.3222 9.38794C15.1063 9.43443 14.9688 9.64718 15.0153 9.86314Z" fill="#3D3D3D"/>
<path d="M18.8955 7.5559L10.4668 4.06418C10.2596 3.97826 9.86979 3.97742 9.66201 4.06246L1.12936 7.55588L9.66219 11.0492C9.86969 11.1342 10.2595 11.1334 10.467 11.0475L18.8955 7.55588V7.5559ZM10.7731 11.7866C10.3706 11.9533 9.76168 11.9546 9.35891 11.7895L0.477327 8.1534C-0.159138 7.89248 -0.159138 7.21889 0.477502 6.95832L9.35895 3.32211C9.76209 3.15711 10.371 3.1584 10.7731 3.32516L19.5395 6.95672C20.1736 7.21926 20.1736 7.89252 19.5396 8.15504L10.7731 11.7866ZM16.4113 15.0399C14.4972 16.1643 12.3162 16.7656 10.0463 16.7656C7.77358 16.7656 5.59 16.1628 3.6743 15.0359C3.48389 14.9239 3.23873 14.9874 3.12672 15.1778C3.01471 15.3682 3.07826 15.6134 3.26867 15.7254C5.30649 16.9242 7.62994 17.5656 10.0463 17.5656C12.4597 17.5656 14.7804 16.9257 16.8165 15.7297C17.007 15.6179 17.0707 15.3727 16.9588 15.1822C16.8469 14.9918 16.6018 14.928 16.4113 15.0399Z" fill="#3D3D3D"/>
<path d="M19.2168 7.48203V13.2678C19.2168 13.4887 19.3959 13.6678 19.6168 13.6678C19.8377 13.6678 20.0168 13.4887 20.0168 13.2678V7.48203C20.0168 7.26111 19.8377 7.08203 19.6168 7.08203C19.3959 7.08203 19.2168 7.26111 19.2168 7.48203Z" fill="#3D3D3D"/>
</g>
<defs>
<clipPath id="clip0_1245_17988">
<rect width="20" height="20" fill="white"/>
</clipPath>
</defs>
</svg>
