<svg width="16" height="16" viewBox="0 0 16 16" fill="none" xmlns="http://www.w3.org/2000/svg">
<path d="M12.6654 10.0013C12.6654 9.03464 12.3787 8.14796 11.8854 7.40796C11.1654 6.34129 10.0254 5.58797 8.6987 5.39463C8.47203 5.35463 8.2387 5.33464 7.9987 5.33464C7.7587 5.33464 7.52536 5.35463 7.2987 5.39463C5.97203 5.58797 4.83203 6.34129 4.11203 7.40796C3.6187 8.14796 3.33203 9.03464 3.33203 10.0013C3.33203 12.5813 5.4187 14.668 7.9987 14.668C10.5787 14.668 12.6654 12.5813 12.6654 10.0013Z" stroke="#3D3D3D" stroke-linecap="round" stroke-linejoin="round"/>
<path d="M14.1674 3.68705L13.0674 3.42706C12.8207 3.36706 12.6274 3.18038 12.574 2.93372L12.3407 1.95371C12.214 1.42038 11.534 1.26038 11.1807 1.68038L8.0007 5.33372L4.8207 1.67373C4.46737 1.25373 3.78737 1.41373 3.6607 1.94706L3.42737 2.92706C3.36737 3.17373 3.17404 3.36706 2.93404 3.42039L1.83404 3.68038C1.32737 3.80038 1.14737 4.43373 1.51404 4.80039L4.11404 7.40039C4.83404 6.33372 5.97404 5.58038 7.3007 5.38704C7.52737 5.34704 7.7607 5.32705 8.0007 5.32705C8.2407 5.32705 8.47404 5.34704 8.7007 5.38704C10.0274 5.58038 11.1674 6.33372 11.8874 7.40039L14.4874 4.80039C14.854 4.44039 14.674 3.80705 14.1674 3.68705Z" stroke="#3D3D3D" stroke-linecap="round" stroke-linejoin="round"/>
<path d="M8.3873 12.012L8.78063 11.2254C8.83397 11.1187 8.97397 11.012 9.10063 10.992L9.81397 10.872C10.2673 10.7987 10.374 10.4654 10.0473 10.1387L9.49397 9.58538C9.40063 9.49204 9.3473 9.31203 9.38063 9.1787L9.54063 8.49203C9.6673 7.95203 9.38063 7.73871 8.90063 8.02538L8.23397 8.41871C8.11397 8.49204 7.91397 8.49204 7.79397 8.41871L7.1273 8.02538C6.6473 7.74538 6.36063 7.95203 6.4873 8.49203L6.6473 9.1787C6.67397 9.30536 6.6273 9.49204 6.53397 9.58538L5.98063 10.1387C5.65397 10.4654 5.76063 10.792 6.21397 10.872L6.9273 10.992C7.0473 11.012 7.1873 11.1187 7.24063 11.2254L7.63397 12.012C7.8273 12.4387 8.17397 12.4387 8.3873 12.012Z" stroke="#3D3D3D" stroke-linecap="round" stroke-linejoin="round"/>
</svg>
