<svg width="13" height="16" viewBox="0 0 13 16" fill="none" xmlns="http://www.w3.org/2000/svg">
<path fill-rule="evenodd" clip-rule="evenodd" d="M6.40252 0C4.0553 0 2.1525 1.91091 2.1525 4.26814C2.1525 6.62537 4.0553 8.53628 6.40252 8.53628C8.74974 8.53628 10.6525 6.62537 10.6525 4.26814C10.6525 1.91091 8.74974 0 6.40252 0ZM6.40258 1.15875C8.1129 1.15875 9.49938 2.55115 9.49938 4.26875C9.49938 5.98636 8.1129 7.37876 6.40258 7.37876C4.69227 7.37876 3.30578 5.98636 3.30578 4.26875C3.30578 2.55115 4.69227 1.15875 6.40258 1.15875ZM4.66404 10.2555C4.04186 10.2987 3.41297 10.3875 2.79264 10.5204C1.59534 10.7671 0.637482 11.2598 0.229791 12.0787C0.0760219 12.3989 -0.00128826 12.7418 1.6236e-05 13.0889C-0.000445074 13.4336 0.0762392 13.7769 0.224494 14.091C0.615955 14.9004 1.46224 15.3585 2.60499 15.6124L2.8097 15.6551C3.41319 15.7913 4.04227 15.883 4.67557 15.926C4.72951 15.9418 4.85806 15.9565 4.99837 15.9637L5.11378 15.968C5.17312 15.9694 5.24046 15.9697 5.34081 15.9697C6.25108 16.0198 7.19474 16.0052 8.13401 15.9253C8.63456 15.891 9.13848 15.8256 9.63819 15.7296L10.0121 15.652C11.2461 15.4086 12.1701 14.9456 12.5749 14.0919C12.875 13.4581 12.875 12.7225 12.575 12.089C12.1712 11.2374 11.259 10.7783 10.0027 10.5195C9.50982 10.4143 9.00896 10.3364 8.50454 10.2867L8.13576 10.2555C6.98075 10.1536 5.81906 10.1536 4.66404 10.2555ZM8.03476 11.4097L8.0449 11.4105C8.62382 11.4512 9.1992 11.5325 9.76685 11.6537C10.7 11.8459 11.3333 12.1646 11.5336 12.5871C11.6844 12.9057 11.6844 13.2759 11.5335 13.5948C11.3463 13.9896 10.7775 14.2946 9.95549 14.481L9.77551 14.5191C9.1967 14.6482 8.62323 14.7315 8.04596 14.771C7.15026 14.8472 6.25987 14.861 5.37173 14.8129L5.05684 14.8076C4.96943 14.8031 4.89576 14.7947 4.82749 14.7809C4.28689 14.7401 3.80044 14.6756 3.32813 14.582L3.04611 14.5223C2.11008 14.3388 1.47123 14.0187 1.2641 13.5905C1.19162 13.4369 1.15291 13.2635 1.15314 13.088C1.15249 12.9135 1.1907 12.7441 1.26486 12.5896C1.46625 12.1852 2.14327 11.8369 3.02876 11.6545C3.6005 11.532 4.1756 11.4508 4.75426 11.4105C5.85274 11.3137 6.94689 11.3137 8.03476 11.4097Z" fill="#3D3D3D"/>
</svg>
