<svg width="14" height="18" viewBox="0 0 14 18" fill="none" xmlns="http://www.w3.org/2000/svg">
<path d="M9.2118 15.2443L8.81835 14.9357L9.2118 15.2443ZM4.9755 15.2443L4.58205 15.5528L4.9755 15.2443ZM7.09365 17V16.5V17ZM4.80853 7.35536C4.53239 7.35536 4.30853 7.57921 4.30853 7.85536C4.30853 8.1315 4.53239 8.35536 4.80853 8.35536V7.35536ZM9.37877 8.35536C9.65491 8.35536 9.87877 8.1315 9.87877 7.85536C9.87877 7.57921 9.65491 7.35536 9.37877 7.35536V8.35536ZM6.59365 10.1405C6.59365 10.4166 6.81751 10.6405 7.09365 10.6405C7.36979 10.6405 7.59365 10.4166 7.59365 10.1405L6.59365 10.1405ZM7.59365 5.57024C7.59365 5.2941 7.36979 5.07024 7.09365 5.07024C6.81751 5.07024 6.59365 5.2941 6.59365 5.57024L7.59365 5.57024ZM12.6873 7.5573C12.6873 8.51121 12.1918 9.77512 11.4241 11.1323C10.6675 12.4699 9.69051 13.8236 8.81835 14.9357L9.60525 15.5528C10.4924 14.4215 11.5032 13.0236 12.2945 11.6246C13.0748 10.2452 13.6873 8.78736 13.6873 7.5573H12.6873ZM5.36895 14.9357C4.49679 13.8236 3.51979 12.4699 2.7632 11.1323C1.99554 9.77512 1.5 8.51121 1.5 7.5573H0.5C0.5 8.78736 1.11253 10.2452 1.89279 11.6246C2.68411 13.0236 3.69486 14.4215 4.58205 15.5528L5.36895 14.9357ZM1.5 7.5573C1.5 4.17678 4.03826 1.5 7.09365 1.5V0.5C3.41818 0.5 0.5 3.69482 0.5 7.5573H1.5ZM7.09365 1.5C10.149 1.5 12.6873 4.17678 12.6873 7.5573H13.6873C13.6873 3.69482 10.7691 0.5 7.09365 0.5V1.5ZM8.81835 14.9357C8.34844 15.535 8.03381 15.9335 7.75032 16.191C7.48824 16.429 7.30268 16.5 7.09365 16.5V17.5C7.62594 17.5 8.04051 17.2783 8.4227 16.9312C8.78348 16.6034 9.15726 16.1241 9.60525 15.5528L8.81835 14.9357ZM4.58205 15.5528C5.03003 16.1241 5.40381 16.6034 5.7646 16.9312C6.14679 17.2783 6.56136 17.5 7.09365 17.5V16.5C6.88462 16.5 6.69906 16.429 6.43698 16.191C6.15349 15.9335 5.83886 15.535 5.36895 14.9357L4.58205 15.5528ZM4.80853 8.35536H9.37877V7.35536H4.80853V8.35536ZM7.59365 10.1405L7.59365 5.57024L6.59365 5.57024L6.59365 10.1405L7.59365 10.1405Z" fill="#3D3D3D"/>
</svg>
