<svg width="450" height="244" viewBox="0 0 450 244" fill="none" xmlns="http://www.w3.org/2000/svg">
<g clip-path="url(#clip0_2149_36973)">
<path d="M208.454 243.193C208.323 243.251 208.182 243.282 208.039 243.285C207.896 243.288 207.754 243.263 207.62 243.212C207.487 243.161 207.366 243.084 207.263 242.986C207.16 242.888 207.079 242.772 207.023 242.642C206.938 242.445 206.858 242.247 206.773 242.05C206.01 240.231 205.209 238.429 204.371 236.644C193.646 213.616 177.648 193.322 157.62 177.339C157.505 177.26 157.414 177.152 157.356 177.027C157.299 176.902 157.276 176.764 157.292 176.627C157.321 176.47 157.385 176.322 157.481 176.194C157.577 176.065 157.701 175.959 157.844 175.884C157.988 175.809 158.146 175.767 158.309 175.761C158.471 175.754 158.633 175.784 158.782 175.847C158.861 175.883 158.936 175.928 159.004 175.983C167.573 182.824 175.433 190.475 182.472 198.826C189.513 207.17 195.712 216.162 200.983 225.677C202.42 228.276 203.784 230.911 205.076 233.583C205.331 234.113 205.586 234.648 205.835 235.184C206.895 237.44 207.904 239.716 208.862 242.013C208.878 242.05 208.894 242.091 208.91 242.128C208.959 242.226 208.986 242.334 208.989 242.443C208.992 242.552 208.971 242.661 208.928 242.762C208.885 242.863 208.82 242.953 208.739 243.028C208.657 243.102 208.56 243.159 208.454 243.193Z" fill="white"/>
<path d="M136.079 162.103C135.614 162.104 135.161 161.957 134.788 161.683L134.765 161.666L129.906 158.019C129.68 157.85 129.491 157.639 129.349 157.398C129.207 157.158 129.115 156.892 129.078 156.616C129.04 156.341 129.059 156.061 129.132 155.792C129.205 155.523 129.332 155.272 129.504 155.051C129.677 154.83 129.892 154.645 130.137 154.506C130.383 154.367 130.654 154.276 130.935 154.24C131.216 154.204 131.502 154.222 131.776 154.294C132.05 154.365 132.307 154.49 132.532 154.659L135.68 157.025L143.118 147.515C143.291 147.295 143.506 147.11 143.752 146.97C143.997 146.831 144.268 146.741 144.549 146.705C144.83 146.668 145.116 146.687 145.39 146.758C145.664 146.83 145.921 146.954 146.146 147.123L146.099 147.185L146.147 147.124C146.601 147.466 146.898 147.971 146.972 148.527C147.047 149.083 146.894 149.646 146.546 150.092L137.797 161.277C137.594 161.535 137.334 161.744 137.036 161.887C136.738 162.03 136.411 162.104 136.079 162.103Z" fill="white"/>
<path d="M313.637 106.552C317.444 106.552 320.531 103.527 320.531 99.795C320.531 96.0633 317.444 93.0381 313.637 93.0381C309.831 93.0381 306.744 96.0633 306.744 99.795C306.744 103.527 309.831 106.552 313.637 106.552Z" fill="#0070D2"/>
<path d="M312.954 102.372C312.799 102.373 312.648 102.323 312.524 102.232L312.516 102.227L310.896 101.011C310.821 100.955 310.758 100.884 310.71 100.804C310.663 100.724 310.632 100.635 310.619 100.543C310.607 100.451 310.613 100.358 310.637 100.268C310.662 100.178 310.704 100.094 310.761 100.021C310.819 99.947 310.891 99.8852 310.973 99.8388C311.055 99.7924 311.145 99.7623 311.239 99.7502C311.333 99.7382 311.428 99.7444 311.52 99.7685C311.611 99.7926 311.697 99.8342 311.772 99.8908L312.821 100.679L315.301 97.5096C315.358 97.4361 315.43 97.3744 315.512 97.328C315.594 97.2817 315.684 97.2516 315.778 97.2395C315.871 97.2273 315.967 97.2334 316.058 97.2574C316.149 97.2813 316.235 97.3227 316.31 97.3791C316.461 97.493 316.56 97.6615 316.585 97.8469C316.61 98.0323 316.559 98.2199 316.443 98.3685L313.527 102.097C313.459 102.183 313.373 102.252 313.273 102.3C313.174 102.348 313.065 102.373 312.954 102.372Z" fill="white"/>
<path d="M313.637 126.303C317.444 126.303 320.531 123.278 320.531 119.546C320.531 115.814 317.444 112.789 313.637 112.789C309.831 112.789 306.744 115.814 306.744 119.546C306.744 123.278 309.831 126.303 313.637 126.303Z" fill="#0070D2"/>
<path d="M312.954 122.123C312.799 122.124 312.648 122.074 312.524 121.983L312.516 121.978L310.896 120.762C310.821 120.706 310.758 120.635 310.71 120.555C310.663 120.475 310.632 120.386 310.619 120.294C310.607 120.202 310.613 120.109 310.637 120.019C310.662 119.929 310.704 119.845 310.761 119.772C310.819 119.698 310.891 119.636 310.973 119.59C311.055 119.543 311.145 119.513 311.239 119.501C311.333 119.489 311.428 119.495 311.52 119.519C311.611 119.544 311.697 119.585 311.772 119.642L312.821 120.43L315.301 117.261C315.358 117.187 315.43 117.125 315.512 117.079C315.594 117.033 315.684 117.003 315.778 116.99C315.871 116.978 315.967 116.984 316.058 117.008C316.149 117.032 316.235 117.074 316.31 117.13C316.461 117.244 316.56 117.412 316.585 117.598C316.61 117.783 316.559 117.971 316.443 118.119L313.527 121.848C313.459 121.934 313.373 122.003 313.273 122.051C313.174 122.099 313.065 122.124 312.954 122.123Z" fill="white"/>
<path d="M317.349 149.173C321.156 149.173 324.242 146.148 324.242 142.416C324.242 138.684 321.156 135.659 317.349 135.659C313.542 135.659 310.456 138.684 310.456 142.416C310.456 146.148 313.542 149.173 317.349 149.173Z" fill="#0070D2"/>
<path d="M316.666 144.993C316.511 144.994 316.36 144.945 316.236 144.853L316.228 144.848L314.608 143.632C314.533 143.576 314.47 143.505 314.422 143.425C314.375 143.345 314.344 143.256 314.331 143.164C314.319 143.072 314.325 142.979 314.349 142.889C314.373 142.799 314.416 142.715 314.473 142.642C314.531 142.568 314.603 142.506 314.684 142.46C314.766 142.413 314.857 142.383 314.951 142.371C315.045 142.359 315.14 142.365 315.231 142.39C315.323 142.414 315.409 142.455 315.484 142.512L316.533 143.301L319.012 140.131C319.07 140.057 319.142 139.995 319.223 139.949C319.305 139.903 319.396 139.873 319.489 139.861C319.583 139.848 319.678 139.855 319.77 139.878C319.861 139.902 319.946 139.944 320.021 140C320.173 140.114 320.272 140.283 320.297 140.468C320.322 140.653 320.271 140.841 320.155 140.99L317.238 144.718C317.171 144.804 317.084 144.874 316.985 144.921C316.886 144.969 316.776 144.994 316.666 144.993Z" fill="white"/>
<path d="M383.818 198.831C383.746 198.831 383.701 198.829 383.686 198.828L375.128 198.829V197.592H383.717C383.915 197.599 387.973 197.711 391.711 193.265C397.281 186.639 401.856 170.234 392.014 129.716C378.781 75.2344 389.818 27.1025 395.178 8.93753C395.442 8.03884 395.489 7.09226 395.316 6.17259C395.142 5.25292 394.753 4.38537 394.179 3.63846C393.605 2.89156 392.861 2.28577 392.007 1.86897C391.153 1.45217 390.212 1.23579 389.258 1.2369H261.452C260.481 1.23817 259.523 1.46401 258.657 1.89608C257.791 2.32815 257.041 2.95428 256.468 3.72365C254.198 6.78507 251.082 12.6663 249.133 23.3006L247.891 23.082C249.883 12.2167 253.1 6.16239 255.448 2.99649C256.138 2.06944 257.041 1.31497 258.085 0.794324C259.128 0.27368 260.282 0.00153986 261.452 3.36632e-06H389.258C390.408 -0.00108121 391.542 0.259925 392.571 0.762401C393.6 1.26488 394.496 1.99506 395.188 2.89525C395.879 3.79544 396.348 4.84099 396.557 5.94928C396.765 7.05757 396.708 8.19824 396.39 9.28117C391.058 27.3519 380.078 75.2341 393.242 129.43C403.222 170.518 398.424 187.278 392.642 194.102C388.828 198.603 384.626 198.831 383.818 198.831Z" fill="#E6E6E6"/>
<path d="M360.79 221.404C360.718 221.404 360.673 221.402 360.658 221.401L352.1 221.402V220.165H360.689C360.888 220.171 364.945 220.285 368.683 215.838C374.253 209.212 378.828 192.808 368.986 152.29C355.753 97.8076 366.79 49.6757 372.15 31.5108C372.414 30.6121 372.461 29.6655 372.288 28.7458C372.114 27.8262 371.725 26.9586 371.151 26.2117C370.577 25.4648 369.833 24.859 368.979 24.4422C368.125 24.0254 367.184 23.809 366.23 23.8101H238.424C237.453 23.8114 236.495 24.0373 235.629 24.4693C234.763 24.9014 234.013 25.5275 233.44 26.2969C231.17 29.3583 228.054 35.2396 226.105 45.8739L224.863 45.6552C226.855 34.7899 230.072 28.7356 232.42 25.5697C233.11 24.6427 234.013 23.8882 235.057 23.3676C236.1 22.8469 237.254 22.5748 238.424 22.5732H366.23C367.38 22.5722 368.514 22.8332 369.543 23.3357C370.572 23.8381 371.468 24.5683 372.16 25.4685C372.851 26.3687 373.32 27.4142 373.529 28.5225C373.737 29.6308 373.68 30.7715 373.362 31.8544C368.03 49.9251 357.05 97.8073 370.214 152.003C380.194 193.091 375.396 209.851 369.614 216.675C365.8 221.176 361.598 221.404 360.79 221.404Z" fill="#CCCCCC"/>
<path d="M347.186 174.578C334.02 120.383 345.001 72.4965 350.335 54.4295C350.653 53.3465 350.709 52.206 350.5 51.0979C350.292 49.9899 349.823 48.9446 349.131 48.0444C348.44 47.1443 347.544 46.414 346.516 45.911C345.487 45.4081 344.353 45.1464 343.203 45.1465H215.395C214.225 45.1476 213.071 45.4193 212.029 45.9395C210.986 46.4597 210.082 47.2137 209.393 48.1403C204.233 55.0948 193.528 78.1568 205.485 141.968C211.879 176.107 211.784 199.382 209.695 214.715C208.523 223.348 206.715 229.46 205.076 233.582L204.902 234.019C204.557 234.853 204.377 235.744 204.371 236.644C204.359 237.66 204.567 238.667 204.981 239.599C205.395 240.531 206.006 241.366 206.773 242.049C207.274 242.509 207.84 242.894 208.454 243.193C208.964 243.448 209.504 243.641 210.061 243.77C210.628 243.905 211.211 243.973 211.795 243.972H337.631C337.647 243.972 337.689 243.978 337.763 243.978C338.569 243.978 342.774 243.749 346.587 239.248C352.366 232.423 357.165 215.666 347.186 174.578ZM345.653 238.411C341.915 242.86 337.859 242.746 337.663 242.74H211.795C210.787 242.74 209.795 242.498 208.905 242.035C208.014 241.572 207.254 240.902 206.688 240.084C206.191 239.377 205.857 238.573 205.71 237.726C205.563 236.88 205.605 236.012 205.835 235.183C205.895 234.942 205.973 234.706 206.068 234.476C207.94 229.762 209.327 224.876 210.209 219.892C213.2 203.909 213.757 179.246 206.726 141.745C194.859 78.4063 205.352 55.6925 210.411 48.868C210.985 48.0998 211.735 47.4746 212.601 47.043C213.466 46.6114 214.424 46.3855 215.395 46.3835H343.203C344.157 46.3829 345.098 46.5995 345.951 47.0163C346.805 47.433 347.548 48.0386 348.122 48.7851C348.695 49.5316 349.084 50.3986 349.258 51.3177C349.431 52.2369 349.384 53.1829 349.121 54.0813C343.76 72.247 332.726 120.383 345.961 174.864C355.802 215.38 351.226 231.784 345.653 238.411Z" fill="#3F3D56"/>
<path d="M286.468 104.161H220.619C219.281 104.161 217.997 103.639 217.051 102.712C216.104 101.784 215.572 100.525 215.572 99.2132C215.572 97.901 216.104 96.6426 217.051 95.7147C217.997 94.7869 219.281 94.2656 220.619 94.2656H286.468C287.806 94.2656 289.09 94.7869 290.037 95.7147C290.983 96.6426 291.515 97.901 291.515 99.2132C291.515 100.525 290.983 101.784 290.037 102.712C289.09 103.639 287.806 104.161 286.468 104.161Z" fill="#CCCCCC"/>
<path d="M286.468 125.471H220.619C219.281 125.471 217.997 124.95 217.051 124.022C216.104 123.094 215.572 121.836 215.572 120.524C215.572 119.212 216.104 117.953 217.051 117.025C217.997 116.097 219.281 115.576 220.619 115.576H286.468C287.806 115.576 289.09 116.097 290.037 117.025C290.983 117.953 291.515 119.212 291.515 120.524C291.515 121.836 290.983 123.094 290.037 124.022C289.09 124.95 287.806 125.471 286.468 125.471Z" fill="#CCCCCC"/>
<path d="M291.77 147.301H225.922C224.583 147.301 223.3 146.78 222.353 145.852C221.407 144.924 220.875 143.666 220.875 142.354C220.875 141.042 221.407 139.783 222.353 138.855C223.3 137.928 224.583 137.406 225.922 137.406H291.77C293.109 137.406 294.392 137.928 295.339 138.855C296.286 139.783 296.817 141.042 296.817 142.354C296.817 143.666 296.286 144.924 295.339 145.852C294.392 146.78 293.109 147.301 291.77 147.301Z" fill="#CCCCCC"/>
<path d="M295.482 170.171H229.634C228.295 170.171 227.011 169.65 226.065 168.722C225.118 167.794 224.586 166.536 224.586 165.224C224.586 163.912 225.118 162.653 226.065 161.725C227.011 160.798 228.295 160.276 229.634 160.276H295.482C296.82 160.276 298.104 160.798 299.051 161.725C299.997 162.653 300.529 163.912 300.529 165.224C300.529 166.536 299.997 167.794 299.051 168.722C298.104 169.65 296.82 170.171 295.482 170.171Z" fill="#CCCCCC"/>
<path d="M295.51 65.7457H248.192C247.529 65.7463 246.872 65.6189 246.259 65.3705C245.646 65.1222 245.089 64.7578 244.62 64.2984C244.151 63.8389 243.778 63.2932 243.524 62.6927C243.27 62.0921 243.14 61.4483 243.14 60.7981C243.14 60.148 243.27 59.5042 243.524 58.9036C243.778 58.303 244.151 57.7574 244.62 57.2979C245.089 56.8384 245.646 56.4741 246.259 56.2257C246.872 55.9774 247.529 55.8499 248.192 55.8506H295.51C296.848 55.8506 298.132 56.3718 299.079 57.2997C300.025 58.2275 300.557 59.486 300.557 60.7981C300.557 62.1103 300.025 63.3687 299.079 64.2966C298.132 65.2244 296.848 65.7457 295.51 65.7457Z" fill="#0070D2"/>
<path d="M321.591 171.981C325.398 171.981 328.484 168.956 328.484 165.224C328.484 161.492 325.398 158.467 321.591 158.467C317.784 158.467 314.698 161.492 314.698 165.224C314.698 168.956 317.784 171.981 321.591 171.981Z" fill="#CCCCCC"/>
<path d="M298.663 192.521H232.815C231.476 192.521 230.193 192 229.246 191.072C228.3 190.144 227.768 188.886 227.768 187.574C227.768 186.261 228.3 185.003 229.246 184.075C230.193 183.147 231.476 182.626 232.815 182.626H298.663C300.002 182.626 301.286 183.147 302.232 184.075C303.179 185.003 303.71 186.261 303.71 187.574C303.71 188.886 303.179 190.144 302.232 191.072C301.286 192 300.002 192.521 298.663 192.521Z" fill="#CCCCCC"/>
<path d="M324.772 194.33C328.579 194.33 331.666 191.305 331.666 187.573C331.666 183.842 328.579 180.816 324.772 180.816C320.966 180.816 317.879 183.842 317.879 187.573C317.879 191.305 320.966 194.33 324.772 194.33Z" fill="#CCCCCC"/>
</g>
<defs>
<clipPath id="clip0_2149_36973">
<rect width="450" height="244" fill="white"/>
</clipPath>
</defs>
</svg>
