<svg width="20" height="23" viewBox="0 0 20 23" fill="none" xmlns="http://www.w3.org/2000/svg">
<path d="M5.86499 18.4993L6.29832 19.2422C8.24832 22.5851 12.1483 22.5851 14.0983 19.2422L14.5317 18.4993M1.72972 15.8448L1.84168 16.0756C2.56076 17.558 4.06359 18.4993 5.71123 18.4993H14.6171C16.029 18.4993 17.3431 17.778 18.1012 16.5869C19.1713 14.9055 18.8879 12.6997 17.4274 11.3434L17.3799 11.2993C16.3883 10.3784 15.9002 9.0369 16.068 7.69417L16.138 7.13416C16.5341 3.96512 14.0631 1.16602 10.8694 1.16602H9.02462C5.83482 1.16602 3.36683 3.96171 3.76247 7.12688L3.84844 7.81463C4.00676 9.08118 3.54412 10.3463 2.60607 11.2119C1.3248 12.3943 0.96882 14.2761 1.72972 15.8448Z" stroke="#3D3D3D" stroke-width="2" stroke-linecap="round"/>
</svg>
