<svg width="78" height="50" viewBox="0 0 78 50" fill="none" xmlns="http://www.w3.org/2000/svg">
<g clip-path="url(#clip0_339_1774)">
<path d="M70.339 49.8522L68.1365 43.2054C68.1365 43.2054 70.5591 45.6281 70.5591 47.6159L70.1243 43.019C70.1243 43.019 71.3667 44.6963 71.2425 47.2432C71.1182 49.7901 70.339 49.8522 70.339 49.8522Z" fill="#E6E6E6"/>
<path d="M23.0395 43.8L20.8899 37.313C20.8899 37.313 23.2543 39.6774 23.2543 41.6174L22.8299 37.1311C22.8299 37.1311 24.0425 38.768 23.9212 41.2537C23.8 43.7394 23.0395 43.8 23.0395 43.8Z" fill="#E6E6E6"/>
<path d="M56.5907 46.7933C56.5944 51.0606 48.1308 49.748 37.7693 49.7569C27.4079 49.7659 19.0723 51.093 19.0686 46.8257C19.0649 42.5584 27.5254 41.623 37.8869 41.6141C48.2483 41.6051 56.587 42.526 56.5907 46.7933Z" fill="#E6E6E6"/>
<path d="M77.1171 49.7544H0V49.9496H77.1171V49.7544Z" fill="#3F3D56"/>
<path d="M49.3291 41.0303H47.9745L47.3298 35.8054H49.3291V41.0303Z" fill="#A0616A"/>
<path d="M46.8565 40.6433H49.6194V42.2882H45.3621V42.1377C45.3621 41.7414 45.5195 41.3613 45.7998 41.081C46.08 40.8008 46.4601 40.6433 46.8565 40.6433Z" fill="#2F2E41"/>
<path d="M59.2862 48.742H57.9315L57.2869 43.5171H59.2862V48.742Z" fill="#A0616A"/>
<path d="M56.8135 48.355H59.5765V49.9999H55.3191V49.8494C55.3191 49.4531 55.4765 49.0729 55.7568 48.7927C56.0371 48.5124 56.4172 48.355 56.8135 48.355Z" fill="#2F2E41"/>
<path d="M65.5343 33.2199C65.6279 33.1063 65.6955 32.9736 65.7324 32.831C65.7692 32.6885 65.7743 32.5396 65.7473 32.3949C65.7204 32.2501 65.662 32.1131 65.5764 31.9933C65.4907 31.8736 65.3798 31.7741 65.2516 31.7018L62.1054 18.8855L60.0938 19.751L63.8359 32.1433C63.7288 32.3669 63.7074 32.6219 63.7758 32.8601C63.8442 33.0984 63.9976 33.3033 64.2069 33.436C64.4163 33.5687 64.667 33.62 64.9116 33.5801C65.1563 33.5403 65.3778 33.4121 65.5343 33.2199Z" fill="#A0616A"/>
<path d="M63.0806 7.31767C62.9684 7.20029 62.8317 7.10896 62.6803 7.0501C62.5289 6.99125 62.3665 6.96631 62.2044 6.97703C62.0423 6.98776 61.8845 7.03389 61.7422 7.11218C61.5999 7.19047 61.4765 7.29902 61.3806 7.43017L56.511 7.98923L57.2518 9.86751L61.6804 9.03866C61.9114 9.18505 62.1881 9.24162 62.458 9.19766C62.7279 9.15369 62.9723 9.01224 63.1449 8.8001C63.3175 8.58797 63.4063 8.31989 63.3945 8.04667C63.3826 7.77344 63.271 7.51406 63.0806 7.31767Z" fill="#A0616A"/>
<path d="M55.0557 31.8908L57.1806 47.8388L59.8254 47.2943C59.8254 47.2943 59.4364 35.6797 60.7588 34.2795C62.0812 32.8794 59.0579 30.4265 59.0579 30.4265L55.0557 31.8908Z" fill="#2F2E41"/>
<path d="M55.9343 27.4979L54.9581 28.9622C54.9581 28.9622 47.4416 25.8385 47.4416 30.8169C47.4416 35.7953 47.0115 39.1738 46.8559 39.4071C46.7004 39.6405 48.6557 40.246 49.5892 40.0905C49.5892 40.0905 50.7408 32.0645 50.663 31.5978C50.663 31.5978 58.0363 35.2129 59.4365 34.9017C60.8366 34.5906 61.1674 33.4891 61.4008 32.8668C61.6342 32.2445 61.3032 27.3027 61.3032 27.3027L56.6361 25.8784L55.9343 27.4979Z" fill="#2F2E41"/>
<path d="M56.0661 18.7065L55.7879 18.3726C55.7879 18.3726 52.6716 11.361 53.8958 9.46901C55.1201 7.57698 60.4623 7.29874 60.6292 7.41004C60.7962 7.52133 60.2305 8.96632 60.62 9.6341C60.62 9.6341 56.4816 10.5313 56.2034 10.6426C55.9252 10.7539 58.3477 14.8668 58.3477 14.8668L58.0694 17.371L56.0661 18.7065Z" fill="#CCCCCC"/>
<path d="M61.5194 15.2565C61.5194 15.2565 58.6257 15.5904 58.5144 15.5904C58.4032 15.5904 58.3475 14.8669 58.3475 14.8669L55.7877 18.3728C55.7877 18.3728 54.5266 28.5435 54.8605 28.3766C55.1944 28.2096 61.3525 29.1684 61.4081 28.7232C61.4638 28.2781 61.3525 26.0521 61.5194 25.9408C61.6864 25.8295 64.4131 18.9292 64.4131 18.9292C64.4131 18.9292 64.1349 17.4824 63.1889 16.9816C62.2428 16.4807 61.5194 15.2565 61.5194 15.2565Z" fill="#CCCCCC"/>
<path d="M63.5228 17.9832L64.4132 18.9292C64.4132 18.9292 65.7361 29.7997 65.0127 30.1336C64.2893 30.4675 62.8651 30.4265 62.8651 30.4265L61.4639 25.273L63.5228 17.9832Z" fill="#CCCCCC"/>
<path d="M58.7388 14.568C60.1534 14.568 61.3002 13.4212 61.3002 12.0067C61.3002 10.5921 60.1534 9.44531 58.7388 9.44531C57.3242 9.44531 56.1775 10.5921 56.1775 12.0067C56.1775 13.4212 57.3242 14.568 58.7388 14.568Z" fill="#A0616A"/>
<path d="M58.1378 12.4063C58.1032 11.8748 57.4327 11.8566 56.9002 11.8516C56.3676 11.8465 55.7309 11.8656 55.4295 11.4264C55.2304 11.1362 55.2684 10.7333 55.433 10.4222C55.5975 10.111 55.8681 9.8717 56.1343 9.64148C56.8217 9.0471 57.5301 8.45745 58.3553 8.07701C59.1806 7.69658 60.1476 7.54285 61.0035 7.84825C62.0548 8.2234 63.476 10.1545 63.5987 11.264C63.7215 12.3735 63.2781 13.5046 62.5306 14.3337C61.7832 15.1628 60.0725 14.8282 58.9959 15.1232C59.6504 14.1968 59.219 12.5136 58.1705 12.0811L58.1378 12.4063Z" fill="#2F2E41"/>
<path d="M35.3099 45.5376C38.7058 45.5376 41.4587 42.7847 41.4587 39.3888C41.4587 35.9929 38.7058 33.24 35.3099 33.24C31.914 33.24 29.1611 35.9929 29.1611 39.3888C29.1611 42.7847 31.914 45.5376 35.3099 45.5376Z" fill="#F05252"/>
<path d="M31.2038 32.8031C30.3516 32.8031 29.5177 32.5562 28.8029 32.0921C28.0882 31.6281 27.5233 30.9668 27.1766 30.1883L17.4196 8.21561C17.0964 7.48777 16.9255 6.70151 16.9173 5.90517C16.9091 5.10883 17.0639 4.31924 17.3721 3.58492C17.6804 2.8506 18.1355 2.18708 18.7096 1.63513C19.2837 1.08318 19.9646 0.654471 20.7104 0.375351C21.4563 0.0962323 22.2514 -0.0273999 23.0468 0.0120553C23.8422 0.0515105 24.6211 0.253219 25.3357 0.604782C26.0503 0.956346 26.6854 1.45034 27.2021 2.05639C27.7187 2.66244 28.1059 3.36775 28.34 4.12897L35.4052 27.1091C35.6075 27.7669 35.6527 28.4629 35.5371 29.1413C35.4216 29.8197 35.1486 30.4616 34.74 31.0153C34.3314 31.569 33.7987 32.0192 33.1845 32.3297C32.5704 32.6402 31.892 32.8023 31.2038 32.8031Z" fill="#F05252"/>
</g>
<defs>
<clipPath id="clip0_339_1774">
<rect width="77.1171" height="50" fill="white"/>
</clipPath>
</defs>
</svg>
