<svg width="66" height="50" viewBox="0 0 66 50" fill="none" xmlns="http://www.w3.org/2000/svg">
<g clip-path="url(#clip0_3000_44463)">
<path d="M6.04135 49.922L6.03829 49.9418C6.03467 49.9225 6.03118 49.9027 6.02787 49.8833C6.02181 49.8518 6.01655 49.8203 6.0116 49.7887C5.81502 48.5511 5.9232 47.2843 6.32675 46.0981C6.40432 45.8665 6.49267 45.6392 6.5918 45.4161C6.97089 44.5523 7.50831 43.767 8.1763 43.1009C8.39319 42.8789 8.64065 42.6891 8.91119 42.537C8.95091 42.516 8.99085 42.496 9.03168 42.4776C9.28189 42.3562 9.56359 42.3154 9.83797 42.3608C9.93764 42.3795 10.0342 42.412 10.125 42.4572C10.1569 42.4727 10.1875 42.4896 10.2176 42.5078C10.401 42.628 10.5576 42.7849 10.6776 42.9685C10.7975 43.152 10.8783 43.3584 10.9149 43.5747C10.967 43.8973 10.9551 44.2269 10.8798 44.5449C10.8733 44.5753 10.8664 44.6056 10.859 44.6357C10.8056 44.8476 10.7385 45.0559 10.6582 45.2591C9.8543 47.3276 8.12663 49.1629 6.04135 49.922Z" fill="#F2F2F2"/>
<path d="M10.1197 42.4634C9.49239 43.3648 8.89981 44.2891 8.34196 45.2363C7.78479 46.1827 7.26405 47.1492 6.77975 48.1361C6.50883 48.6882 6.24975 49.2459 6.00251 49.8092C5.97514 49.8715 6.06748 49.9258 6.09521 49.8626C6.53674 48.8571 7.01589 47.8692 7.53267 46.899C8.04913 45.9298 8.60186 44.9812 9.19086 44.053C9.52041 43.5338 9.86092 43.0217 10.2124 42.5168C10.2517 42.4604 10.1588 42.4071 10.1197 42.4634Z" fill="white"/>
<path d="M10.7909 44.5502C10.3195 45.1628 9.62566 45.565 8.85976 45.6694C8.64608 45.6986 8.42975 45.7029 8.21509 45.6822C8.14642 45.6757 8.14593 45.7828 8.21402 45.7892C9.01287 45.8564 9.80599 45.6058 10.4212 45.0917C10.5937 44.9475 10.7489 44.7837 10.8836 44.6036C10.9249 44.5488 10.8319 44.4957 10.7909 44.5502Z" fill="white"/>
<path d="M6.76479 47.8735C6.65519 47.7173 6.56414 47.549 6.49345 47.3718C6.33197 46.9679 6.27465 46.5298 6.32676 46.098C6.40433 45.8664 6.49268 45.6391 6.5918 45.416C6.59781 45.4248 6.60142 45.435 6.60229 45.4456C6.60316 45.4562 6.60125 45.4668 6.59675 45.4764C6.52695 45.6438 6.47677 45.8186 6.44721 45.9975C6.34111 46.6354 6.4884 47.2896 6.85768 47.8204C6.86235 47.8262 6.86546 47.8331 6.8667 47.8404C6.86795 47.8478 6.86729 47.8553 6.86478 47.8623C6.86065 47.8716 6.85416 47.8797 6.84594 47.8857C6.83773 47.8917 6.82809 47.8954 6.81798 47.8966C6.80787 47.8977 6.79764 47.8962 6.78831 47.8921C6.77897 47.888 6.77087 47.8816 6.76479 47.8735Z" fill="white"/>
<path d="M8.92719 42.4693C8.79817 42.9834 8.8366 43.5253 9.03687 44.0161C9.04396 44.0283 9.0556 44.0373 9.06926 44.041C9.08293 44.0447 9.09751 44.0429 9.10984 44.036C9.1219 44.0287 9.1307 44.0171 9.13441 44.0035C9.13812 43.9899 9.13645 43.9754 9.12976 43.963C8.94223 43.4974 8.90743 42.9842 9.03039 42.4975C9.03359 42.484 9.03141 42.4698 9.02432 42.4578C9.01723 42.4459 9.00579 42.4372 8.9924 42.4335C8.97901 42.4299 8.96473 42.4316 8.95256 42.4382C8.9404 42.4449 8.9313 42.4561 8.92719 42.4693Z" fill="white"/>
<path d="M6.02819 47.3381L6.03469 47.357C6.02252 47.3416 6.01026 47.3257 5.99828 47.3101C5.97831 47.285 5.95903 47.2596 5.93993 47.2338C5.19099 46.2292 4.69833 45.0572 4.50465 43.8192C4.46578 43.5781 4.43843 43.3357 4.42259 43.0922C4.35703 42.1511 4.46818 41.206 4.75029 40.3059C4.83925 40.0085 4.97019 39.7254 5.13915 39.4651C5.16455 39.428 5.19065 39.3918 5.21826 39.3566C5.38344 39.1328 5.61394 38.9658 5.87801 38.8786C5.97497 38.8488 6.07559 38.8327 6.17698 38.8306C6.21237 38.8295 6.24741 38.8303 6.28246 38.8324C6.50074 38.8537 6.71227 38.9198 6.9038 39.0267C7.09533 39.1335 7.26274 39.2788 7.39555 39.4533C7.59154 39.7147 7.73414 40.0122 7.81519 40.3288C7.82358 40.3587 7.83148 40.3887 7.8389 40.4188C7.89009 40.6313 7.92744 40.8469 7.95074 41.0642C8.19967 43.2694 7.52222 45.6972 6.02819 47.3381Z" fill="#F2F2F2"/>
<path d="M6.17532 38.8391C6.03855 39.9287 5.94314 41.0225 5.8891 42.1204C5.8353 43.2173 5.82316 44.3152 5.85268 45.414C5.86923 46.0288 5.89886 46.6431 5.94159 47.2567C5.94631 47.3247 6.05327 47.3298 6.04849 47.261C5.9724 46.1654 5.93783 45.068 5.9448 43.9688C5.95195 42.8706 6.00075 41.7738 6.0912 40.6782C6.14184 40.0653 6.20551 39.4537 6.28223 38.8433C6.29079 38.7751 6.18386 38.771 6.17532 38.8391Z" fill="white"/>
<path d="M7.73899 40.3757C7.60613 41.1372 7.17847 41.8156 6.54873 42.2639C6.37305 42.389 6.18347 42.4933 5.98378 42.5747C5.91994 42.6008 5.96924 42.6959 6.03253 42.6699C6.77117 42.3584 7.3571 41.768 7.66311 41.027C7.74893 40.8192 7.81027 40.602 7.8459 40.38C7.85693 40.3122 7.74995 40.3084 7.73899 40.3757Z" fill="white"/>
<path d="M5.71732 45.1886C5.54775 45.1013 5.38891 44.9945 5.24401 44.8704C4.91337 44.5878 4.65912 44.2265 4.50465 43.8198C4.46578 43.5787 4.43843 43.3364 4.42259 43.0928C4.43198 43.0978 4.43992 43.1051 4.44561 43.1141C4.45129 43.1231 4.45454 43.1334 4.45503 43.144C4.47096 43.3246 4.50775 43.5028 4.56467 43.6749C4.76703 44.2891 5.20132 44.7999 5.77493 45.0985C5.78176 45.1015 5.78771 45.1061 5.79223 45.1121C5.79674 45.118 5.79965 45.125 5.80069 45.1323C5.80135 45.1425 5.79934 45.1526 5.79486 45.1618C5.79038 45.1709 5.78359 45.1787 5.77516 45.1844C5.76673 45.1901 5.75695 45.1935 5.7468 45.1942C5.73666 45.195 5.72649 45.193 5.71732 45.1886Z" fill="white"/>
<path d="M5.12183 39.3982C5.2464 39.9134 5.53213 40.3754 5.93746 40.717C5.94943 40.7245 5.9639 40.7271 5.97773 40.724C5.99156 40.721 6.00363 40.7126 6.01133 40.7007C6.01863 40.6887 6.02101 40.6743 6.01799 40.6605C6.01496 40.6468 6.00675 40.6347 5.99507 40.6269C5.61269 40.3016 5.3435 39.8633 5.2263 39.3752C5.22286 39.3618 5.21433 39.3502 5.20251 39.3429C5.19069 39.3356 5.17651 39.3332 5.16295 39.3362C5.1494 39.3392 5.13753 39.3473 5.12986 39.3589C5.12219 39.3705 5.11931 39.3845 5.12183 39.3982Z" fill="white"/>
<path d="M6.07449 49.9355L6.09018 49.948C6.07164 49.9415 6.05275 49.9348 6.0342 49.928C6.00389 49.9177 5.97395 49.9066 5.94398 49.8952C4.7719 49.4521 3.72556 48.7298 2.89564 47.7911C2.73304 47.6088 2.57948 47.4194 2.43495 47.2227C1.87288 46.465 1.45757 45.6089 1.21046 44.6985C1.12529 44.4001 1.08315 44.091 1.08531 43.7807C1.08674 43.7357 1.08923 43.6912 1.09352 43.6466C1.1122 43.3691 1.21648 43.1043 1.39197 42.8885C1.45768 42.8113 1.53375 42.7435 1.61803 42.6871C1.64727 42.6671 1.67723 42.6489 1.70789 42.6318C1.90329 42.5322 2.11714 42.474 2.33606 42.4609C2.55498 42.4477 2.77425 42.4799 2.98015 42.5555C3.28611 42.6702 3.56647 42.8441 3.80525 43.0672C3.82842 43.0878 3.85125 43.1089 3.87373 43.1303C4.03128 43.2817 4.17885 43.4432 4.31551 43.6138C5.71292 45.3378 6.44961 47.7483 6.07449 49.9355Z" fill="#F2F2F2"/>
<path d="M1.62114 42.6948C2.09275 43.6866 2.60144 44.6595 3.14719 45.6137C3.6926 46.5669 4.27365 47.4985 4.89032 48.4085C5.23536 48.9176 5.59114 49.4192 5.95765 49.9132C5.9982 49.9679 6.09109 49.9146 6.05001 49.8592C5.39585 48.9771 4.77572 48.0711 4.1896 47.1411C3.60418 46.212 3.05457 45.2615 2.54077 44.2897C2.25335 43.746 1.97759 43.1964 1.71351 42.6408C1.68396 42.5786 1.5917 42.6328 1.62114 42.6948Z" fill="white"/>
<path d="M3.76587 43.1465C4.06403 43.8596 4.06907 44.6616 3.7799 45.3785C3.69922 45.5785 3.59565 45.7684 3.47124 45.9446C3.43154 46.001 3.52425 46.0545 3.56361 45.9986C4.01818 45.3382 4.19393 44.5252 4.0527 43.7361C4.01307 43.5147 3.9478 43.2988 3.85824 43.0925C3.83104 43.0294 3.73885 43.0839 3.76587 43.1465Z" fill="white"/>
<path d="M4.65462 48.2905C4.4647 48.3083 4.27336 48.3038 4.08445 48.2773C3.65361 48.2172 3.24481 48.0497 2.89564 47.7903C2.73304 47.6081 2.57948 47.4186 2.43495 47.2219C2.44555 47.221 2.45618 47.2229 2.46581 47.2274C2.47544 47.2319 2.48373 47.2389 2.48986 47.2476C2.60056 47.3912 2.72751 47.5215 2.86819 47.6359C3.36947 48.0444 4.01051 48.2409 4.65462 48.1836C4.66197 48.1824 4.6695 48.1831 4.67649 48.1857C4.68348 48.1882 4.6897 48.1925 4.69454 48.1982C4.70057 48.2064 4.70434 48.216 4.70549 48.2261C4.70663 48.2362 4.70511 48.2465 4.70107 48.2558C4.69703 48.2651 4.69062 48.2733 4.68247 48.2794C4.67433 48.2854 4.66472 48.2893 4.65462 48.2905Z" fill="white"/>
<path d="M1.03441 43.7325C1.41684 44.0995 1.90642 44.3349 2.43189 44.4044C2.46077 44.4083 2.48511 44.3771 2.48538 44.3509C2.48504 44.3368 2.4793 44.3234 2.46934 44.3135C2.45938 44.3035 2.44597 44.2978 2.43189 44.2974C1.93454 44.2293 1.47168 44.005 1.11005 43.6568C1.06047 43.6091 0.984732 43.6846 1.03441 43.7325Z" fill="white"/>
<path d="M13.3759 35.8267C13.4804 35.7551 13.5679 35.6614 13.6322 35.5523C13.6966 35.4432 13.7362 35.3214 13.7484 35.1953C13.7606 35.0692 13.7449 34.942 13.7026 34.8227C13.6603 34.7033 13.5923 34.5946 13.5035 34.5044L13.8395 27.0029L12.1286 27.195L12.228 34.5324C12.0863 34.6918 12.0079 34.8975 12.0077 35.1108C12.0076 35.324 12.0856 35.5299 12.2271 35.6894C12.3686 35.849 12.5637 35.951 12.7754 35.9763C12.9872 36.0016 13.2008 35.9484 13.3759 35.8267Z" fill="#FFB8B8"/>
<path d="M16.4971 48.5245L17.4709 48.6957L18.4333 45.0212L17.1574 44.7686L16.4971 48.5245Z" fill="#FFB8B8"/>
<path d="M19.1898 49.9307L16.1295 49.3926L16.3373 48.2102L18.2153 48.5404C18.3706 48.5677 18.519 48.6253 18.652 48.7099C18.785 48.7946 18.9 48.9046 18.9905 49.0337C19.081 49.1628 19.1452 49.3084 19.1794 49.4623C19.2136 49.6163 19.2171 49.7754 19.1898 49.9307Z" fill="#2F2E41"/>
<path d="M13.8243 49.0119L14.8131 49.0118L15.2834 45.1982L13.8242 45.1983L13.8243 49.0119Z" fill="#FFB8B8"/>
<path d="M16.7198 49.9307L13.6125 49.9308L13.6125 48.7303L15.5192 48.7302C15.8376 48.7302 16.143 48.8566 16.3682 49.0818C16.5933 49.3069 16.7198 49.6123 16.7198 49.9307Z" fill="#2F2E41"/>
<path d="M18.0302 47.9678C18.0148 47.9678 17.9993 47.9669 17.984 47.9651L16.8203 47.8693C16.7673 47.8631 16.7162 47.8462 16.6699 47.8195C16.6237 47.7929 16.5833 47.7572 16.5513 47.7145C16.5193 47.6718 16.4964 47.6231 16.4838 47.5712C16.4712 47.5194 16.4693 47.4655 16.4782 47.4129L17.5527 41.3903L16.8266 37.5617C16.8207 37.5306 16.8038 37.5027 16.7789 37.4831C16.754 37.4635 16.7229 37.4536 16.6912 37.4552C16.6596 37.4568 16.6296 37.4697 16.6068 37.4917C16.584 37.5136 16.5699 37.5431 16.5671 37.5746L15.6593 47.7865C15.6494 47.889 15.6 47.9836 15.5216 48.0504C15.4432 48.1171 15.342 48.1508 15.2392 48.1444L14.1428 48.1035C14.0468 48.0967 13.9565 48.055 13.8891 47.9862C13.8217 47.9174 13.7818 47.8263 13.777 47.7301L13.7033 35.4907L19.3873 34.7803L19.7843 40.9126L19.7828 40.9191L18.4125 47.6671C18.3917 47.7527 18.3426 47.829 18.2733 47.8835C18.204 47.938 18.1184 47.9677 18.0302 47.9678Z" fill="#2F2E41"/>
<path d="M15.5773 22.1421C16.6712 22.1421 17.558 21.2553 17.558 20.1614C17.558 19.0675 16.6712 18.1807 15.5773 18.1807C14.4834 18.1807 13.5966 19.0675 13.5966 20.1614C13.5966 21.2553 14.4834 22.1421 15.5773 22.1421Z" fill="#FFB8B8"/>
<path d="M17.4436 36.3855C17.1339 36.3873 16.83 36.3004 16.5681 36.135C15.6086 35.5354 14.5188 35.7737 13.9546 35.9691C13.8986 35.9887 13.8389 35.9954 13.78 35.9887C13.7211 35.982 13.6644 35.962 13.6143 35.9303C13.5647 35.8992 13.5228 35.8573 13.4917 35.8077C13.4607 35.7581 13.4412 35.7021 13.4349 35.6439L12.4089 26.4806C12.2369 24.9453 13.1618 23.5018 14.6079 23.0483C14.6622 23.0313 14.7175 23.0151 14.7736 22.9999C15.2236 22.8779 15.6949 22.8559 16.1543 22.9357C16.6137 23.0154 17.0501 23.1948 17.4326 23.4614C17.8224 23.7308 18.1483 24.0824 18.3875 24.4914C18.6266 24.9004 18.7733 25.3568 18.8171 25.8285L19.6808 35.0533C19.6867 35.113 19.6786 35.1733 19.6573 35.2294C19.6359 35.2855 19.6018 35.3358 19.5577 35.3765C19.2549 35.6566 18.3761 36.3854 17.4436 36.3855Z" fill="#0070D2"/>
<path d="M14.3194 28.4452L12.0046 28.1907C11.9387 28.1834 11.8752 28.1621 11.8183 28.1281C11.7615 28.094 11.7126 28.0482 11.675 27.9936C11.6375 27.939 11.6122 27.8769 11.6008 27.8117C11.5894 27.7464 11.5922 27.6794 11.609 27.6153L12.1982 25.3697C12.2371 25.0329 12.4081 24.7254 12.6734 24.5144C12.9388 24.3035 13.277 24.2064 13.6139 24.2444C13.9508 24.2825 14.2588 24.4525 14.4705 24.7173C14.6821 24.9821 14.7802 25.3201 14.743 25.657L14.8305 27.9696C14.833 28.0358 14.8212 28.1017 14.7959 28.163C14.7706 28.2242 14.7323 28.2793 14.6838 28.3244C14.6353 28.3695 14.5777 28.4037 14.5148 28.4245C14.4519 28.4454 14.3852 28.4524 14.3194 28.4452Z" fill="#0070D2"/>
<path d="M19.6716 35.5057C19.7666 35.4221 19.8422 35.3186 19.8929 35.2025C19.9437 35.0865 19.9684 34.9607 19.9652 34.8341C19.9621 34.7075 19.9313 34.5831 19.8749 34.4697C19.8185 34.3563 19.7379 34.2566 19.6388 34.1777L19.0684 26.6904L17.392 27.0678L18.3761 34.3593C18.2545 34.5345 18.2015 34.7482 18.2271 34.9599C18.2526 35.1716 18.3549 35.3666 18.5146 35.5079C18.6743 35.6492 18.8802 35.7271 19.0935 35.7267C19.3067 35.7263 19.5124 35.6477 19.6716 35.5057Z" fill="#FFB8B8"/>
<path d="M16.7492 27.9748C16.7007 27.9297 16.6625 27.8746 16.6371 27.8134C16.6118 27.7521 16.6 27.6862 16.6026 27.6199L16.69 25.3074C16.6529 24.9705 16.7509 24.6325 16.9626 24.3677C17.1743 24.1029 17.4823 23.9328 17.8192 23.8948C18.156 23.8568 18.4942 23.9539 18.7596 24.1648C19.025 24.3757 19.1959 24.6833 19.2349 25.0201L19.8241 27.2657C19.8409 27.3298 19.8437 27.3968 19.8323 27.4621C19.8209 27.5273 19.7956 27.5894 19.758 27.644C19.7205 27.6986 19.6716 27.7444 19.6147 27.7784C19.5579 27.8125 19.4943 27.8338 19.4285 27.841L17.1137 28.0956C17.0478 28.1028 16.9812 28.0958 16.9183 28.075C16.8554 28.0541 16.7977 28.0199 16.7492 27.9748Z" fill="#0070D2"/>
<path d="M15.4595 22.2168C15.4243 22.2168 15.3892 22.2127 15.3549 22.2046L15.3449 22.2022C13.6034 21.9358 13.2185 20.9271 13.134 20.5058C13.0466 20.0697 13.1462 19.6487 13.3711 19.4852C13.2485 19.0979 13.2682 18.7545 13.4298 18.4641C13.7117 17.9576 14.3234 17.7863 14.4055 17.7654C14.894 17.405 15.4786 17.6456 15.5849 17.6943C16.53 17.3447 16.8912 17.6357 16.9565 17.7007C17.379 17.7766 17.6364 17.9398 17.7219 18.1859C17.8825 18.648 17.3747 19.2229 17.353 19.2472L17.3418 19.2598L16.5853 19.2958C16.5135 19.2992 16.4433 19.3177 16.3791 19.35C16.3149 19.3823 16.2582 19.4278 16.2127 19.4834C16.1673 19.5391 16.134 19.6036 16.1151 19.673C16.0962 19.7423 16.092 19.8148 16.1029 19.8859C16.1234 19.9775 16.1493 20.0679 16.1804 20.1565C16.3096 20.5602 16.4064 20.9051 16.2815 21.0362C16.2533 21.0616 16.2184 21.0785 16.181 21.085C16.1435 21.0915 16.105 21.0873 16.0698 21.0729C15.9516 21.0414 15.8712 21.048 15.8312 21.0927C15.7691 21.162 15.7881 21.3374 15.8846 21.5867C15.9149 21.6655 15.9231 21.7511 15.9082 21.8342C15.8933 21.9173 15.856 21.9948 15.8003 22.0582C15.7583 22.1077 15.7061 22.1475 15.6473 22.1749C15.5885 22.2023 15.5244 22.2166 15.4595 22.2168Z" fill="#2F2E41"/>
<path d="M38.8516 28.5483H29.0935C28.7301 28.5479 28.3816 28.4034 28.1246 28.1463C27.8675 27.8893 27.723 27.5409 27.7226 27.1774V12.5135C27.723 12.1501 27.8675 11.8016 28.1246 11.5446C28.3816 11.2876 28.7301 11.143 29.0935 11.1426H38.8516C39.2151 11.143 39.5635 11.2876 39.8206 11.5446C40.0776 11.8016 40.2222 12.1501 40.2226 12.5135V27.1774C40.2222 27.5409 40.0776 27.8893 39.8206 28.1463C39.5635 28.4034 39.2151 28.5479 38.8516 28.5483ZM29.0935 11.3039C28.7728 11.3042 28.4653 11.4318 28.2386 11.6586C28.0118 11.8854 27.8842 12.1928 27.8839 12.5135V27.1774C27.8842 27.4981 28.0118 27.8056 28.2386 28.0324C28.4653 28.2591 28.7728 28.3867 29.0935 28.3871H38.8516C39.1723 28.3867 39.4798 28.2591 39.7066 28.0324C39.9333 27.8056 40.0609 27.4981 40.0613 27.1774V12.5135C40.0609 12.1928 39.9333 11.8854 39.7066 11.6586C39.4798 11.4318 39.1723 11.3042 38.8516 11.3039H29.0935Z" fill="#3F3D56"/>
<path d="M37.3597 18.1925H30.5855C30.4037 18.1923 30.2295 18.12 30.101 17.9915C29.9725 17.863 29.9002 17.6887 29.9 17.507V14.2812C29.9002 14.0994 29.9725 13.9252 30.101 13.7967C30.2295 13.6682 30.4037 13.5959 30.5855 13.5957H37.3597C37.5414 13.5959 37.7156 13.6682 37.8441 13.7967C37.9726 13.9252 38.0449 14.0994 38.0451 14.2812V17.507C38.0449 17.6887 37.9726 17.863 37.8441 17.9915C37.7156 18.12 37.5414 18.1923 37.3597 18.1925Z" fill="#D5EBFF"/>
<path d="M36.8758 21.2161H31.0693C30.8982 21.2161 30.7341 21.1481 30.6131 21.0271C30.4922 20.9061 30.4242 20.742 30.4242 20.5709C30.4242 20.3998 30.4922 20.2357 30.6131 20.1147C30.7341 19.9938 30.8982 19.9258 31.0693 19.9258H36.8758C37.0469 19.9258 37.211 19.9938 37.332 20.1147C37.453 20.2357 37.521 20.3998 37.521 20.5709C37.521 20.742 37.453 20.9061 37.332 21.0271C37.211 21.1481 37.0469 21.2161 36.8758 21.2161Z" fill="#CCCCCC"/>
<path d="M36.8758 23.636H31.0693C30.8982 23.636 30.7341 23.5681 30.6131 23.4471C30.4922 23.3261 30.4242 23.162 30.4242 22.9909C30.4242 22.8198 30.4922 22.6557 30.6131 22.5347C30.7341 22.4137 30.8982 22.3457 31.0693 22.3457H36.8758C37.0469 22.3457 37.211 22.4137 37.332 22.5347C37.453 22.6557 37.521 22.8198 37.521 22.9909C37.521 23.162 37.453 23.3261 37.332 23.4471C37.211 23.5681 37.0469 23.636 36.8758 23.636Z" fill="#CCCCCC"/>
<path d="M36.8758 26.055H31.0693C30.8982 26.055 30.7341 25.987 30.6131 25.866C30.4922 25.745 30.4242 25.5809 30.4242 25.4098C30.4242 25.2387 30.4922 25.0746 30.6131 24.9536C30.7341 24.8326 30.8982 24.7646 31.0693 24.7646H36.8758C37.0469 24.7646 37.211 24.8326 37.332 24.9536C37.453 25.0746 37.521 25.2387 37.521 25.4098C37.521 25.5809 37.453 25.745 37.332 25.866C37.211 25.987 37.0469 26.055 36.8758 26.055Z" fill="#CCCCCC"/>
<path d="M62.6419 36.7739H52.8839C52.5204 36.7735 52.1719 36.629 51.9149 36.3719C51.6579 36.1149 51.5133 35.7664 51.5129 35.403V20.7391C51.5133 20.3757 51.6579 20.0272 51.9149 19.7702C52.1719 19.5131 52.5204 19.3686 52.8839 19.3682H62.6419C63.0054 19.3686 63.3539 19.5131 63.6109 19.7702C63.8679 20.0272 64.0125 20.3757 64.0129 20.7391V35.403C64.0125 35.7664 63.8679 36.1149 63.6109 36.3719C63.3539 36.629 63.0054 36.7735 62.6419 36.7739ZM52.8839 19.5295C52.5631 19.5298 52.2557 19.6574 52.0289 19.8842C51.8021 20.1109 51.6745 20.4184 51.6742 20.7391V35.403C51.6745 35.7237 51.8021 36.0312 52.0289 36.2579C52.2557 36.4847 52.5631 36.6123 52.8839 36.6126H62.6419C62.9626 36.6123 63.2701 36.4847 63.4969 36.2579C63.7237 36.0312 63.8512 35.7237 63.8516 35.403V20.7391C63.8512 20.4184 63.7237 20.1109 63.4969 19.8842C63.2701 19.6574 62.9626 19.5298 62.6419 19.5295H52.8839Z" fill="#3F3D56"/>
<path d="M60.6661 22.9905H54.8597C54.6886 22.9905 54.5245 22.9225 54.4035 22.8016C54.2825 22.6806 54.2145 22.5165 54.2145 22.3454C54.2145 22.1742 54.2825 22.0101 54.4035 21.8892C54.5245 21.7682 54.6886 21.7002 54.8597 21.7002H60.6661C60.8372 21.7002 61.0013 21.7682 61.1223 21.8892C61.2433 22.0101 61.3113 22.1742 61.3113 22.3454C61.3113 22.5165 61.2433 22.6806 61.1223 22.8016C61.0013 22.9225 60.8372 22.9905 60.6661 22.9905Z" fill="#CCCCCC"/>
<path d="M60.6661 25.4104H54.8597C54.6886 25.4104 54.5245 25.3425 54.4035 25.2215C54.2825 25.1005 54.2145 24.9364 54.2145 24.7653C54.2145 24.5942 54.2825 24.4301 54.4035 24.3091C54.5245 24.1881 54.6886 24.1201 54.8597 24.1201H60.6661C60.8372 24.1201 61.0013 24.1881 61.1223 24.3091C61.2433 24.4301 61.3113 24.5942 61.3113 24.7653C61.3113 24.9364 61.2433 25.1005 61.1223 25.2215C61.0013 25.3425 60.8372 25.4104 60.6661 25.4104Z" fill="#CCCCCC"/>
<path d="M61.15 31.5792H54.3758C54.1941 31.579 54.0198 31.5067 53.8913 31.3782C53.7628 31.2497 53.6905 31.0754 53.6903 30.8937V27.6679C53.6905 27.4862 53.7628 27.3119 53.8913 27.1834C54.0198 27.0549 54.1941 26.9826 54.3758 26.9824H61.15C61.3317 26.9826 61.5059 27.0549 61.6345 27.1834C61.763 27.3119 61.8353 27.4862 61.8355 27.6679V30.8937C61.8353 31.0754 61.763 31.2497 61.6345 31.3782C61.5059 31.5067 61.3317 31.579 61.15 31.5792Z" fill="#E6E6E6"/>
<path d="M60.6661 34.4427H54.8597C54.6886 34.4427 54.5245 34.3747 54.4035 34.2537C54.2825 34.1327 54.2145 33.9686 54.2145 33.7975C54.2145 33.6264 54.2825 33.4623 54.4035 33.3413C54.5245 33.2203 54.6886 33.1523 54.8597 33.1523H60.6661C60.8372 33.1523 61.0013 33.2203 61.1223 33.3413C61.2433 33.4623 61.3113 33.6264 61.3113 33.7975C61.3113 33.9686 61.2433 34.1327 61.1223 34.2537C61.0013 34.3747 60.8372 34.4427 60.6661 34.4427Z" fill="#CCCCCC"/>
<path d="M56.6742 13.4682H46.9161C46.5526 13.4678 46.2042 13.3232 45.9471 13.0662C45.6901 12.8092 45.5456 12.4607 45.5452 12.0972V2.99792C45.5456 2.63444 45.6901 2.28597 45.9471 2.02895C46.2042 1.77193 46.5526 1.62736 46.9161 1.62695H56.6742C57.0377 1.62736 57.3861 1.77193 57.6431 2.02895C57.9002 2.28597 58.0447 2.63444 58.0451 2.99792V12.0972C58.0447 12.4607 57.9002 12.8092 57.6431 13.0662C57.3861 13.3232 57.0377 13.4678 56.6742 13.4682ZM46.9161 1.78824C46.5954 1.78861 46.2879 1.91617 46.0611 2.14295C45.8344 2.36973 45.7068 2.67721 45.7064 2.99792V12.0972C45.7068 12.418 45.8344 12.7254 46.0611 12.9522C46.2879 13.179 46.5954 13.3066 46.9161 13.3069H56.6742C56.9949 13.3066 57.3024 13.179 57.5292 12.9522C57.7559 12.7254 57.8835 12.418 57.8839 12.0972V2.99792C57.8835 2.67721 57.7559 2.36973 57.5292 2.14295C57.3024 1.91617 56.9949 1.78861 56.6742 1.78824H46.9161Z" fill="#3F3D56"/>
<path d="M54.6984 10.6116H48.8919C48.7208 10.6116 48.5567 10.5436 48.4357 10.4226C48.3147 10.3017 48.2468 10.1376 48.2468 9.96645C48.2468 9.79534 48.3147 9.63124 48.4357 9.51025C48.5567 9.38926 48.7208 9.32129 48.8919 9.32129H54.6984C54.8695 9.32129 55.0336 9.38926 55.1546 9.51025C55.2756 9.63124 55.3435 9.79534 55.3435 9.96645C55.3435 10.1376 55.2756 10.3017 55.1546 10.4226C55.0336 10.5436 54.8695 10.6116 54.6984 10.6116Z" fill="#CCCCCC"/>
<path d="M54.6984 8.19267H48.8919C48.7208 8.19267 48.5567 8.12469 48.4357 8.0037C48.3147 7.88271 48.2468 7.71861 48.2468 7.54751C48.2468 7.3764 48.3147 7.2123 48.4357 7.09131C48.5567 6.97032 48.7208 6.90234 48.8919 6.90234H54.6984C54.8695 6.90234 55.0336 6.97032 55.1546 7.09131C55.2756 7.2123 55.3435 7.3764 55.3435 7.54751C55.3435 7.71861 55.2756 7.88271 55.1546 8.0037C55.0336 8.12469 54.8695 8.19267 54.6984 8.19267Z" fill="#CCCCCC"/>
<path d="M54.6984 5.77274H48.8919C48.7208 5.77274 48.5567 5.70477 48.4357 5.58378C48.3147 5.46279 48.2468 5.29869 48.2468 5.12758C48.2468 4.95648 48.3147 4.79238 48.4357 4.67139C48.5567 4.55039 48.7208 4.48242 48.8919 4.48242H54.6984C54.8695 4.48242 55.0336 4.55039 55.1546 4.67139C55.2756 4.79238 55.3435 4.95648 55.3435 5.12758C55.3435 5.29869 55.2756 5.46279 55.1546 5.58378C55.0336 5.70477 54.8695 5.77274 54.6984 5.77274Z" fill="#CCCCCC"/>
<path d="M39.4161 13.3874C40.4405 13.3874 41.271 12.557 41.271 11.5326C41.271 10.5082 40.4405 9.67773 39.4161 9.67773C38.3917 9.67773 37.5613 10.5082 37.5613 11.5326C37.5613 12.557 38.3917 13.3874 39.4161 13.3874Z" fill="#0070D2"/>
<path d="M39.2323 12.2398C39.1905 12.2398 39.1499 12.2264 39.1165 12.2013L39.1145 12.1998L38.6786 11.866C38.6583 11.8506 38.6412 11.8313 38.6284 11.8093C38.6156 11.7873 38.6072 11.7629 38.6038 11.7376C38.6005 11.7124 38.6021 11.6867 38.6086 11.6621C38.6152 11.6374 38.6266 11.6143 38.6421 11.5941C38.6576 11.5739 38.6769 11.5569 38.699 11.5442C38.7211 11.5314 38.7454 11.5232 38.7707 11.5199C38.796 11.5166 38.8217 11.5183 38.8463 11.5249C38.8709 11.5316 38.8939 11.543 38.9141 11.5586L39.1965 11.7751L39.8637 10.9049C39.8792 10.8847 39.8984 10.8678 39.9205 10.8551C39.9425 10.8424 39.9668 10.8341 39.992 10.8308C40.0172 10.8274 40.0428 10.8291 40.0674 10.8357C40.092 10.8423 40.115 10.8536 40.1352 10.8691L40.1311 10.8747L40.1353 10.8692C40.176 10.9005 40.2027 10.9466 40.2094 10.9975C40.2161 11.0484 40.2023 11.0999 40.1711 11.1407L39.3863 12.1642C39.3682 12.1878 39.3449 12.2069 39.3181 12.22C39.2914 12.2331 39.262 12.2399 39.2323 12.2398Z" fill="white"/>
<path d="M63.6097 21.6931C64.6341 21.6931 65.4645 20.8626 65.4645 19.8382C65.4645 18.8138 64.6341 17.9834 63.6097 17.9834C62.5853 17.9834 61.7548 18.8138 61.7548 19.8382C61.7548 20.8626 62.5853 21.6931 63.6097 21.6931Z" fill="#3F3D56"/>
<path d="M63.4258 20.5464C63.3841 20.5465 63.3435 20.533 63.3101 20.508L63.308 20.5064L62.8721 20.1727C62.8518 20.1572 62.8348 20.138 62.8219 20.1159C62.8091 20.0939 62.8008 20.0695 62.7974 20.0443C62.794 20.019 62.7956 19.9933 62.8022 19.9687C62.8087 19.9441 62.8201 19.921 62.8356 19.9007C62.8511 19.8805 62.8705 19.8635 62.8925 19.8508C62.9146 19.8381 62.939 19.8298 62.9643 19.8265C62.9895 19.8232 63.0152 19.8249 63.0398 19.8316C63.0644 19.8382 63.0875 19.8496 63.1077 19.8652L63.39 20.0817L64.0572 19.2116C64.0727 19.1914 64.092 19.1744 64.114 19.1617C64.136 19.149 64.1603 19.1407 64.1856 19.1374C64.2108 19.1341 64.2364 19.1358 64.261 19.1423C64.2855 19.1489 64.3086 19.1602 64.3287 19.1757L64.3246 19.1814L64.3289 19.1758C64.3696 19.2071 64.3962 19.2533 64.4029 19.3042C64.4096 19.3551 64.3959 19.4065 64.3647 19.4473L63.5799 20.4708C63.5617 20.4944 63.5384 20.5135 63.5117 20.5266C63.485 20.5397 63.4556 20.5465 63.4258 20.5464Z" fill="white"/>
<path d="M57.7226 3.70968C58.747 3.70968 59.5774 2.87924 59.5774 1.85484C59.5774 0.83044 58.747 0 57.7226 0C56.6982 0 55.8677 0.83044 55.8677 1.85484C55.8677 2.87924 56.6982 3.70968 57.7226 3.70968Z" fill="#3F3D56"/>
<path d="M57.5387 2.56204C57.497 2.56212 57.4564 2.54862 57.423 2.52359L57.4209 2.52204L56.985 2.1883C56.9647 2.17287 56.9477 2.15358 56.9348 2.13155C56.922 2.10952 56.9137 2.08517 56.9103 2.05991C56.9069 2.03465 56.9085 2.00896 56.9151 1.98433C56.9217 1.9597 56.933 1.9366 56.9485 1.91637C56.964 1.89614 56.9834 1.87916 57.0054 1.86642C57.0275 1.85368 57.0519 1.84542 57.0772 1.84212C57.1024 1.83882 57.1281 1.84054 57.1527 1.84719C57.1773 1.85383 57.2004 1.86527 57.2206 1.88085L57.5029 2.09734L58.1701 1.22719C58.1856 1.20701 58.2049 1.19007 58.2269 1.17735C58.2489 1.16462 58.2732 1.15636 58.2985 1.15303C58.3237 1.1497 58.3493 1.15137 58.3739 1.15795C58.3984 1.16452 58.4215 1.17587 58.4416 1.19135L58.4375 1.19698L58.4418 1.19143C58.4825 1.22272 58.5091 1.26888 58.5158 1.31978C58.5225 1.37068 58.5088 1.42217 58.4776 1.46295L57.6928 2.48646C57.6746 2.51004 57.6513 2.52913 57.6246 2.54224C57.5979 2.55534 57.5685 2.56212 57.5387 2.56204Z" fill="white"/>
<path d="M30.8064 50.0002H0.0806452C0.0592567 50.0002 0.0387443 49.9917 0.0236204 49.9765C0.00849646 49.9614 0 49.9409 0 49.9195C0 49.8981 0.00849646 49.8776 0.0236204 49.8625C0.0387443 49.8474 0.0592567 49.8389 0.0806452 49.8389H30.8064C30.8278 49.8389 30.8484 49.8474 30.8635 49.8625C30.8786 49.8776 30.8871 49.8981 30.8871 49.9195C30.8871 49.9409 30.8786 49.9614 30.8635 49.9765C30.8484 49.9917 30.8278 50.0002 30.8064 50.0002Z" fill="#3F3D56"/>
</g>
<defs>
<clipPath id="clip0_3000_44463">
<rect width="65.4645" height="50" fill="white"/>
</clipPath>
</defs>
</svg>
