<svg width="87" height="80" viewBox="0 0 87 80" fill="none" xmlns="http://www.w3.org/2000/svg">
<path d="M-22.2581 3.87097C-22.2581 6.00884 -23.9912 7.74194 -26.129 7.74194C-28.2669 7.74194 -30 6.00884 -30 3.87097C-30 1.73309 -28.2669 0 -26.129 0C-23.9912 0 -22.2581 1.73309 -22.2581 3.87097Z" fill="#D9EBFB"/>
<path d="M-4.19355 3.87097C-4.19355 6.00884 -5.92664 7.74194 -8.06451 7.74194C-10.2024 7.74194 -11.9355 6.00884 -11.9355 3.87097C-11.9355 1.73309 -10.2024 0 -8.06451 0C-5.92664 0 -4.19355 1.73309 -4.19355 3.87097Z" fill="#D9EBFB"/>
<path d="M13.871 3.87097C13.871 6.00884 12.1379 7.74194 10 7.74194C7.86213 7.74194 6.12904 6.00884 6.12904 3.87097C6.12904 1.73309 7.86213 0 10 0C12.1379 0 13.871 1.73309 13.871 3.87097Z" fill="#D9EBFB"/>
<path d="M31.9355 3.87097C31.9355 6.00884 30.2024 7.74194 28.0645 7.74194C25.9266 7.74194 24.1936 6.00884 24.1936 3.87097C24.1936 1.73309 25.9266 0 28.0645 0C30.2024 0 31.9355 1.73309 31.9355 3.87097Z" fill="#D9EBFB"/>
<path d="M50 3.87097C50 6.00884 48.2669 7.74194 46.129 7.74194C43.9912 7.74194 42.2581 6.00884 42.2581 3.87097C42.2581 1.73309 43.9912 0 46.129 0C48.2669 0 50 1.73309 50 3.87097Z" fill="#D9EBFB"/>
<path d="M68.0645 3.87097C68.0645 6.00884 66.3314 7.74194 64.1936 7.74194C62.0557 7.74194 60.3226 6.00884 60.3226 3.87097C60.3226 1.73309 62.0557 0 64.1936 0C66.3314 0 68.0645 1.73309 68.0645 3.87097Z" fill="#D9EBFB"/>
<path d="M86.129 3.87097C86.129 6.00884 84.396 7.74194 82.2581 7.74194C80.1202 7.74194 78.3871 6.00884 78.3871 3.87097C78.3871 1.73309 80.1202 0 82.2581 0C84.396 0 86.129 1.73309 86.129 3.87097Z" fill="#D9EBFB"/>
<path d="M-22.2581 21.9355C-22.2581 24.0734 -23.9912 25.8064 -26.129 25.8064C-28.2669 25.8064 -30 24.0734 -30 21.9355C-30 19.7976 -28.2669 18.0645 -26.129 18.0645C-23.9912 18.0645 -22.2581 19.7976 -22.2581 21.9355Z" fill="#D9EBFB"/>
<path d="M-4.19355 21.9355C-4.19355 24.0734 -5.92664 25.8064 -8.06451 25.8064C-10.2024 25.8064 -11.9355 24.0734 -11.9355 21.9355C-11.9355 19.7976 -10.2024 18.0645 -8.06451 18.0645C-5.92664 18.0645 -4.19355 19.7976 -4.19355 21.9355Z" fill="#D9EBFB"/>
<path d="M13.871 21.9355C13.871 24.0734 12.1379 25.8064 10 25.8064C7.86213 25.8064 6.12904 24.0734 6.12904 21.9355C6.12904 19.7976 7.86213 18.0645 10 18.0645C12.1379 18.0645 13.871 19.7976 13.871 21.9355Z" fill="#D9EBFB"/>
<path d="M31.9355 21.9355C31.9355 24.0734 30.2024 25.8064 28.0645 25.8064C25.9266 25.8064 24.1936 24.0734 24.1936 21.9355C24.1936 19.7976 25.9266 18.0645 28.0645 18.0645C30.2024 18.0645 31.9355 19.7976 31.9355 21.9355Z" fill="#D9EBFB"/>
<path d="M50 21.9355C50 24.0734 48.2669 25.8064 46.129 25.8064C43.9912 25.8064 42.2581 24.0734 42.2581 21.9355C42.2581 19.7976 43.9912 18.0645 46.129 18.0645C48.2669 18.0645 50 19.7976 50 21.9355Z" fill="#D9EBFB"/>
<path d="M68.0645 21.9355C68.0645 24.0734 66.3314 25.8064 64.1936 25.8064C62.0557 25.8064 60.3226 24.0734 60.3226 21.9355C60.3226 19.7976 62.0557 18.0645 64.1936 18.0645C66.3314 18.0645 68.0645 19.7976 68.0645 21.9355Z" fill="#D9EBFB"/>
<path d="M86.129 21.9355C86.129 24.0734 84.396 25.8064 82.2581 25.8064C80.1202 25.8064 78.3871 24.0734 78.3871 21.9355C78.3871 19.7976 80.1202 18.0645 82.2581 18.0645C84.396 18.0645 86.129 19.7976 86.129 21.9355Z" fill="#D9EBFB"/>
<path d="M-22.2581 40C-22.2581 42.1379 -23.9912 43.871 -26.129 43.871C-28.2669 43.871 -30 42.1379 -30 40C-30 37.8621 -28.2669 36.129 -26.129 36.129C-23.9912 36.129 -22.2581 37.8621 -22.2581 40Z" fill="#D9EBFB"/>
<path d="M-4.19355 40C-4.19355 42.1379 -5.92664 43.871 -8.06451 43.871C-10.2024 43.871 -11.9355 42.1379 -11.9355 40C-11.9355 37.8621 -10.2024 36.129 -8.06451 36.129C-5.92664 36.129 -4.19355 37.8621 -4.19355 40Z" fill="#D9EBFB"/>
<path d="M13.871 40C13.871 42.1379 12.1379 43.871 10 43.871C7.86213 43.871 6.12904 42.1379 6.12904 40C6.12904 37.8621 7.86213 36.129 10 36.129C12.1379 36.129 13.871 37.8621 13.871 40Z" fill="#D9EBFB"/>
<path d="M31.9355 40C31.9355 42.1379 30.2024 43.871 28.0645 43.871C25.9266 43.871 24.1936 42.1379 24.1936 40C24.1936 37.8621 25.9266 36.129 28.0645 36.129C30.2024 36.129 31.9355 37.8621 31.9355 40Z" fill="#D9EBFB"/>
<path d="M50 40C50 42.1379 48.2669 43.871 46.129 43.871C43.9912 43.871 42.2581 42.1379 42.2581 40C42.2581 37.8621 43.9912 36.129 46.129 36.129C48.2669 36.129 50 37.8621 50 40Z" fill="#D9EBFB"/>
<path d="M68.0645 40C68.0645 42.1379 66.3314 43.871 64.1936 43.871C62.0557 43.871 60.3226 42.1379 60.3226 40C60.3226 37.8621 62.0557 36.129 64.1936 36.129C66.3314 36.129 68.0645 37.8621 68.0645 40Z" fill="#D9EBFB"/>
<path d="M86.129 40C86.129 42.1379 84.396 43.871 82.2581 43.871C80.1202 43.871 78.3871 42.1379 78.3871 40C78.3871 37.8621 80.1202 36.129 82.2581 36.129C84.396 36.129 86.129 37.8621 86.129 40Z" fill="#D9EBFB"/>
<path d="M-22.2581 58.0645C-22.2581 60.2024 -23.9912 61.9355 -26.129 61.9355C-28.2669 61.9355 -30 60.2024 -30 58.0645C-30 55.9266 -28.2669 54.1935 -26.129 54.1935C-23.9912 54.1935 -22.2581 55.9266 -22.2581 58.0645Z" fill="#D9EBFB"/>
<path d="M-4.19355 58.0645C-4.19355 60.2024 -5.92664 61.9355 -8.06451 61.9355C-10.2024 61.9355 -11.9355 60.2024 -11.9355 58.0645C-11.9355 55.9266 -10.2024 54.1935 -8.06451 54.1935C-5.92664 54.1935 -4.19355 55.9266 -4.19355 58.0645Z" fill="#D9EBFB"/>
<path d="M13.871 58.0645C13.871 60.2024 12.1379 61.9355 10 61.9355C7.86213 61.9355 6.12904 60.2024 6.12904 58.0645C6.12904 55.9266 7.86213 54.1935 10 54.1935C12.1379 54.1935 13.871 55.9266 13.871 58.0645Z" fill="#D9EBFB"/>
<path d="M31.9355 58.0645C31.9355 60.2024 30.2024 61.9355 28.0645 61.9355C25.9266 61.9355 24.1936 60.2024 24.1936 58.0645C24.1936 55.9266 25.9266 54.1935 28.0645 54.1935C30.2024 54.1935 31.9355 55.9266 31.9355 58.0645Z" fill="#D9EBFB"/>
<path d="M50 58.0645C50 60.2024 48.2669 61.9355 46.129 61.9355C43.9912 61.9355 42.2581 60.2024 42.2581 58.0645C42.2581 55.9266 43.9912 54.1935 46.129 54.1935C48.2669 54.1935 50 55.9266 50 58.0645Z" fill="#D9EBFB"/>
<path d="M68.0645 58.0645C68.0645 60.2024 66.3314 61.9355 64.1936 61.9355C62.0557 61.9355 60.3226 60.2024 60.3226 58.0645C60.3226 55.9266 62.0557 54.1935 64.1936 54.1935C66.3314 54.1935 68.0645 55.9266 68.0645 58.0645Z" fill="#D9EBFB"/>
<path d="M86.129 58.0645C86.129 60.2024 84.396 61.9355 82.2581 61.9355C80.1202 61.9355 78.3871 60.2024 78.3871 58.0645C78.3871 55.9266 80.1202 54.1935 82.2581 54.1935C84.396 54.1935 86.129 55.9266 86.129 58.0645Z" fill="#D9EBFB"/>
<path d="M-22.2581 76.129C-22.2581 78.2669 -23.9912 80 -26.129 80C-28.2669 80 -30 78.2669 -30 76.129C-30 73.9911 -28.2669 72.2581 -26.129 72.2581C-23.9912 72.2581 -22.2581 73.9911 -22.2581 76.129Z" fill="#D9EBFB"/>
<path d="M-4.19355 76.129C-4.19355 78.2669 -5.92664 80 -8.06451 80C-10.2024 80 -11.9355 78.2669 -11.9355 76.129C-11.9355 73.9911 -10.2024 72.2581 -8.06451 72.2581C-5.92664 72.2581 -4.19355 73.9911 -4.19355 76.129Z" fill="#D9EBFB"/>
<path d="M13.871 76.129C13.871 78.2669 12.1379 80 10 80C7.86213 80 6.12904 78.2669 6.12904 76.129C6.12904 73.9911 7.86213 72.2581 10 72.2581C12.1379 72.2581 13.871 73.9911 13.871 76.129Z" fill="#D9EBFB"/>
<path d="M31.9355 76.129C31.9355 78.2669 30.2024 80 28.0645 80C25.9266 80 24.1936 78.2669 24.1936 76.129C24.1936 73.9911 25.9266 72.2581 28.0645 72.2581C30.2024 72.2581 31.9355 73.9911 31.9355 76.129Z" fill="#D9EBFB"/>
<path d="M50 76.129C50 78.2669 48.2669 80 46.129 80C43.9912 80 42.2581 78.2669 42.2581 76.129C42.2581 73.9911 43.9912 72.2581 46.129 72.2581C48.2669 72.2581 50 73.9911 50 76.129Z" fill="#D9EBFB"/>
<path d="M68.0645 76.129C68.0645 78.2669 66.3314 80 64.1936 80C62.0557 80 60.3226 78.2669 60.3226 76.129C60.3226 73.9911 62.0557 72.2581 64.1936 72.2581C66.3314 72.2581 68.0645 73.9911 68.0645 76.129Z" fill="#D9EBFB"/>
<path d="M86.129 76.129C86.129 78.2669 84.396 80 82.2581 80C80.1202 80 78.3871 78.2669 78.3871 76.129C78.3871 73.9911 80.1202 72.2581 82.2581 72.2581C84.396 72.2581 86.129 73.9911 86.129 76.129Z" fill="#D9EBFB"/>
</svg>
