<svg width="593" height="1024" viewBox="0 0 593 1024" fill="none" xmlns="http://www.w3.org/2000/svg">
<g clip-path="url(#clip0_1976_33055)">
<rect width="593" height="1024" fill="#ECF6FF"/>
<ellipse cx="274.5" cy="869" rx="393.5" ry="374" fill="#0070D2" fill-opacity="0.08"/>
<ellipse cx="274.5" cy="1088" rx="393.5" ry="374" fill="#ECF6FF"/>
<g clip-path="url(#clip1_1976_33055)">
<path d="M151.836 680C204.765 680 247.672 676.738 247.672 672.714C247.672 668.69 204.765 665.428 151.836 665.428C98.9073 665.428 56 668.69 56 672.714C56 676.738 98.9073 680 151.836 680Z" fill="#E6E6E6"/>
<path d="M129.256 419.33C145.934 412.229 166.707 416.728 186.995 419.851C187.183 416.069 189.472 411.467 187.075 408.829C184.163 405.624 184.431 402.256 186.183 398.869C190.664 390.207 184.244 380.991 177.761 373.328C176.3 371.605 174.454 370.251 172.372 369.376C170.29 368.501 168.031 368.13 165.779 368.293L153.77 369.152C150.848 369.361 148.06 370.458 145.777 372.297C143.495 374.136 141.829 376.628 141 379.441C138.133 383.345 136.598 387.238 137.565 391.11C133.27 394.048 132.548 397.595 134.478 401.593C136.115 404.11 136.097 406.561 134.404 408.943C132.18 411.981 130.476 415.368 129.363 418.965L129.256 419.33Z" fill="#2F2E41"/>
<path d="M525.603 634.602H185.677C182.654 634.602 179.755 633.4 177.618 631.26C175.48 629.12 174.279 626.218 174.279 623.192C297.502 608.857 418.409 608.857 537.001 623.192C537.001 626.218 535.8 629.12 533.662 631.26C531.525 633.4 528.626 634.602 525.603 634.602Z" fill="#2F2E41"/>
<path d="M537.001 623.864L174.279 623.193L216.317 552.386L216.519 552.051V396.001C216.518 394.107 216.891 392.231 217.615 390.482C218.339 388.732 219.4 387.142 220.738 385.802C222.076 384.463 223.665 383.4 225.413 382.676C227.161 381.951 229.035 381.578 230.927 381.578H478.342C480.234 381.578 482.107 381.951 483.856 382.676C485.604 383.4 487.192 384.463 488.53 385.802C489.868 387.142 490.929 388.732 491.653 390.482C492.377 392.231 492.75 394.107 492.75 396.001V553.125L537.001 623.864Z" fill="#3F3D56"/>
<path d="M230.598 391.646C229.353 391.647 228.16 392.142 227.28 393.023C226.401 393.904 225.906 395.098 225.904 396.344V538.628C225.906 539.873 226.401 541.068 227.281 541.948C228.16 542.829 229.353 543.324 230.598 543.326H480.681C481.925 543.324 483.118 542.829 483.998 541.948C484.878 541.067 485.373 539.873 485.374 538.628V396.344C485.373 395.098 484.878 393.904 483.998 393.023C483.118 392.142 481.925 391.647 480.681 391.646H230.598Z" fill="white"/>
<path d="M231.646 562.117C231.262 562.118 230.886 562.229 230.562 562.436C230.238 562.644 229.98 562.94 229.819 563.289L216.866 591.477C216.725 591.784 216.663 592.122 216.686 592.458C216.71 592.795 216.817 593.121 216.999 593.405C217.181 593.69 217.432 593.923 217.728 594.086C218.024 594.248 218.356 594.332 218.693 594.333H491.093C491.436 594.332 491.773 594.245 492.072 594.078C492.372 593.91 492.624 593.669 492.804 593.377C492.984 593.086 493.087 592.752 493.102 592.409C493.117 592.067 493.045 591.725 492.892 591.418L478.812 563.23C478.646 562.895 478.389 562.613 478.071 562.416C477.753 562.22 477.387 562.116 477.013 562.117H231.646Z" fill="#2F2E41"/>
<path d="M354.634 389.296C356.301 389.296 357.651 387.944 357.651 386.276C357.651 384.608 356.301 383.256 354.634 383.256C352.968 383.256 351.617 384.608 351.617 386.276C351.617 387.944 352.968 389.296 354.634 389.296Z" fill="white"/>
<path d="M327.858 599.702C327.416 599.703 326.986 599.849 326.635 600.118C326.284 600.387 326.032 600.765 325.916 601.192L322.667 613.273C322.587 613.571 322.576 613.884 322.636 614.187C322.696 614.49 322.825 614.776 323.012 615.021C323.2 615.266 323.442 615.465 323.719 615.602C323.996 615.739 324.3 615.81 324.609 615.81H386.401C386.722 615.81 387.038 615.733 387.323 615.586C387.608 615.439 387.854 615.226 388.04 614.964C388.226 614.703 388.346 614.4 388.392 614.083C388.437 613.765 388.406 613.441 388.301 613.138L384.124 601.057C383.987 600.661 383.731 600.318 383.39 600.076C383.049 599.833 382.642 599.702 382.223 599.702H327.858Z" fill="#2F2E41"/>
<path d="M492.749 549.701V552.386H216.316L216.524 552.05V549.701H492.749Z" fill="#2F2E41"/>
<path d="M485.04 438.961C510.96 438.961 531.972 417.927 531.972 391.981C531.972 366.034 510.96 345 485.04 345C459.12 345 438.107 366.034 438.107 391.981C438.107 417.927 459.12 438.961 485.04 438.961Z" fill="#0070D2"/>
<path d="M504.483 412.45H465.596C464.885 412.45 464.203 412.167 463.7 411.663C463.198 411.16 462.915 410.478 462.914 409.766V386.275C462.915 385.564 463.198 384.881 463.7 384.378C464.203 383.875 464.885 383.592 465.596 383.591H504.483C505.194 383.592 505.876 383.875 506.378 384.378C506.881 384.881 507.164 385.564 507.165 386.275V409.766C507.164 410.478 506.881 411.16 506.378 411.663C505.876 412.167 505.194 412.45 504.483 412.45ZM465.596 386.275V409.766H504.485L504.483 386.275L465.596 386.275Z" fill="white"/>
<path d="M497.107 386.276H472.971V375.537C472.971 367.759 478.046 362.114 485.039 362.114C492.032 362.114 497.107 367.759 497.107 375.537L497.107 386.276ZM475.653 383.591H494.426V375.537C494.426 369.215 490.566 364.799 485.039 364.799C479.512 364.799 475.653 369.215 475.653 375.537L475.653 383.591Z" fill="white"/>
<path d="M485.039 400.034C486.52 400.034 487.721 398.832 487.721 397.35C487.721 395.867 486.52 394.665 485.039 394.665C483.558 394.665 482.357 395.867 482.357 397.35C482.357 398.832 483.558 400.034 485.039 400.034Z" fill="white"/>
<path d="M452.276 495.064H259.003C258.054 495.063 257.144 494.685 256.473 494.013C255.802 493.342 255.425 492.431 255.424 491.481V443.489C255.425 442.539 255.802 441.629 256.473 440.957C257.144 440.285 258.054 439.907 259.003 439.906H452.276C453.225 439.907 454.135 440.285 454.806 440.957C455.477 441.629 455.854 442.539 455.855 443.489V491.481C455.854 492.431 455.477 493.342 454.806 494.013C454.135 494.685 453.225 495.063 452.276 495.064ZM259.003 441.339C258.434 441.34 257.888 441.567 257.485 441.97C257.083 442.373 256.856 442.919 256.855 443.489V491.481C256.856 492.051 257.083 492.597 257.485 493C257.888 493.403 258.434 493.63 259.003 493.631H452.276C452.846 493.63 453.392 493.403 453.794 493C454.197 492.597 454.423 492.051 454.424 491.481V443.489C454.423 442.919 454.197 442.373 453.794 441.97C453.392 441.567 452.846 441.34 452.276 441.339L259.003 441.339Z" fill="#E6E6E6"/>
<path d="M289.033 480.239C297.085 480.239 303.612 473.705 303.612 465.644C303.612 457.584 297.085 451.05 289.033 451.05C280.981 451.05 274.453 457.584 274.453 465.644C274.453 473.705 280.981 480.239 289.033 480.239Z" fill="#E6E6E6"/>
<path d="M322.705 455.914C322.386 455.914 322.069 455.976 321.774 456.098C321.479 456.22 321.211 456.399 320.985 456.625C320.759 456.851 320.579 457.119 320.457 457.415C320.334 457.71 320.271 458.027 320.271 458.346C320.271 458.666 320.334 458.983 320.457 459.278C320.579 459.574 320.759 459.842 320.985 460.068C321.211 460.294 321.479 460.473 321.774 460.595C322.069 460.717 322.386 460.779 322.705 460.779H437.258C437.903 460.779 438.521 460.523 438.976 460.066C439.432 459.61 439.688 458.992 439.688 458.346C439.688 457.701 439.432 457.083 438.976 456.626C438.521 456.17 437.903 455.914 437.258 455.914H322.705Z" fill="#E6E6E6"/>
<path d="M322.705 470.509C322.061 470.509 321.443 470.765 320.987 471.221C320.531 471.677 320.275 472.296 320.275 472.941C320.275 473.586 320.531 474.205 320.987 474.661C321.443 475.117 322.061 475.374 322.705 475.374H371.998C372.642 475.374 373.26 475.117 373.716 474.661C374.172 474.205 374.428 473.586 374.428 472.941C374.428 472.296 374.172 471.677 373.716 471.221C373.26 470.765 372.642 470.509 371.998 470.509H322.705Z" fill="#E6E6E6"/>
<path d="M215.841 471.492L180.112 490.506L179.66 474.661C191.322 472.713 202.416 469.32 212.675 463.796L216.411 454.555C216.819 453.548 217.48 452.664 218.332 451.99C219.183 451.317 220.195 450.876 221.268 450.712C222.341 450.548 223.437 450.667 224.451 451.055C225.464 451.444 226.359 452.089 227.048 452.929C228.056 454.157 228.56 455.723 228.458 457.309C228.355 458.895 227.654 460.383 226.497 461.471L215.841 471.492Z" fill="#FFB8B8"/>
<path d="M128.544 581.273C128.283 580.317 128.228 579.315 128.382 578.335C128.535 577.356 128.894 576.419 129.435 575.588L137.284 563.531C139.14 560.679 141.989 558.619 145.276 557.751C148.564 556.883 152.057 557.268 155.077 558.832C151.779 564.452 152.238 569.383 156.216 573.668C150.041 576.685 144.334 580.58 139.271 585.231C138.347 585.862 137.286 586.263 136.176 586.399C135.066 586.536 133.939 586.406 132.889 586.019C131.84 585.631 130.898 584.999 130.142 584.173C129.386 583.348 128.838 582.354 128.544 581.273Z" fill="#2F2E41"/>
<path d="M217.468 565.508C216.281 567.489 214.604 569.132 212.6 570.278C210.596 571.424 208.33 572.035 206.022 572.053L153.882 572.448L151.621 559.319L174.686 552.529L155.239 537.589L176.495 512.689L215.102 548.71C217.359 550.815 218.825 553.632 219.256 556.69C219.686 559.747 219.055 562.86 217.468 565.508Z" fill="#2F2E41"/>
<path d="M145.742 655.296H133.532C122.568 580.068 111.408 504.63 144.386 476.473L183.28 482.811L178.305 515.859L156.597 540.759L145.742 655.296Z" fill="#2F2E41"/>
<path d="M156.475 672.337C155.519 672.598 154.519 672.654 153.54 672.5C152.561 672.346 151.626 671.987 150.796 671.445L137.537 669.661C134.688 667.803 132.63 664.952 131.763 661.661C130.895 658.37 131.28 654.874 132.842 651.85C138.457 655.152 143.382 654.691 147.662 650.709C150.686 656.822 155.669 656.449 160.428 661.599C161.058 662.524 161.458 663.586 161.595 664.698C161.732 665.809 161.602 666.937 161.215 667.987C160.828 669.038 160.196 669.981 159.372 670.738C158.547 671.494 157.554 672.043 156.475 672.337Z" fill="#2F2E41"/>
<path d="M174.687 426.221L152.074 420.788C155.83 413.093 156.139 404.53 154.335 395.436L169.712 394.983C170.194 406.292 171.652 416.858 174.687 426.221Z" fill="#FFB8B8"/>
<path d="M180.901 496.441C164.44 507.67 152.809 496.825 143.933 480.094C145.166 469.856 143.169 457.603 139.471 444.291C137.826 438.419 138.44 432.143 141.192 426.702C143.944 421.261 148.633 417.051 154.335 414.902L173.782 423.051C190.294 436.525 193.545 451.119 187.349 466.512L180.901 496.441Z" fill="#0070D2"/>
<path d="M133.531 437.539L115.441 447.046L147.551 466.06L152.019 477.092C152.317 477.829 152.463 478.618 152.446 479.412C152.43 480.207 152.252 480.99 151.923 481.713C151.594 482.436 151.122 483.085 150.535 483.619C149.948 484.154 149.258 484.563 148.508 484.822C147.655 485.117 146.745 485.209 145.85 485.093C144.956 484.977 144.1 484.655 143.35 484.153C142.6 483.65 141.977 482.981 141.529 482.197C141.081 481.413 140.82 480.536 140.767 479.634L140.315 471.946L99.5036 458.464C98.1286 458.01 96.8748 457.248 95.8373 456.237C94.7998 455.226 94.0057 453.992 93.5153 452.628C92.8004 450.64 92.764 448.471 93.4118 446.46C94.0596 444.449 95.3551 442.71 97.0956 441.515L129.913 418.978L133.531 437.539Z" fill="#FFB8B8"/>
<path d="M151.621 439.35C144.076 436.04 137.216 439.636 128.556 442.519L127.199 418.525C135.798 413.937 143.996 412.7 151.621 416.261L151.621 439.35Z" fill="#0070D2"/>
<path d="M160.646 406.868C168.62 406.868 175.084 400.398 175.084 392.416C175.084 384.434 168.62 377.964 160.646 377.964C152.673 377.964 146.209 384.434 146.209 392.416C146.209 400.398 152.673 406.868 160.646 406.868Z" fill="#FFB8B8"/>
<path d="M177.917 390.593C163.623 391.994 152.731 389.654 145.77 382.991V377.625H176.704L177.917 390.593Z" fill="#2F2E41"/>
</g>
<path d="M-15.2581 72.871C-15.2581 75.0088 -16.9912 76.7419 -19.129 76.7419C-21.2669 76.7419 -23 75.0088 -23 72.871C-23 70.7331 -21.2669 69 -19.129 69C-16.9912 69 -15.2581 70.7331 -15.2581 72.871Z" fill="#2ACCA0"/>
<path d="M2.80645 72.871C2.80645 75.0088 1.07336 76.7419 -1.06451 76.7419C-3.20239 76.7419 -4.93548 75.0088 -4.93548 72.871C-4.93548 70.7331 -3.20239 69 -1.06451 69C1.07336 69 2.80645 70.7331 2.80645 72.871Z" fill="#2ACCA0"/>
<path d="M20.871 72.871C20.871 75.0088 19.1379 76.7419 17 76.7419C14.8621 76.7419 13.129 75.0088 13.129 72.871C13.129 70.7331 14.8621 69 17 69C19.1379 69 20.871 70.7331 20.871 72.871Z" fill="#2ACCA0"/>
<path d="M38.9355 72.871C38.9355 75.0088 37.2024 76.7419 35.0645 76.7419C32.9266 76.7419 31.1936 75.0088 31.1936 72.871C31.1936 70.7331 32.9266 69 35.0645 69C37.2024 69 38.9355 70.7331 38.9355 72.871Z" fill="#2ACCA0"/>
<path d="M57 72.871C57 75.0088 55.2669 76.7419 53.129 76.7419C50.9912 76.7419 49.2581 75.0088 49.2581 72.871C49.2581 70.7331 50.9912 69 53.129 69C55.2669 69 57 70.7331 57 72.871Z" fill="#2ACCA0"/>
<path d="M75.0645 72.871C75.0645 75.0088 73.3314 76.7419 71.1936 76.7419C69.0557 76.7419 67.3226 75.0088 67.3226 72.871C67.3226 70.7331 69.0557 69 71.1936 69C73.3314 69 75.0645 70.7331 75.0645 72.871Z" fill="#2ACCA0"/>
<path d="M93.129 72.871C93.129 75.0088 91.396 76.7419 89.2581 76.7419C87.1202 76.7419 85.3871 75.0088 85.3871 72.871C85.3871 70.7331 87.1202 69 89.2581 69C91.396 69 93.129 70.7331 93.129 72.871Z" fill="#2ACCA0"/>
<path d="M-15.2581 90.9355C-15.2581 93.0734 -16.9912 94.8064 -19.129 94.8064C-21.2669 94.8064 -23 93.0734 -23 90.9355C-23 88.7976 -21.2669 87.0645 -19.129 87.0645C-16.9912 87.0645 -15.2581 88.7976 -15.2581 90.9355Z" fill="#2ACCA0"/>
<path d="M2.80645 90.9355C2.80645 93.0734 1.07336 94.8064 -1.06451 94.8064C-3.20239 94.8064 -4.93548 93.0734 -4.93548 90.9355C-4.93548 88.7976 -3.20239 87.0645 -1.06451 87.0645C1.07336 87.0645 2.80645 88.7976 2.80645 90.9355Z" fill="#2ACCA0"/>
<path d="M20.871 90.9355C20.871 93.0734 19.1379 94.8064 17 94.8064C14.8621 94.8064 13.129 93.0734 13.129 90.9355C13.129 88.7976 14.8621 87.0645 17 87.0645C19.1379 87.0645 20.871 88.7976 20.871 90.9355Z" fill="#2ACCA0"/>
<path d="M38.9355 90.9355C38.9355 93.0734 37.2024 94.8064 35.0645 94.8064C32.9266 94.8064 31.1936 93.0734 31.1936 90.9355C31.1936 88.7976 32.9266 87.0645 35.0645 87.0645C37.2024 87.0645 38.9355 88.7976 38.9355 90.9355Z" fill="#2ACCA0"/>
<path d="M57 90.9355C57 93.0734 55.2669 94.8064 53.129 94.8064C50.9912 94.8064 49.2581 93.0734 49.2581 90.9355C49.2581 88.7976 50.9912 87.0645 53.129 87.0645C55.2669 87.0645 57 88.7976 57 90.9355Z" fill="#2ACCA0"/>
<path d="M75.0645 90.9355C75.0645 93.0734 73.3314 94.8064 71.1936 94.8064C69.0557 94.8064 67.3226 93.0734 67.3226 90.9355C67.3226 88.7976 69.0557 87.0645 71.1936 87.0645C73.3314 87.0645 75.0645 88.7976 75.0645 90.9355Z" fill="#2ACCA0"/>
<path d="M93.129 90.9355C93.129 93.0734 91.396 94.8064 89.2581 94.8064C87.1202 94.8064 85.3871 93.0734 85.3871 90.9355C85.3871 88.7976 87.1202 87.0645 89.2581 87.0645C91.396 87.0645 93.129 88.7976 93.129 90.9355Z" fill="#2ACCA0"/>
<path d="M-15.2581 109C-15.2581 111.138 -16.9912 112.871 -19.129 112.871C-21.2669 112.871 -23 111.138 -23 109C-23 106.862 -21.2669 105.129 -19.129 105.129C-16.9912 105.129 -15.2581 106.862 -15.2581 109Z" fill="#2ACCA0"/>
<path d="M2.80645 109C2.80645 111.138 1.07336 112.871 -1.06451 112.871C-3.20239 112.871 -4.93548 111.138 -4.93548 109C-4.93548 106.862 -3.20239 105.129 -1.06451 105.129C1.07336 105.129 2.80645 106.862 2.80645 109Z" fill="#2ACCA0"/>
<path d="M20.871 109C20.871 111.138 19.1379 112.871 17 112.871C14.8621 112.871 13.129 111.138 13.129 109C13.129 106.862 14.8621 105.129 17 105.129C19.1379 105.129 20.871 106.862 20.871 109Z" fill="#2ACCA0"/>
<path d="M38.9355 109C38.9355 111.138 37.2024 112.871 35.0645 112.871C32.9266 112.871 31.1936 111.138 31.1936 109C31.1936 106.862 32.9266 105.129 35.0645 105.129C37.2024 105.129 38.9355 106.862 38.9355 109Z" fill="#2ACCA0"/>
<path d="M57 109C57 111.138 55.2669 112.871 53.129 112.871C50.9912 112.871 49.2581 111.138 49.2581 109C49.2581 106.862 50.9912 105.129 53.129 105.129C55.2669 105.129 57 106.862 57 109Z" fill="#2ACCA0"/>
<path d="M75.0645 109C75.0645 111.138 73.3314 112.871 71.1936 112.871C69.0557 112.871 67.3226 111.138 67.3226 109C67.3226 106.862 69.0557 105.129 71.1936 105.129C73.3314 105.129 75.0645 106.862 75.0645 109Z" fill="#2ACCA0"/>
<path d="M93.129 109C93.129 111.138 91.396 112.871 89.2581 112.871C87.1202 112.871 85.3871 111.138 85.3871 109C85.3871 106.862 87.1202 105.129 89.2581 105.129C91.396 105.129 93.129 106.862 93.129 109Z" fill="#2ACCA0"/>
<path d="M-15.2581 127.065C-15.2581 129.202 -16.9912 130.935 -19.129 130.935C-21.2669 130.935 -23 129.202 -23 127.065C-23 124.927 -21.2669 123.194 -19.129 123.194C-16.9912 123.194 -15.2581 124.927 -15.2581 127.065Z" fill="#2ACCA0"/>
<path d="M2.80645 127.065C2.80645 129.202 1.07336 130.935 -1.06451 130.935C-3.20239 130.935 -4.93548 129.202 -4.93548 127.065C-4.93548 124.927 -3.20239 123.194 -1.06451 123.194C1.07336 123.194 2.80645 124.927 2.80645 127.065Z" fill="#2ACCA0"/>
<path d="M20.871 127.065C20.871 129.202 19.1379 130.935 17 130.935C14.8621 130.935 13.129 129.202 13.129 127.065C13.129 124.927 14.8621 123.194 17 123.194C19.1379 123.194 20.871 124.927 20.871 127.065Z" fill="#2ACCA0"/>
<path d="M38.9355 127.065C38.9355 129.202 37.2024 130.935 35.0645 130.935C32.9266 130.935 31.1936 129.202 31.1936 127.065C31.1936 124.927 32.9266 123.194 35.0645 123.194C37.2024 123.194 38.9355 124.927 38.9355 127.065Z" fill="#2ACCA0"/>
<path d="M57 127.065C57 129.202 55.2669 130.935 53.129 130.935C50.9912 130.935 49.2581 129.202 49.2581 127.065C49.2581 124.927 50.9912 123.194 53.129 123.194C55.2669 123.194 57 124.927 57 127.065Z" fill="#2ACCA0"/>
<path d="M75.0645 127.065C75.0645 129.202 73.3314 130.935 71.1936 130.935C69.0557 130.935 67.3226 129.202 67.3226 127.065C67.3226 124.927 69.0557 123.194 71.1936 123.194C73.3314 123.194 75.0645 124.927 75.0645 127.065Z" fill="#2ACCA0"/>
<path d="M93.129 127.065C93.129 129.202 91.396 130.935 89.2581 130.935C87.1202 130.935 85.3871 129.202 85.3871 127.065C85.3871 124.927 87.1202 123.194 89.2581 123.194C91.396 123.194 93.129 124.927 93.129 127.065Z" fill="#2ACCA0"/>
<path d="M-15.2581 145.129C-15.2581 147.267 -16.9912 149 -19.129 149C-21.2669 149 -23 147.267 -23 145.129C-23 142.991 -21.2669 141.258 -19.129 141.258C-16.9912 141.258 -15.2581 142.991 -15.2581 145.129Z" fill="#2ACCA0"/>
<path d="M2.80645 145.129C2.80645 147.267 1.07336 149 -1.06451 149C-3.20239 149 -4.93548 147.267 -4.93548 145.129C-4.93548 142.991 -3.20239 141.258 -1.06451 141.258C1.07336 141.258 2.80645 142.991 2.80645 145.129Z" fill="#2ACCA0"/>
<path d="M20.871 145.129C20.871 147.267 19.1379 149 17 149C14.8621 149 13.129 147.267 13.129 145.129C13.129 142.991 14.8621 141.258 17 141.258C19.1379 141.258 20.871 142.991 20.871 145.129Z" fill="#2ACCA0"/>
<path d="M38.9355 145.129C38.9355 147.267 37.2024 149 35.0645 149C32.9266 149 31.1936 147.267 31.1936 145.129C31.1936 142.991 32.9266 141.258 35.0645 141.258C37.2024 141.258 38.9355 142.991 38.9355 145.129Z" fill="#2ACCA0"/>
<path d="M57 145.129C57 147.267 55.2669 149 53.129 149C50.9912 149 49.2581 147.267 49.2581 145.129C49.2581 142.991 50.9912 141.258 53.129 141.258C55.2669 141.258 57 142.991 57 145.129Z" fill="#2ACCA0"/>
<path d="M75.0645 145.129C75.0645 147.267 73.3314 149 71.1936 149C69.0557 149 67.3226 147.267 67.3226 145.129C67.3226 142.991 69.0557 141.258 71.1936 141.258C73.3314 141.258 75.0645 142.991 75.0645 145.129Z" fill="#2ACCA0"/>
<path d="M93.129 145.129C93.129 147.267 91.396 149 89.2581 149C87.1202 149 85.3871 147.267 85.3871 145.129C85.3871 142.991 87.1202 141.258 89.2581 141.258C91.396 141.258 93.129 142.991 93.129 145.129Z" fill="#2ACCA0"/>
<path d="M514.742 883.871C514.742 886.009 513.009 887.742 510.871 887.742C508.733 887.742 507 886.009 507 883.871C507 881.733 508.733 880 510.871 880C513.009 880 514.742 881.733 514.742 883.871Z" fill="#FFCE91"/>
<path d="M532.806 883.871C532.806 886.009 531.073 887.742 528.935 887.742C526.798 887.742 525.065 886.009 525.065 883.871C525.065 881.733 526.798 880 528.935 880C531.073 880 532.806 881.733 532.806 883.871Z" fill="#FFCE91"/>
<path d="M550.871 883.871C550.871 886.009 549.138 887.742 547 887.742C544.862 887.742 543.129 886.009 543.129 883.871C543.129 881.733 544.862 880 547 880C549.138 880 550.871 881.733 550.871 883.871Z" fill="#FFCE91"/>
<path d="M568.935 883.871C568.935 886.009 567.202 887.742 565.065 887.742C562.927 887.742 561.194 886.009 561.194 883.871C561.194 881.733 562.927 880 565.065 880C567.202 880 568.935 881.733 568.935 883.871Z" fill="#FFCE91"/>
<path d="M587 883.871C587 886.009 585.267 887.742 583.129 887.742C580.991 887.742 579.258 886.009 579.258 883.871C579.258 881.733 580.991 880 583.129 880C585.267 880 587 881.733 587 883.871Z" fill="#FFCE91"/>
<path d="M605.065 883.871C605.065 886.009 603.331 887.742 601.194 887.742C599.056 887.742 597.323 886.009 597.323 883.871C597.323 881.733 599.056 880 601.194 880C603.331 880 605.065 881.733 605.065 883.871Z" fill="#FFCE91"/>
<path d="M623.129 883.871C623.129 886.009 621.396 887.742 619.258 887.742C617.12 887.742 615.387 886.009 615.387 883.871C615.387 881.733 617.12 880 619.258 880C621.396 880 623.129 881.733 623.129 883.871Z" fill="#FFCE91"/>
<path d="M514.742 901.935C514.742 904.073 513.009 905.806 510.871 905.806C508.733 905.806 507 904.073 507 901.935C507 899.798 508.733 898.065 510.871 898.065C513.009 898.065 514.742 899.798 514.742 901.935Z" fill="#FFCE91"/>
<path d="M532.806 901.935C532.806 904.073 531.073 905.806 528.935 905.806C526.798 905.806 525.065 904.073 525.065 901.935C525.065 899.798 526.798 898.065 528.935 898.065C531.073 898.065 532.806 899.798 532.806 901.935Z" fill="#FFCE91"/>
<path d="M550.871 901.935C550.871 904.073 549.138 905.806 547 905.806C544.862 905.806 543.129 904.073 543.129 901.935C543.129 899.798 544.862 898.065 547 898.065C549.138 898.065 550.871 899.798 550.871 901.935Z" fill="#FFCE91"/>
<path d="M568.935 901.935C568.935 904.073 567.202 905.806 565.065 905.806C562.927 905.806 561.194 904.073 561.194 901.935C561.194 899.798 562.927 898.065 565.065 898.065C567.202 898.065 568.935 899.798 568.935 901.935Z" fill="#FFCE91"/>
<path d="M587 901.935C587 904.073 585.267 905.806 583.129 905.806C580.991 905.806 579.258 904.073 579.258 901.935C579.258 899.798 580.991 898.065 583.129 898.065C585.267 898.065 587 899.798 587 901.935Z" fill="#FFCE91"/>
<path d="M605.065 901.935C605.065 904.073 603.331 905.806 601.194 905.806C599.056 905.806 597.323 904.073 597.323 901.935C597.323 899.798 599.056 898.065 601.194 898.065C603.331 898.065 605.065 899.798 605.065 901.935Z" fill="#FFCE91"/>
<path d="M623.129 901.935C623.129 904.073 621.396 905.806 619.258 905.806C617.12 905.806 615.387 904.073 615.387 901.935C615.387 899.798 617.12 898.065 619.258 898.065C621.396 898.065 623.129 899.798 623.129 901.935Z" fill="#FFCE91"/>
<path d="M514.742 920C514.742 922.138 513.009 923.871 510.871 923.871C508.733 923.871 507 922.138 507 920C507 917.862 508.733 916.129 510.871 916.129C513.009 916.129 514.742 917.862 514.742 920Z" fill="#FFCE91"/>
<path d="M532.806 920C532.806 922.138 531.073 923.871 528.935 923.871C526.798 923.871 525.065 922.138 525.065 920C525.065 917.862 526.798 916.129 528.935 916.129C531.073 916.129 532.806 917.862 532.806 920Z" fill="#FFCE91"/>
<path d="M550.871 920C550.871 922.138 549.138 923.871 547 923.871C544.862 923.871 543.129 922.138 543.129 920C543.129 917.862 544.862 916.129 547 916.129C549.138 916.129 550.871 917.862 550.871 920Z" fill="#FFCE91"/>
<path d="M568.935 920C568.935 922.138 567.202 923.871 565.065 923.871C562.927 923.871 561.194 922.138 561.194 920C561.194 917.862 562.927 916.129 565.065 916.129C567.202 916.129 568.935 917.862 568.935 920Z" fill="#FFCE91"/>
<path d="M587 920C587 922.138 585.267 923.871 583.129 923.871C580.991 923.871 579.258 922.138 579.258 920C579.258 917.862 580.991 916.129 583.129 916.129C585.267 916.129 587 917.862 587 920Z" fill="#FFCE91"/>
<path d="M605.065 920C605.065 922.138 603.331 923.871 601.194 923.871C599.056 923.871 597.323 922.138 597.323 920C597.323 917.862 599.056 916.129 601.194 916.129C603.331 916.129 605.065 917.862 605.065 920Z" fill="#FFCE91"/>
<path d="M623.129 920C623.129 922.138 621.396 923.871 619.258 923.871C617.12 923.871 615.387 922.138 615.387 920C615.387 917.862 617.12 916.129 619.258 916.129C621.396 916.129 623.129 917.862 623.129 920Z" fill="#FFCE91"/>
<path d="M514.742 938.065C514.742 940.202 513.009 941.935 510.871 941.935C508.733 941.935 507 940.202 507 938.065C507 935.927 508.733 934.194 510.871 934.194C513.009 934.194 514.742 935.927 514.742 938.065Z" fill="#FFCE91"/>
<path d="M532.806 938.065C532.806 940.202 531.073 941.935 528.935 941.935C526.798 941.935 525.065 940.202 525.065 938.065C525.065 935.927 526.798 934.194 528.935 934.194C531.073 934.194 532.806 935.927 532.806 938.065Z" fill="#FFCE91"/>
<path d="M550.871 938.065C550.871 940.202 549.138 941.935 547 941.935C544.862 941.935 543.129 940.202 543.129 938.065C543.129 935.927 544.862 934.194 547 934.194C549.138 934.194 550.871 935.927 550.871 938.065Z" fill="#FFCE91"/>
<path d="M568.935 938.065C568.935 940.202 567.202 941.935 565.065 941.935C562.927 941.935 561.194 940.202 561.194 938.065C561.194 935.927 562.927 934.194 565.065 934.194C567.202 934.194 568.935 935.927 568.935 938.065Z" fill="#FFCE91"/>
<path d="M587 938.065C587 940.202 585.267 941.935 583.129 941.935C580.991 941.935 579.258 940.202 579.258 938.065C579.258 935.927 580.991 934.194 583.129 934.194C585.267 934.194 587 935.927 587 938.065Z" fill="#FFCE91"/>
<path d="M605.065 938.065C605.065 940.202 603.331 941.935 601.194 941.935C599.056 941.935 597.323 940.202 597.323 938.065C597.323 935.927 599.056 934.194 601.194 934.194C603.331 934.194 605.065 935.927 605.065 938.065Z" fill="#FFCE91"/>
<path d="M623.129 938.065C623.129 940.202 621.396 941.935 619.258 941.935C617.12 941.935 615.387 940.202 615.387 938.065C615.387 935.927 617.12 934.194 619.258 934.194C621.396 934.194 623.129 935.927 623.129 938.065Z" fill="#FFCE91"/>
<path d="M514.742 956.129C514.742 958.267 513.009 960 510.871 960C508.733 960 507 958.267 507 956.129C507 953.991 508.733 952.258 510.871 952.258C513.009 952.258 514.742 953.991 514.742 956.129Z" fill="#FFCE91"/>
<path d="M532.806 956.129C532.806 958.267 531.073 960 528.935 960C526.798 960 525.065 958.267 525.065 956.129C525.065 953.991 526.798 952.258 528.935 952.258C531.073 952.258 532.806 953.991 532.806 956.129Z" fill="#FFCE91"/>
<path d="M550.871 956.129C550.871 958.267 549.138 960 547 960C544.862 960 543.129 958.267 543.129 956.129C543.129 953.991 544.862 952.258 547 952.258C549.138 952.258 550.871 953.991 550.871 956.129Z" fill="#FFCE91"/>
<path d="M568.935 956.129C568.935 958.267 567.202 960 565.065 960C562.927 960 561.194 958.267 561.194 956.129C561.194 953.991 562.927 952.258 565.065 952.258C567.202 952.258 568.935 953.991 568.935 956.129Z" fill="#FFCE91"/>
<path d="M587 956.129C587 958.267 585.267 960 583.129 960C580.991 960 579.258 958.267 579.258 956.129C579.258 953.991 580.991 952.258 583.129 952.258C585.267 952.258 587 953.991 587 956.129Z" fill="#FFCE91"/>
<path d="M605.065 956.129C605.065 958.267 603.331 960 601.194 960C599.056 960 597.323 958.267 597.323 956.129C597.323 953.991 599.056 952.258 601.194 952.258C603.331 952.258 605.065 953.991 605.065 956.129Z" fill="#FFCE91"/>
<path d="M623.129 956.129C623.129 958.267 621.396 960 619.258 960C617.12 960 615.387 958.267 615.387 956.129C615.387 953.991 617.12 952.258 619.258 952.258C621.396 952.258 623.129 953.991 623.129 956.129Z" fill="#FFCE91"/>
</g>
<defs>
<clipPath id="clip0_1976_33055">
<rect width="593" height="1024" fill="white"/>
</clipPath>
<clipPath id="clip1_1976_33055">
<rect width="481" height="335" fill="white" transform="translate(56 345)"/>
</clipPath>
</defs>
</svg>
