<svg width="81" height="80" viewBox="0 0 81 80" fill="none" xmlns="http://www.w3.org/2000/svg">
<path d="M7.74194 3.87097C7.74194 6.00884 6.00884 7.74194 3.87097 7.74194C1.73309 7.74194 0 6.00884 0 3.87097C0 1.73309 1.73309 0 3.87097 0C6.00884 0 7.74194 1.73309 7.74194 3.87097Z" fill="#FEBDBD"/>
<path d="M25.8065 3.87097C25.8065 6.00884 24.0734 7.74194 21.9355 7.74194C19.7976 7.74194 18.0645 6.00884 18.0645 3.87097C18.0645 1.73309 19.7976 0 21.9355 0C24.0734 0 25.8065 1.73309 25.8065 3.87097Z" fill="#FEBDBD"/>
<path d="M43.871 3.87097C43.871 6.00884 42.1379 7.74194 40 7.74194C37.8621 7.74194 36.129 6.00884 36.129 3.87097C36.129 1.73309 37.8621 0 40 0C42.1379 0 43.871 1.73309 43.871 3.87097Z" fill="#FEBDBD"/>
<path d="M61.9355 3.87097C61.9355 6.00884 60.2024 7.74194 58.0645 7.74194C55.9266 7.74194 54.1936 6.00884 54.1936 3.87097C54.1936 1.73309 55.9266 0 58.0645 0C60.2024 0 61.9355 1.73309 61.9355 3.87097Z" fill="#FEBDBD"/>
<path d="M80 3.87097C80 6.00884 78.2669 7.74194 76.129 7.74194C73.9912 7.74194 72.2581 6.00884 72.2581 3.87097C72.2581 1.73309 73.9912 0 76.129 0C78.2669 0 80 1.73309 80 3.87097Z" fill="#FEBDBD"/>
<path d="M98.0645 3.87097C98.0645 6.00884 96.3314 7.74194 94.1936 7.74194C92.0557 7.74194 90.3226 6.00884 90.3226 3.87097C90.3226 1.73309 92.0557 0 94.1936 0C96.3314 0 98.0645 1.73309 98.0645 3.87097Z" fill="#FEBDBD"/>
<path d="M116.129 3.87097C116.129 6.00884 114.396 7.74194 112.258 7.74194C110.12 7.74194 108.387 6.00884 108.387 3.87097C108.387 1.73309 110.12 0 112.258 0C114.396 0 116.129 1.73309 116.129 3.87097Z" fill="#FEBDBD"/>
<path d="M7.74194 21.9355C7.74194 24.0734 6.00884 25.8064 3.87097 25.8064C1.73309 25.8064 0 24.0734 0 21.9355C0 19.7976 1.73309 18.0645 3.87097 18.0645C6.00884 18.0645 7.74194 19.7976 7.74194 21.9355Z" fill="#FEBDBD"/>
<path d="M25.8065 21.9355C25.8065 24.0734 24.0734 25.8064 21.9355 25.8064C19.7976 25.8064 18.0645 24.0734 18.0645 21.9355C18.0645 19.7976 19.7976 18.0645 21.9355 18.0645C24.0734 18.0645 25.8065 19.7976 25.8065 21.9355Z" fill="#FEBDBD"/>
<path d="M43.871 21.9355C43.871 24.0734 42.1379 25.8064 40 25.8064C37.8621 25.8064 36.129 24.0734 36.129 21.9355C36.129 19.7976 37.8621 18.0645 40 18.0645C42.1379 18.0645 43.871 19.7976 43.871 21.9355Z" fill="#FEBDBD"/>
<path d="M61.9355 21.9355C61.9355 24.0734 60.2024 25.8064 58.0645 25.8064C55.9266 25.8064 54.1936 24.0734 54.1936 21.9355C54.1936 19.7976 55.9266 18.0645 58.0645 18.0645C60.2024 18.0645 61.9355 19.7976 61.9355 21.9355Z" fill="#FEBDBD"/>
<path d="M80 21.9355C80 24.0734 78.2669 25.8064 76.129 25.8064C73.9912 25.8064 72.2581 24.0734 72.2581 21.9355C72.2581 19.7976 73.9912 18.0645 76.129 18.0645C78.2669 18.0645 80 19.7976 80 21.9355Z" fill="#FEBDBD"/>
<path d="M98.0645 21.9355C98.0645 24.0734 96.3314 25.8064 94.1936 25.8064C92.0557 25.8064 90.3226 24.0734 90.3226 21.9355C90.3226 19.7976 92.0557 18.0645 94.1936 18.0645C96.3314 18.0645 98.0645 19.7976 98.0645 21.9355Z" fill="#FEBDBD"/>
<path d="M116.129 21.9355C116.129 24.0734 114.396 25.8064 112.258 25.8064C110.12 25.8064 108.387 24.0734 108.387 21.9355C108.387 19.7976 110.12 18.0645 112.258 18.0645C114.396 18.0645 116.129 19.7976 116.129 21.9355Z" fill="#FEBDBD"/>
<path d="M7.74194 40C7.74194 42.1379 6.00884 43.871 3.87097 43.871C1.73309 43.871 0 42.1379 0 40C0 37.8621 1.73309 36.129 3.87097 36.129C6.00884 36.129 7.74194 37.8621 7.74194 40Z" fill="#FEBDBD"/>
<path d="M25.8065 40C25.8065 42.1379 24.0734 43.871 21.9355 43.871C19.7976 43.871 18.0645 42.1379 18.0645 40C18.0645 37.8621 19.7976 36.129 21.9355 36.129C24.0734 36.129 25.8065 37.8621 25.8065 40Z" fill="#FEBDBD"/>
<path d="M43.871 40C43.871 42.1379 42.1379 43.871 40 43.871C37.8621 43.871 36.129 42.1379 36.129 40C36.129 37.8621 37.8621 36.129 40 36.129C42.1379 36.129 43.871 37.8621 43.871 40Z" fill="#FEBDBD"/>
<path d="M61.9355 40C61.9355 42.1379 60.2024 43.871 58.0645 43.871C55.9266 43.871 54.1936 42.1379 54.1936 40C54.1936 37.8621 55.9266 36.129 58.0645 36.129C60.2024 36.129 61.9355 37.8621 61.9355 40Z" fill="#FEBDBD"/>
<path d="M80 40C80 42.1379 78.2669 43.871 76.129 43.871C73.9912 43.871 72.2581 42.1379 72.2581 40C72.2581 37.8621 73.9912 36.129 76.129 36.129C78.2669 36.129 80 37.8621 80 40Z" fill="#FEBDBD"/>
<path d="M98.0645 40C98.0645 42.1379 96.3314 43.871 94.1936 43.871C92.0557 43.871 90.3226 42.1379 90.3226 40C90.3226 37.8621 92.0557 36.129 94.1936 36.129C96.3314 36.129 98.0645 37.8621 98.0645 40Z" fill="#FEBDBD"/>
<path d="M116.129 40C116.129 42.1379 114.396 43.871 112.258 43.871C110.12 43.871 108.387 42.1379 108.387 40C108.387 37.8621 110.12 36.129 112.258 36.129C114.396 36.129 116.129 37.8621 116.129 40Z" fill="#FEBDBD"/>
<path d="M7.74194 58.0645C7.74194 60.2024 6.00884 61.9355 3.87097 61.9355C1.73309 61.9355 0 60.2024 0 58.0645C0 55.9266 1.73309 54.1935 3.87097 54.1935C6.00884 54.1935 7.74194 55.9266 7.74194 58.0645Z" fill="#FEBDBD"/>
<path d="M25.8065 58.0645C25.8065 60.2024 24.0734 61.9355 21.9355 61.9355C19.7976 61.9355 18.0645 60.2024 18.0645 58.0645C18.0645 55.9266 19.7976 54.1935 21.9355 54.1935C24.0734 54.1935 25.8065 55.9266 25.8065 58.0645Z" fill="#FEBDBD"/>
<path d="M43.871 58.0645C43.871 60.2024 42.1379 61.9355 40 61.9355C37.8621 61.9355 36.129 60.2024 36.129 58.0645C36.129 55.9266 37.8621 54.1935 40 54.1935C42.1379 54.1935 43.871 55.9266 43.871 58.0645Z" fill="#FEBDBD"/>
<path d="M61.9355 58.0645C61.9355 60.2024 60.2024 61.9355 58.0645 61.9355C55.9266 61.9355 54.1936 60.2024 54.1936 58.0645C54.1936 55.9266 55.9266 54.1935 58.0645 54.1935C60.2024 54.1935 61.9355 55.9266 61.9355 58.0645Z" fill="#FEBDBD"/>
<path d="M80 58.0645C80 60.2024 78.2669 61.9355 76.129 61.9355C73.9912 61.9355 72.2581 60.2024 72.2581 58.0645C72.2581 55.9266 73.9912 54.1935 76.129 54.1935C78.2669 54.1935 80 55.9266 80 58.0645Z" fill="#FEBDBD"/>
<path d="M98.0645 58.0645C98.0645 60.2024 96.3314 61.9355 94.1936 61.9355C92.0557 61.9355 90.3226 60.2024 90.3226 58.0645C90.3226 55.9266 92.0557 54.1935 94.1936 54.1935C96.3314 54.1935 98.0645 55.9266 98.0645 58.0645Z" fill="#FEBDBD"/>
<path d="M116.129 58.0645C116.129 60.2024 114.396 61.9355 112.258 61.9355C110.12 61.9355 108.387 60.2024 108.387 58.0645C108.387 55.9266 110.12 54.1935 112.258 54.1935C114.396 54.1935 116.129 55.9266 116.129 58.0645Z" fill="#FEBDBD"/>
<path d="M7.74194 76.129C7.74194 78.2669 6.00884 80 3.87097 80C1.73309 80 0 78.2669 0 76.129C0 73.9911 1.73309 72.2581 3.87097 72.2581C6.00884 72.2581 7.74194 73.9911 7.74194 76.129Z" fill="#FEBDBD"/>
<path d="M25.8065 76.129C25.8065 78.2669 24.0734 80 21.9355 80C19.7976 80 18.0645 78.2669 18.0645 76.129C18.0645 73.9911 19.7976 72.2581 21.9355 72.2581C24.0734 72.2581 25.8065 73.9911 25.8065 76.129Z" fill="#FEBDBD"/>
<path d="M43.871 76.129C43.871 78.2669 42.1379 80 40 80C37.8621 80 36.129 78.2669 36.129 76.129C36.129 73.9911 37.8621 72.2581 40 72.2581C42.1379 72.2581 43.871 73.9911 43.871 76.129Z" fill="#FEBDBD"/>
<path d="M61.9355 76.129C61.9355 78.2669 60.2024 80 58.0645 80C55.9266 80 54.1936 78.2669 54.1936 76.129C54.1936 73.9911 55.9266 72.2581 58.0645 72.2581C60.2024 72.2581 61.9355 73.9911 61.9355 76.129Z" fill="#FEBDBD"/>
<path d="M80 76.129C80 78.2669 78.2669 80 76.129 80C73.9912 80 72.2581 78.2669 72.2581 76.129C72.2581 73.9911 73.9912 72.2581 76.129 72.2581C78.2669 72.2581 80 73.9911 80 76.129Z" fill="#FEBDBD"/>
<path d="M98.0645 76.129C98.0645 78.2669 96.3314 80 94.1936 80C92.0557 80 90.3226 78.2669 90.3226 76.129C90.3226 73.9911 92.0557 72.2581 94.1936 72.2581C96.3314 72.2581 98.0645 73.9911 98.0645 76.129Z" fill="#FEBDBD"/>
<path d="M116.129 76.129C116.129 78.2669 114.396 80 112.258 80C110.12 80 108.387 78.2669 108.387 76.129C108.387 73.9911 110.12 72.2581 112.258 72.2581C114.396 72.2581 116.129 73.9911 116.129 76.129Z" fill="#FEBDBD"/>
</svg>
