<svg width="104" height="30" viewBox="0 0 104 30" fill="none" xmlns="http://www.w3.org/2000/svg">
<path d="M39.5342 4.46143C40.4651 4.46143 41.2197 3.70678 41.2197 2.77588C41.2197 1.84498 40.4651 1.09033 39.5342 1.09033C38.6033 1.09033 37.8486 1.84498 37.8486 2.77588C37.8486 3.70678 38.6033 4.46143 39.5342 4.46143Z" fill="white"/>
<path d="M43.3262 4.46143C44.2571 4.46143 45.0117 3.70678 45.0117 2.77588C45.0117 1.84498 44.2571 1.09033 43.3262 1.09033C42.3953 1.09033 41.6406 1.84498 41.6406 2.77588C41.6406 3.70678 42.3953 4.46143 43.3262 4.46143Z" fill="white"/>
<path d="M47.1172 4.46143C48.0481 4.46143 48.8027 3.70678 48.8027 2.77588C48.8027 1.84498 48.0481 1.09033 47.1172 1.09033C46.1863 1.09033 45.4316 1.84498 45.4316 2.77588C45.4316 3.70678 46.1863 4.46143 47.1172 4.46143Z" fill="white"/>
<path d="M50.875 4.46143C51.8059 4.46143 52.5606 3.70678 52.5606 2.77588C52.5606 1.84498 51.8059 1.09033 50.875 1.09033C49.9441 1.09033 49.1895 1.84498 49.1895 2.77588C49.1895 3.70678 49.9441 4.46143 50.875 4.46143Z" fill="white"/>
<path d="M54.666 4.46143C55.5969 4.46143 56.3516 3.70678 56.3516 2.77588C56.3516 1.84498 55.5969 1.09033 54.666 1.09033C53.7351 1.09033 52.9805 1.84498 52.9805 2.77588C52.9805 3.70678 53.7351 4.46143 54.666 4.46143Z" fill="white"/>
<path d="M58.458 4.46143C59.3889 4.46143 60.1436 3.70678 60.1436 2.77588C60.1436 1.84498 59.3889 1.09033 58.458 1.09033C57.5271 1.09033 56.7725 1.84498 56.7725 2.77588C56.7725 3.70678 57.5271 4.46143 58.458 4.46143Z" fill="white"/>
<path d="M62.3545 4.63282C63.2854 4.63282 64.04 3.87817 64.04 2.94727C64.04 2.01636 63.2854 1.26172 62.3545 1.26172C61.4236 1.26172 60.6689 2.01636 60.6689 2.94727C60.6689 3.87817 61.4236 4.63282 62.3545 4.63282Z" fill="white"/>
<path d="M65.7256 6.4502C66.6565 6.4502 67.4111 5.69555 67.4111 4.76465C67.4111 3.83375 66.6565 3.0791 65.7256 3.0791C64.7947 3.0791 64.04 3.83375 64.04 4.76465C64.04 5.69555 64.7947 6.4502 65.7256 6.4502Z" fill="white"/>
<path d="M67.6094 9.82129C68.5403 9.82129 69.2949 9.06665 69.2949 8.13574C69.2949 7.20484 68.5403 6.4502 67.6094 6.4502C66.6785 6.4502 65.9238 7.20484 65.9238 8.13574C65.9238 9.06665 66.6785 9.82129 67.6094 9.82129Z" fill="white"/>
<path d="M67.5098 13.6738C68.4407 13.6738 69.1953 12.9192 69.1953 11.9883C69.1953 11.0574 68.4407 10.3027 67.5098 10.3027C66.5789 10.3027 65.8242 11.0574 65.8242 11.9883C65.8242 12.9192 66.5789 13.6738 67.5098 13.6738Z" fill="white"/>
<path d="M65.8242 17.0449C66.7551 17.0449 67.5098 16.2903 67.5098 15.3594C67.5098 14.4285 66.7551 13.6738 65.8242 13.6738C64.8933 13.6738 64.1387 14.4285 64.1387 15.3594C64.1387 16.2903 64.8933 17.0449 65.8242 17.0449Z" fill="white"/>
<path d="M62.4531 18.9683C63.384 18.9683 64.1387 18.2136 64.1387 17.2827C64.1387 16.3518 63.384 15.5972 62.4531 15.5972C61.5222 15.5972 60.7676 16.3518 60.7676 17.2827C60.7676 18.2136 61.5222 18.9683 62.4531 18.9683Z" fill="white"/>
<path d="M58.458 19.4297C59.3889 19.4297 60.1436 18.675 60.1436 17.7441C60.1436 16.8132 59.3889 16.0586 58.458 16.0586C57.5271 16.0586 56.7725 16.8132 56.7725 17.7441C56.7725 18.675 57.5271 19.4297 58.458 19.4297Z" fill="white"/>
<path d="M54.666 19.4297C55.5969 19.4297 56.3516 18.675 56.3516 17.7441C56.3516 16.8132 55.5969 16.0586 54.666 16.0586C53.7351 16.0586 52.9805 16.8132 52.9805 17.7441C52.9805 18.675 53.7351 19.4297 54.666 19.4297Z" fill="white"/>
<path d="M50.875 19.4297C51.8059 19.4297 52.5606 18.675 52.5606 17.7441C52.5606 16.8132 51.8059 16.0586 50.875 16.0586C49.9441 16.0586 49.1895 16.8132 49.1895 17.7441C49.1895 18.675 49.9441 19.4297 50.875 19.4297Z" fill="white"/>
<path d="M47.1172 19.4297C48.0481 19.4297 48.8027 18.675 48.8027 17.7441C48.8027 16.8132 48.0481 16.0586 47.1172 16.0586C46.1863 16.0586 45.4316 16.8132 45.4316 17.7441C45.4316 18.675 46.1863 19.4297 47.1172 19.4297Z" fill="white"/>
<path d="M43.3262 19.4297C44.2571 19.4297 45.0117 18.675 45.0117 17.7441C45.0117 16.8132 44.2571 16.0586 43.3262 16.0586C42.3953 16.0586 41.6406 16.8132 41.6406 17.7441C41.6406 18.675 42.3953 19.4297 43.3262 19.4297Z" fill="white"/>
<path d="M39.5342 19.4297C40.4651 19.4297 41.2197 18.675 41.2197 17.7441C41.2197 16.8132 40.4651 16.0586 39.5342 16.0586C38.6033 16.0586 37.8486 16.8132 37.8486 17.7441C37.8486 18.675 38.6033 19.4297 39.5342 19.4297Z" fill="white"/>
<path d="M39.5342 15.6372C40.4651 15.6372 41.2197 14.8826 41.2197 13.9517C41.2197 13.0208 40.4651 12.2661 39.5342 12.2661C38.6033 12.2661 37.8486 13.0208 37.8486 13.9517C37.8486 14.8826 38.6033 15.6372 39.5342 15.6372Z" fill="white"/>
<path d="M39.5342 11.8467C40.4651 11.8467 41.2197 11.092 41.2197 10.1611C41.2197 9.23023 40.4651 8.47559 39.5342 8.47559C38.6033 8.47559 37.8486 9.23023 37.8486 10.1611C37.8486 11.092 38.6033 11.8467 39.5342 11.8467Z" fill="white"/>
<path d="M43.3262 11.8467C44.2571 11.8467 45.0117 11.092 45.0117 10.1611C45.0117 9.23023 44.2571 8.47559 43.3262 8.47559C42.3953 8.47559 41.6406 9.23023 41.6406 10.1611C41.6406 11.092 42.3953 11.8467 43.3262 11.8467Z" fill="white"/>
<path d="M47.1172 11.8467C48.0481 11.8467 48.8027 11.092 48.8027 10.1611C48.8027 9.23023 48.0481 8.47559 47.1172 8.47559C46.1863 8.47559 45.4316 9.23023 45.4316 10.1611C45.4316 11.092 46.1863 11.8467 47.1172 11.8467Z" fill="white"/>
<path d="M50.875 11.8467C51.8059 11.8467 52.5606 11.092 52.5606 10.1611C52.5606 9.23023 51.8059 8.47559 50.875 8.47559C49.9441 8.47559 49.1895 9.23023 49.1895 10.1611C49.1895 11.092 49.9441 11.8467 50.875 11.8467Z" fill="white"/>
<path d="M1.95664 5.38595C2.77146 3.95802 3.88384 2.84564 5.29379 2.0488C6.70374 1.25196 8.28543 0.852539 10.0369 0.852539C12.0859 0.852539 13.8813 1.37777 15.4231 2.42825C16.9648 3.47872 18.0412 4.93261 18.6544 6.7899H14.4245C14.0031 5.91318 13.412 5.25813 12.6511 4.81877C11.8882 4.3834 11.0095 4.16372 10.0109 4.16372C8.94248 4.16372 7.99186 4.41336 7.16107 4.91263C6.32828 5.41191 5.68122 6.11688 5.2159 7.02756C4.75257 7.93823 4.51891 9.00668 4.51891 10.2329C4.51891 11.4411 4.75058 12.5056 5.2159 13.4243C5.67923 14.3429 6.32828 15.0539 7.16107 15.5532C7.99186 16.0524 8.94248 16.3021 10.0109 16.3021C11.0095 16.3021 11.8902 16.0784 12.6511 15.633C13.414 15.1857 14.0051 14.5247 14.4245 13.6499H18.6544C18.0412 15.5252 16.9688 16.9831 15.435 18.0236C13.9013 19.066 12.1019 19.5873 10.0349 19.5873C8.28344 19.5873 6.70174 19.1899 5.29179 18.391C3.88184 17.5942 2.76946 16.4858 1.95464 15.0679C1.13983 13.6499 0.732422 12.0383 0.732422 10.2329C0.736416 8.42952 1.14183 6.81387 1.95664 5.38595Z" fill="white"/>
<path d="M31.2659 19.4297L27.2197 12.284H25.4863V19.4297H21.8076V1.09033H28.6916C30.1095 1.09033 31.3198 1.33997 32.3163 1.83924C33.3149 2.33852 34.0638 3.01353 34.5631 3.8623C35.0623 4.71107 35.312 5.66168 35.312 6.71216C35.312 7.9204 34.9605 9.01081 34.2615 9.9834C33.5605 10.956 32.518 11.625 31.1341 11.9925L35.5217 19.4277H31.2659V19.4297ZM25.4843 9.52407H28.5578C29.5563 9.52407 30.3013 9.28441 30.7906 8.80112C31.2798 8.31982 31.5255 7.64879 31.5255 6.79204C31.5255 5.95126 31.2798 5.29821 30.7906 4.83489C30.2993 4.37156 29.5563 4.1379 28.5578 4.1379H25.4843V9.52407Z" fill="white"/>
<path d="M75.1142 1.09033V19.4297H71.4355V1.09033H75.1142Z" fill="white"/>
<path d="M82.4179 16.5119H88.4611V19.4277H78.7393V1.09033H82.4179V16.5119Z" fill="white"/>
<path d="M103.805 1.09033L97.6038 13.0449V19.4297H93.9252V13.0449L87.6982 1.09033H91.8502L95.7905 9.47214L99.7048 1.09033H103.805Z" fill="white"/>
<path d="M17.6143 26.3096C17.8081 26.5412 17.9039 26.8088 17.9039 27.1164C17.9039 27.366 17.842 27.5917 17.7162 27.7914C17.5904 27.9911 17.4086 28.1489 17.169 28.2647C16.9273 28.3805 16.6398 28.4385 16.3062 28.4385H14.5947V23.4937H16.2583C16.7576 23.4937 17.139 23.6095 17.4006 23.8411C17.6623 24.0728 17.7941 24.3724 17.7941 24.7398C17.7941 25.0474 17.7102 25.295 17.5464 25.4868C17.3807 25.6785 17.169 25.8103 16.9094 25.8862C17.185 25.9381 17.4206 26.0779 17.6143 26.3096ZM15.09 25.6805H16.2443C16.5798 25.6805 16.8375 25.6026 17.0192 25.4428C17.2009 25.285 17.2928 25.0674 17.2928 24.7878C17.2928 24.5142 17.2009 24.3005 17.0192 24.1447C16.8375 23.9889 16.5719 23.911 16.2224 23.911H15.09V25.6805ZM17.1091 27.7674C17.3088 27.5977 17.4086 27.364 17.4086 27.0665C17.4086 26.7689 17.3048 26.5332 17.0951 26.3555C16.8854 26.1797 16.6038 26.0899 16.2503 26.0899H15.09V28.0211H16.2723C16.6298 28.0211 16.9074 27.9372 17.1091 27.7674Z" fill="white"/>
<path d="M22.4029 26.6988H19.1976C19.2115 26.9904 19.2814 27.242 19.4093 27.4477C19.5371 27.6554 19.7048 27.8112 19.9125 27.919C20.1202 28.0249 20.3459 28.0788 20.5915 28.0788C20.9131 28.0788 21.1827 28.0009 21.4024 27.8451C21.622 27.6894 21.7658 27.4797 21.8377 27.2161H22.361C22.2671 27.5935 22.0654 27.9011 21.7558 28.1387C21.4463 28.3764 21.0589 28.4962 20.5915 28.4962C20.2281 28.4962 19.9025 28.4143 19.615 28.2525C19.3274 28.0908 19.1017 27.8591 18.9399 27.5596C18.7782 27.26 18.6963 26.9105 18.6963 26.5091C18.6963 26.1077 18.7762 25.7562 18.9359 25.4546C19.0957 25.1531 19.3194 24.9214 19.609 24.7616C19.8965 24.6019 20.2241 24.522 20.5915 24.522C20.959 24.522 21.2805 24.6019 21.5581 24.7616C21.8337 24.9214 22.0454 25.1371 22.1952 25.4087C22.343 25.6803 22.4189 25.9799 22.4189 26.3114C22.4169 26.4791 22.4129 26.6089 22.4029 26.6988ZM21.7419 25.5605C21.622 25.3568 21.4583 25.205 21.2506 25.1011C21.0429 24.9973 20.8172 24.9454 20.5716 24.9454C20.2041 24.9454 19.8906 25.0632 19.6309 25.2988C19.3713 25.5345 19.2275 25.868 19.1996 26.2954H21.9156C21.9196 26.0078 21.8617 25.7622 21.7419 25.5605Z" fill="white"/>
<path d="M24.0728 24.9934V27.3919C24.0728 27.6276 24.1187 27.7913 24.2066 27.8792C24.2964 27.9691 24.4542 28.013 24.6799 28.013H25.1332V28.4384H24.602C24.2525 28.4384 23.9929 28.3565 23.8231 28.1947C23.6534 28.033 23.5675 27.7654 23.5675 27.3919V24.9934H23.0303V24.576H23.5675V23.6074H24.0708V24.576H25.1312V24.9934H24.0728Z" fill="white"/>
<path d="M26.6968 24.9934V27.3919C26.6968 27.6276 26.7427 27.7913 26.8306 27.8792C26.9205 27.9691 27.0782 28.013 27.3039 28.013H27.7572V28.4384H27.226C26.8765 28.4384 26.6169 28.3565 26.4471 28.1947C26.2774 28.033 26.1915 27.7654 26.1915 27.3919V24.9934H25.6543V24.576H26.1915V23.6074H26.6948V24.576H27.7552V24.9934H26.6968Z" fill="white"/>
<path d="M32.1588 26.6988H28.9534C28.9674 26.9904 29.0373 27.242 29.1651 27.4477C29.2929 27.6554 29.4607 27.8112 29.6684 27.919C29.8761 28.0249 30.1017 28.0788 30.3474 28.0788C30.6689 28.0788 30.9385 28.0009 31.1582 27.8451C31.3779 27.6894 31.5217 27.4797 31.5936 27.2161H32.1168C32.023 27.5935 31.8212 27.9011 31.5117 28.1387C31.2021 28.3764 30.8147 28.4962 30.3474 28.4962C29.9839 28.4962 29.6584 28.4143 29.3708 28.2525C29.0832 28.0908 28.8576 27.8591 28.6958 27.5596C28.534 27.26 28.4521 26.9105 28.4521 26.5091C28.4521 26.1077 28.532 25.7562 28.6918 25.4546C28.8516 25.1531 29.0752 24.9214 29.3648 24.7616C29.6524 24.6019 29.9799 24.522 30.3474 24.522C30.7149 24.522 31.0364 24.6019 31.314 24.7616C31.5896 24.9214 31.8013 25.1371 31.9511 25.4087C32.0988 25.6803 32.1747 25.9799 32.1747 26.3114C32.1727 26.4791 32.1687 26.6089 32.1588 26.6988ZM31.4977 25.5605C31.3779 25.3568 31.2141 25.205 31.0064 25.1011C30.7987 24.9973 30.5731 24.9454 30.3274 24.9454C29.96 24.9454 29.6464 25.0632 29.3868 25.2988C29.1272 25.5345 28.9834 25.868 28.9554 26.2954H31.6715C31.6755 26.0078 31.6175 25.7622 31.4977 25.5605Z" fill="white"/>
<path d="M34.1781 24.7041C34.4018 24.5723 34.6774 24.5063 35.0029 24.5063V25.0236H34.8691C34.5096 25.0236 34.222 25.1195 34.0064 25.3132C33.7887 25.5069 33.6808 25.8304 33.6808 26.2818V28.4386H33.1855V24.5762H33.6808V25.2632C33.7887 25.0216 33.9544 24.8359 34.1781 24.7041Z" fill="white"/>
<path d="M38.5041 29.1474H38.0088V22.8506H38.5041V29.1474Z" fill="white"/>
<path d="M44.5667 23.4937V23.9031H42.3879V25.7504H44.2272V26.1598H42.3879V28.4385H41.8926V23.4937H44.5667Z" fill="white"/>
<path d="M45.4974 25.4567C45.6552 25.1571 45.8749 24.9254 46.1545 24.7637C46.4361 24.6019 46.7516 24.52 47.1051 24.52C47.4726 24.52 47.7901 24.6059 48.0557 24.7756C48.3213 24.9454 48.515 25.1631 48.6329 25.4267V24.5779H49.1281V28.4403H48.6329V27.5836C48.511 27.8472 48.3153 28.0649 48.0497 28.2386C47.7821 28.4104 47.4666 28.4962 47.0991 28.4962C46.7496 28.4962 46.4361 28.4144 46.1545 28.2486C45.8749 28.0828 45.6552 27.8492 45.4974 27.5476C45.3396 27.2461 45.2598 26.8966 45.2598 26.5011C45.2598 26.1037 45.3396 25.7562 45.4974 25.4567ZM48.4431 25.6863C48.3153 25.4507 48.1416 25.2689 47.9239 25.1411C47.7042 25.0133 47.4626 24.9494 47.1989 24.9494C46.9253 24.9494 46.6797 25.0113 46.464 25.1331C46.2463 25.2549 46.0766 25.4347 45.9508 25.6664C45.8249 25.9 45.763 26.1776 45.763 26.4971C45.763 26.8127 45.8249 27.0903 45.9508 27.3279C46.0746 27.5656 46.2463 27.7473 46.464 27.8731C46.6797 27.999 46.9253 28.0609 47.1989 28.0609C47.4626 28.0609 47.7042 27.997 47.9239 27.8691C48.1436 27.7413 48.3173 27.5596 48.4431 27.3239C48.5709 27.0883 48.6349 26.8147 48.6349 26.5031C48.6349 26.1956 48.5709 25.922 48.4431 25.6863Z" fill="white"/>
<path d="M50.6119 28.1867C50.3304 27.981 50.1746 27.7014 50.1406 27.3479H50.6499C50.6739 27.5656 50.7757 27.7413 50.9574 27.8751C51.1392 28.0089 51.3828 28.0768 51.6904 28.0768C51.96 28.0768 52.1697 28.0129 52.3234 27.8851C52.4772 27.7573 52.5531 27.5995 52.5531 27.4118C52.5531 27.28 52.5112 27.1722 52.4253 27.0863C52.3414 27.0024 52.2336 26.9345 52.1038 26.8846C51.974 26.8347 51.7982 26.7827 51.5765 26.7248C51.289 26.6489 51.0553 26.573 50.8756 26.4991C50.6958 26.4233 50.544 26.3114 50.4202 26.1636C50.2944 26.0158 50.2325 25.8161 50.2325 25.5665C50.2325 25.3788 50.2884 25.203 50.4022 25.0433C50.5161 24.8835 50.6758 24.7557 50.8835 24.6618C51.0912 24.5679 51.3269 24.52 51.5905 24.52C52.0059 24.52 52.3394 24.6259 52.5951 24.8356C52.8507 25.0453 52.9865 25.3348 53.0065 25.7023H52.5112C52.4972 25.4766 52.4093 25.2929 52.2456 25.1531C52.0818 25.0133 51.8601 24.9454 51.5765 24.9454C51.3269 24.9454 51.1232 25.0053 50.9674 25.1211C50.8117 25.239 50.7338 25.3848 50.7338 25.5605C50.7338 25.7123 50.7797 25.8361 50.8716 25.932C50.9634 26.0278 51.0773 26.1037 51.2151 26.1576C51.3529 26.2116 51.5366 26.2715 51.7663 26.3374C52.0439 26.4133 52.2655 26.4852 52.4313 26.5571C52.5971 26.629 52.7368 26.7308 52.8567 26.8686C52.9745 27.0064 53.0364 27.1861 53.0404 27.4138C53.0404 27.6215 52.9845 27.8072 52.8707 27.969C52.7568 28.1328 52.5991 28.2606 52.3973 28.3544C52.1936 28.4483 51.962 28.4962 51.6964 28.4962C51.253 28.4962 50.8915 28.3924 50.6119 28.1867Z" fill="white"/>
<path d="M54.7241 24.9934V27.3919C54.7241 27.6276 54.7701 27.7913 54.8579 27.8792C54.9478 27.9691 55.1056 28.013 55.3312 28.013H55.7846V28.4384H55.2534C54.9039 28.4384 54.6442 28.3565 54.4745 28.1947C54.3047 28.033 54.2189 27.7654 54.2189 27.3919V24.9934H53.6816V24.576H54.2189V23.6074H54.7221V24.576H55.7826V24.9934H54.7241Z" fill="white"/>
<path d="M60.1861 26.6988H56.9808C56.9947 26.9904 57.0646 27.242 57.1925 27.4477C57.3203 27.6554 57.488 27.8112 57.6957 27.919C57.9034 28.0249 58.1291 28.0788 58.3747 28.0788C58.6963 28.0788 58.9659 28.0009 59.1856 27.8451C59.4052 27.6894 59.549 27.4797 59.6209 27.2161H60.1442C60.0503 27.5935 59.8486 27.9011 59.539 28.1387C59.2295 28.3764 58.8421 28.4962 58.3747 28.4962C58.0113 28.4962 57.6857 28.4143 57.3982 28.2525C57.1106 28.0908 56.8849 27.8591 56.7231 27.5596C56.5614 27.26 56.4795 26.9105 56.4795 26.5091C56.4795 26.1077 56.5594 25.7562 56.7191 25.4546C56.8789 25.1531 57.1026 24.9214 57.3922 24.7616C57.6797 24.6019 58.0073 24.522 58.3747 24.522C58.7422 24.522 59.0637 24.6019 59.3413 24.7616C59.6169 24.9214 59.8286 25.1371 59.9784 25.4087C60.1262 25.6803 60.2021 25.9799 60.2021 26.3114C60.2001 26.4791 60.1961 26.6089 60.1861 26.6988ZM59.5251 25.5605C59.4052 25.3568 59.2415 25.205 59.0338 25.1011C58.8261 24.9973 58.6004 24.9454 58.3548 24.9454C57.9873 24.9454 57.6738 25.0632 57.4141 25.2988C57.1545 25.5345 57.0107 25.868 56.9828 26.2954H59.6988C59.7028 26.0078 59.6449 25.7622 59.5251 25.5605Z" fill="white"/>
<path d="M62.2054 24.7041C62.4291 24.5723 62.7047 24.5063 63.0302 24.5063V25.0236H62.8964C62.537 25.0236 62.2494 25.1195 62.0337 25.3132C61.816 25.5069 61.7082 25.8304 61.7082 26.2818V28.4386H61.2129V24.5762H61.7082V25.2632C61.816 25.0216 61.9818 24.8359 62.2054 24.7041Z" fill="white"/>
<path d="M66.5334 29.1474H66.0381V22.8506H66.5334V29.1474Z" fill="white"/>
<path d="M70.4152 23.8972V25.7446H72.2905V26.154H70.4152V28.0292H72.5022V28.4386H69.9199V23.4858H72.5022V23.8952H70.4152V23.8972Z" fill="white"/>
<path d="M73.5951 25.4567C73.7528 25.1571 73.9725 24.9254 74.2521 24.7637C74.5337 24.6019 74.8492 24.52 75.2027 24.52C75.5702 24.52 75.8877 24.6059 76.1534 24.7756C76.419 24.9454 76.6127 25.1631 76.7305 25.4267V24.5779H77.2258V28.4403H76.7305V27.5836C76.6087 27.8472 76.413 28.0649 76.1474 28.2386C75.8798 28.4104 75.5642 28.4962 75.1967 28.4962C74.8473 28.4962 74.5337 28.4144 74.2521 28.2486C73.9725 28.0828 73.7528 27.8492 73.5951 27.5476C73.4373 27.2461 73.3574 26.8966 73.3574 26.5011C73.3594 26.1037 73.4373 25.7562 73.5951 25.4567ZM76.5428 25.6863C76.415 25.4507 76.2412 25.2689 76.0235 25.1411C75.8039 25.0133 75.5622 24.9494 75.2986 24.9494C75.025 24.9494 74.7794 25.0113 74.5637 25.1331C74.346 25.2549 74.1762 25.4347 74.0504 25.6664C73.9246 25.9 73.8627 26.1776 73.8627 26.4971C73.8627 26.8127 73.9246 27.0903 74.0504 27.3279C74.1742 27.5656 74.346 27.7473 74.5637 27.8731C74.7794 27.999 75.025 28.0609 75.2986 28.0609C75.5622 28.0609 75.8039 27.997 76.0235 27.8691C76.2432 27.7413 76.417 27.5596 76.5428 27.3239C76.6706 27.0883 76.7345 26.8147 76.7345 26.5031C76.7325 26.1956 76.6686 25.922 76.5428 25.6863Z" fill="white"/>
<path d="M78.7096 28.1867C78.428 27.981 78.2722 27.7014 78.2383 27.3479H78.7475C78.7715 27.5656 78.8734 27.7413 79.0551 27.8751C79.2368 28.0089 79.4805 28.0768 79.788 28.0768C80.0576 28.0768 80.2673 28.0129 80.4211 27.8851C80.5749 27.7573 80.6508 27.5995 80.6508 27.4118C80.6508 27.28 80.6088 27.1722 80.523 27.0863C80.4391 27.0024 80.3312 26.9345 80.2014 26.8846C80.0716 26.8347 79.8959 26.7827 79.6742 26.7248C79.3866 26.6489 79.1529 26.573 78.9732 26.4991C78.7935 26.4233 78.6417 26.3114 78.5179 26.1636C78.3921 26.0158 78.3301 25.8161 78.3301 25.5665C78.3301 25.3788 78.3861 25.203 78.4999 25.0433C78.6137 24.8835 78.7735 24.7557 78.9812 24.6618C79.1889 24.5679 79.4246 24.52 79.6882 24.52C80.1036 24.52 80.4371 24.6259 80.6927 24.8356C80.9483 25.0453 81.0841 25.3348 81.1041 25.7023H80.6088C80.5949 25.4766 80.507 25.2929 80.3432 25.1531C80.1795 25.0133 79.9578 24.9454 79.6742 24.9454C79.4246 24.9454 79.2209 25.0053 79.0651 25.1211C78.9093 25.239 78.8314 25.3848 78.8314 25.5605C78.8314 25.7123 78.8774 25.8361 78.9692 25.932C79.0611 26.0278 79.1749 26.1037 79.3127 26.1576C79.4505 26.2116 79.6343 26.2715 79.8639 26.3374C80.1415 26.4133 80.3632 26.4852 80.5289 26.5571C80.6947 26.629 80.8345 26.7308 80.9543 26.8686C81.0722 27.0064 81.1341 27.1861 81.1381 27.4138C81.1381 27.6215 81.0821 27.8072 80.9683 27.969C80.8545 28.1328 80.6967 28.2606 80.495 28.3544C80.2913 28.4483 80.0596 28.4962 79.794 28.4962C79.3527 28.4962 78.9912 28.3924 78.7096 28.1867Z" fill="white"/>
<path d="M82.1723 23.7412C82.1024 23.6713 82.0664 23.5834 82.0664 23.4796C82.0664 23.3757 82.1024 23.2899 82.1723 23.222C82.2422 23.1541 82.328 23.1201 82.4279 23.1201C82.5277 23.1201 82.6116 23.1541 82.6815 23.222C82.7514 23.2899 82.7874 23.3757 82.7874 23.4796C82.7874 23.5834 82.7514 23.6713 82.6815 23.7412C82.6116 23.8111 82.5257 23.8471 82.4279 23.8471C82.328 23.8471 82.2441 23.8131 82.1723 23.7412ZM82.6755 24.576V28.4384H82.1802V24.576H82.6755Z" fill="white"/>
<path d="M87.3873 26.6988H84.1819C84.1959 26.9904 84.2658 27.242 84.3936 27.4477C84.5214 27.6554 84.6892 27.8112 84.8969 27.919C85.1046 28.0249 85.3303 28.0788 85.5759 28.0788C85.8974 28.0788 86.167 28.0009 86.3867 27.8451C86.6064 27.6894 86.7502 27.4797 86.8221 27.2161H87.3453C87.2515 27.5935 87.0498 27.9011 86.7402 28.1387C86.4307 28.3764 86.0432 28.4962 85.5759 28.4962C85.2124 28.4962 84.8869 28.4143 84.5993 28.2525C84.3117 28.0908 84.0861 27.8591 83.9243 27.5596C83.7625 27.26 83.6807 26.9105 83.6807 26.5091C83.6807 26.1077 83.7606 25.7562 83.9203 25.4546C84.0801 25.1531 84.3038 24.9214 84.5933 24.7616C84.8809 24.6019 85.2084 24.522 85.5759 24.522C85.9434 24.522 86.2649 24.6019 86.5425 24.7616C86.8181 24.9214 87.0298 25.1371 87.1796 25.4087C87.3274 25.6803 87.4033 25.9799 87.4033 26.3114C87.4013 26.4791 87.3973 26.6089 87.3873 26.6988ZM86.7262 25.5605C86.6064 25.3568 86.4426 25.205 86.235 25.1011C86.0273 24.9973 85.8016 24.9454 85.5559 24.9454C85.1885 24.9454 84.8749 25.0632 84.6153 25.2988C84.3557 25.5345 84.2119 25.868 84.1839 26.2954H86.9C86.904 26.0078 86.8461 25.7622 86.7262 25.5605Z" fill="white"/>
<path d="M89.4056 24.7041C89.6293 24.5723 89.9049 24.5063 90.2304 24.5063V25.0236H90.0966C89.7372 25.0236 89.4496 25.1195 89.2339 25.3132C89.0162 25.5069 88.9084 25.8304 88.9084 26.2818V28.4386H88.4131V24.5762H88.9084V25.2632C89.0162 25.0216 89.182 24.8359 89.4056 24.7041Z" fill="white"/>
</svg>
