<svg width="200" height="56" viewBox="0 0 200 56" fill="none" xmlns="http://www.w3.org/2000/svg">
<path d="M75.2867 6.93247C77.0939 6.93247 78.5589 5.48168 78.5589 3.69203C78.5589 1.90239 77.0939 0.451595 75.2867 0.451595C73.4796 0.451595 72.0146 1.90239 72.0146 3.69203C72.0146 5.48168 73.4796 6.93247 75.2867 6.93247Z" fill="#ADFFFF"/>
<path d="M82.6431 6.93247C84.4502 6.93247 85.9152 5.48168 85.9152 3.69203C85.9152 1.90239 84.4502 0.451595 82.6431 0.451595C80.8359 0.451595 79.3709 1.90239 79.3709 3.69203C79.3709 5.48168 80.8359 6.93247 82.6431 6.93247Z" fill="#A8FFFF"/>
<path d="M89.9994 6.93247C91.8066 6.93247 93.2716 5.48168 93.2716 3.69203C93.2716 1.90239 91.8066 0.451595 89.9994 0.451595C88.1923 0.451595 86.7273 1.90239 86.7273 3.69203C86.7273 5.48168 88.1923 6.93247 89.9994 6.93247Z" fill="#A2FFFF"/>
<path d="M97.2924 6.93247C99.0995 6.93247 100.564 5.48168 100.564 3.69203C100.564 1.90239 99.0995 0.451595 97.2924 0.451595C95.4852 0.451595 94.0202 1.90239 94.0202 3.69203C94.0202 5.48168 95.4852 6.93247 97.2924 6.93247Z" fill="#9DFFFF"/>
<path d="M104.649 6.93247C106.456 6.93247 107.921 5.48168 107.921 3.69203C107.921 1.90239 106.456 0.451595 104.649 0.451595C102.842 0.451595 101.377 1.90239 101.377 3.69203C101.377 5.48168 102.842 6.93247 104.649 6.93247Z" fill="#98FFFF"/>
<path d="M112.005 6.93247C113.812 6.93247 115.277 5.48168 115.277 3.69203C115.277 1.90239 113.812 0.451595 112.005 0.451595C110.198 0.451595 108.733 1.90239 108.733 3.69203C108.733 5.48168 110.198 6.93247 112.005 6.93247Z" fill="#94FFFF"/>
<path d="M119.567 7.26524C121.375 7.26524 122.84 5.81445 122.84 4.0248C122.84 2.23516 121.375 0.784365 119.567 0.784365C117.76 0.784365 116.295 2.23516 116.295 4.0248C116.295 5.81445 117.76 7.26524 119.567 7.26524Z" fill="#8EFFFF"/>
<path d="M126.108 10.7592C127.915 10.7592 129.38 9.30842 129.38 7.51878C129.38 5.72913 127.915 4.27834 126.108 4.27834C124.301 4.27834 122.836 5.72913 122.836 7.51878C122.836 9.30842 124.301 10.7592 126.108 10.7592Z" fill="#88FFFF"/>
<path d="M129.76 17.2401C131.567 17.2401 133.032 15.7893 133.032 13.9996C133.032 12.21 131.567 10.7592 129.76 10.7592C127.953 10.7592 126.488 12.21 126.488 13.9996C126.488 15.7893 127.953 17.2401 129.76 17.2401Z" fill="#84FFFF"/>
<path d="M129.57 24.644C131.377 24.644 132.842 23.1932 132.842 21.4035C132.842 19.6139 131.377 18.1631 129.57 18.1631C127.763 18.1631 126.298 19.6139 126.298 21.4035C126.298 23.1932 127.763 24.644 129.57 24.644Z" fill="#7FFFFF"/>
<path d="M126.298 31.1248C128.105 31.1248 129.57 29.6741 129.57 27.8844C129.57 26.0948 128.105 24.644 126.298 24.644C124.491 24.644 123.026 26.0948 123.026 27.8844C123.026 29.6741 124.491 31.1248 126.298 31.1248Z" fill="#7CF8F8"/>
<path d="M119.758 34.8209C121.565 34.8209 123.03 33.3701 123.03 31.5804C123.03 29.7908 121.565 28.34 119.758 28.34C117.95 28.34 116.485 29.7908 116.485 31.5804C116.485 33.3701 117.95 34.8209 119.758 34.8209Z" fill="#76F3F3"/>
<path d="M112.005 35.7082C113.812 35.7082 115.277 34.2574 115.277 32.4678C115.277 30.6781 113.812 29.2273 112.005 29.2273C110.198 29.2273 108.733 30.6781 108.733 32.4678C108.733 34.2574 110.198 35.7082 112.005 35.7082Z" fill="#70EEEE"/>
<path d="M104.649 35.7082C106.456 35.7082 107.921 34.2574 107.921 32.4678C107.921 30.6781 106.456 29.2273 104.649 29.2273C102.842 29.2273 101.377 30.6781 101.377 32.4678C101.377 34.2574 102.842 35.7082 104.649 35.7082Z" fill="#6EE9E9"/>
<path d="M97.2924 35.7082C99.0995 35.7082 100.564 34.2574 100.564 32.4678C100.564 30.6781 99.0995 29.2273 97.2924 29.2273C95.4852 29.2273 94.0202 30.6781 94.0202 32.4678C94.0202 34.2574 95.4852 35.7082 97.2924 35.7082Z" fill="#67E4E4"/>
<path d="M89.9994 35.7082C91.8066 35.7082 93.2716 34.2574 93.2716 32.4678C93.2716 30.6781 91.8066 29.2273 89.9994 29.2273C88.1923 29.2273 86.7273 30.6781 86.7273 32.4678C86.7273 34.2574 88.1923 35.7082 89.9994 35.7082Z" fill="#63DFDF"/>
<path d="M82.6431 35.7082C84.4502 35.7082 85.9152 34.2574 85.9152 32.4678C85.9152 30.6781 84.4502 29.2273 82.6431 29.2273C80.8359 29.2273 79.3709 30.6781 79.3709 32.4678C79.3709 34.2574 80.8359 35.7082 82.6431 35.7082Z" fill="#5DDADA"/>
<path d="M75.2867 35.7082C77.0939 35.7082 78.5589 34.2574 78.5589 32.4678C78.5589 30.6781 77.0939 29.2273 75.2867 29.2273C73.4796 29.2273 72.0146 30.6781 72.0146 32.4678C72.0146 34.2574 73.4796 35.7082 75.2867 35.7082Z" fill="#59D5D5"/>
<path d="M75.2867 28.4192C77.0939 28.4192 78.5589 26.9684 78.5589 25.1788C78.5589 23.3891 77.0939 21.9383 75.2867 21.9383C73.4796 21.9383 72.0146 23.3891 72.0146 25.1788C72.0146 26.9684 73.4796 28.4192 75.2867 28.4192Z" fill="#52D0D0"/>
<path d="M75.2867 21.1302C77.0939 21.1302 78.5589 19.6794 78.5589 17.8898C78.5589 16.1001 77.0939 14.6493 75.2867 14.6493C73.4796 14.6493 72.0146 16.1001 72.0146 17.8898C72.0146 19.6794 73.4796 21.1302 75.2867 21.1302Z" fill="#4ECBCB"/>
<path d="M82.6431 21.1302C84.4502 21.1302 85.9152 19.6794 85.9152 17.8898C85.9152 16.1001 84.4502 14.6493 82.6431 14.6493C80.8359 14.6493 79.3709 16.1001 79.3709 17.8898C79.3709 19.6794 80.8359 21.1302 82.6431 21.1302Z" fill="#4DC6C6"/>
<path d="M89.9994 21.1302C91.8066 21.1302 93.2716 19.6794 93.2716 17.8898C93.2716 16.1001 91.8066 14.6493 89.9994 14.6493C88.1923 14.6493 86.7273 16.1001 86.7273 17.8898C86.7273 19.6794 88.1923 21.1302 89.9994 21.1302Z" fill="#46C1C1"/>
<path d="M97.2924 21.1302C99.0995 21.1302 100.564 19.6794 100.564 17.8898C100.564 16.1001 99.0995 14.6493 97.2924 14.6493C95.4852 14.6493 94.0202 16.1001 94.0202 17.8898C94.0202 19.6794 95.4852 21.1302 97.2924 21.1302Z" fill="#41BCBC"/>
<path d="M2.37289 8.71115C3.95349 5.96589 6.11247 3.83069 8.84584 2.29762C11.5832 0.764555 14.6493 0 18.0482 0C22.0255 0 25.5076 1.01016 28.4984 3.03048C31.4893 5.05081 33.5809 7.84756 34.7693 11.4128H26.5613C25.7452 9.72924 24.5964 8.46555 23.1188 7.62573C21.6412 6.78591 19.9338 6.36203 17.9967 6.36203C15.9249 6.36203 14.0789 6.84137 12.4666 7.80003C10.8503 8.75869 9.59455 10.1135 8.69531 11.8644C7.79607 13.6154 7.34447 15.6714 7.34447 18.0284C7.34447 20.3498 7.79607 22.3978 8.69531 24.1646C9.59455 25.9314 10.8543 27.2942 12.4666 28.2568C14.0789 29.2154 15.9249 29.6948 17.9967 29.6948C19.9338 29.6948 21.6412 29.2669 23.1188 28.4073C24.5964 27.5477 25.7452 26.28 26.5613 24.5925H34.7693C33.5809 28.1974 31.4972 30.9981 28.5222 33.0026C25.5472 35.007 22.0572 36.0093 18.0443 36.0093C14.6454 36.0093 11.5792 35.2447 8.84188 33.7117C6.10454 32.1786 3.94953 30.0513 2.36893 27.3219C0.788323 24.5925 0 21.4986 0 18.0284C0 14.5622 0.792284 11.4564 2.37289 8.71115Z" fill="#41BCBC"/>
<path d="M59.243 35.7082L51.3915 21.97H48.0282V35.7082H40.8897V0.451601H54.2476C57.0008 0.451601 59.346 0.930934 61.2831 1.8896C63.2202 2.84826 64.6741 4.1476 65.6407 5.77971C66.6112 7.41181 67.0945 9.23802 67.0945 11.2583C67.0945 13.5797 66.4131 15.6793 65.0544 17.5451C63.6956 19.4149 61.6713 20.7024 58.9894 21.4075L67.5025 35.7003H59.243V35.7082ZM48.0243 16.6657H53.9901C55.9273 16.6657 57.3732 16.2022 58.3239 15.2752C59.2747 14.3482 59.75 13.0608 59.75 11.4128C59.75 9.79658 59.2747 8.54081 58.3239 7.64949C57.3732 6.75817 55.9273 6.31054 53.9901 6.31054H48.0243V16.6657Z" fill="#41BCBC"/>
<path d="M144.326 0.451601V35.7042H137.188V0.451601H144.326Z" fill="#41BCBC"/>
<path d="M158.5 30.1028H170.226V35.7082H151.362V0.451601H158.5V30.1028Z" fill="#41BCBC"/>
<path d="M200 0.451601L187.969 23.4318V35.7042H180.831V23.4318L168.748 0.451601H176.802L184.447 16.5627L192.046 0.451601H200Z" fill="#41BCBC"/>
<path d="M33.6324 50.3417C34.0167 50.8012 34.2068 51.332 34.2068 51.9421C34.2068 52.4373 34.084 52.8849 33.8345 53.2811C33.5849 53.6772 33.2244 53.9902 32.749 54.2199C32.2697 54.4497 31.6993 54.5646 31.0377 54.5646H27.6428V44.7561H30.9426C31.933 44.7561 32.6896 44.9858 33.2086 45.4454C33.7275 45.9049 33.989 46.4991 33.989 47.228C33.989 47.8381 33.8226 48.3293 33.4977 48.7096C33.169 49.0899 32.749 49.3513 32.2341 49.5019C32.7807 49.6049 33.2482 49.8822 33.6324 50.3417ZM28.6252 49.0938H30.9149C31.5804 49.0938 32.0914 48.9393 32.4519 48.6224C32.8124 48.3095 32.9946 47.8777 32.9946 47.3231C32.9946 46.7804 32.8124 46.3565 32.4519 46.0475C32.0914 45.7385 31.5646 45.584 30.8713 45.584H28.6252V49.0938ZM32.6302 53.2335C33.0263 52.8968 33.2244 52.4333 33.2244 51.8431C33.2244 51.2528 33.0184 50.7854 32.6025 50.4328C32.1865 50.0842 31.628 49.9059 30.9268 49.9059H28.6252V53.7366H30.9704C31.6795 53.7366 32.2301 53.5702 32.6302 53.2335Z" fill="#3D3D3D"/>
<path d="M43.1319 51.1142H36.7738C36.8016 51.6925 36.9402 52.1917 37.1938 52.5997C37.4473 53.0117 37.78 53.3207 38.192 53.5346C38.604 53.7445 39.0517 53.8515 39.5389 53.8515C40.1767 53.8515 40.7115 53.697 41.1472 53.388C41.583 53.079 41.8682 52.6631 42.0108 52.1402H43.0487C42.8625 52.8889 42.4624 53.4989 41.8484 53.9703C41.2344 54.4417 40.4659 54.6794 39.5389 54.6794C38.8179 54.6794 38.1722 54.517 37.6018 54.1961C37.0313 53.8753 36.5837 53.4157 36.2628 52.8215C35.9419 52.2273 35.7795 51.5341 35.7795 50.7378C35.7795 49.9416 35.938 49.2444 36.2549 48.6462C36.5718 48.048 37.0155 47.5885 37.5899 47.2716C38.1603 46.9547 38.81 46.7962 39.5389 46.7962C40.2678 46.7962 40.9056 46.9547 41.4562 47.2716C42.0029 47.5885 42.4228 48.0163 42.7199 48.5551C43.0131 49.0938 43.1636 49.688 43.1636 50.3456C43.1596 50.6784 43.1517 50.9359 43.1319 51.1142ZM41.8207 48.8561C41.583 48.4521 41.2582 48.151 40.8462 47.945C40.4342 47.739 39.9865 47.636 39.4993 47.636C38.7704 47.636 38.1485 47.8698 37.6335 48.3372C37.1185 48.8047 36.8333 49.4662 36.7778 50.314H42.1653C42.1732 49.7435 42.0584 49.2563 41.8207 48.8561Z" fill="#3D3D3D"/>
<path d="M46.4437 47.7311V52.4888C46.4437 52.9562 46.5348 53.281 46.7091 53.4554C46.8873 53.6336 47.2003 53.7208 47.6479 53.7208H48.5472V54.5646H47.4934C46.8002 54.5646 46.2852 54.4021 45.9485 54.0813C45.6118 53.7604 45.4414 53.2296 45.4414 52.4888V47.7311H44.3758V46.9032H45.4414V44.9819H46.4397V46.9032H48.5432V47.7311H46.4437Z" fill="#3D3D3D"/>
<path d="M51.649 47.7311V52.4888C51.649 52.9562 51.7401 53.281 51.9144 53.4554C52.0926 53.6336 52.4056 53.7208 52.8532 53.7208H53.7525V54.5646H52.6987C52.0055 54.5646 51.4905 54.4021 51.1538 54.0813C50.8171 53.7604 50.6467 53.2296 50.6467 52.4888V47.7311H49.5811V46.9032H50.6467V44.9819H51.645V46.9032H53.7485V47.7311H51.649Z" fill="#3D3D3D"/>
<path d="M62.4834 51.1142H56.1254C56.1531 51.6925 56.2917 52.1917 56.5453 52.5997C56.7988 53.0117 57.1316 53.3207 57.5435 53.5346C57.9555 53.7445 58.4032 53.8515 58.8904 53.8515C59.5282 53.8515 60.063 53.697 60.4988 53.388C60.9345 53.079 61.2197 52.6631 61.3623 52.1402H62.4002C62.2141 52.8889 61.8139 53.4989 61.1999 53.9703C60.5859 54.4417 59.8174 54.6794 58.8904 54.6794C58.1694 54.6794 57.5237 54.517 56.9533 54.1961C56.3828 53.8753 55.9352 53.4157 55.6143 52.8215C55.2935 52.2273 55.131 51.5341 55.131 50.7378C55.131 49.9416 55.2895 49.2444 55.6064 48.6462C55.9233 48.048 56.367 47.5885 56.9414 47.2716C57.5118 46.9547 58.1615 46.7962 58.8904 46.7962C59.6193 46.7962 60.2571 46.9547 60.8078 47.2716C61.3544 47.5885 61.7743 48.0163 62.0714 48.5551C62.3646 49.0938 62.5151 49.688 62.5151 50.3456C62.5112 50.6784 62.5032 50.9359 62.4834 51.1142ZM61.1722 48.8561C60.9345 48.4521 60.6097 48.151 60.1977 47.945C59.7857 47.739 59.3381 47.636 58.8508 47.636C58.1219 47.636 57.5 47.8698 56.985 48.3372C56.47 48.8047 56.1848 49.4662 56.1293 50.314H61.5168C61.5248 49.7435 61.4099 49.2563 61.1722 48.8561Z" fill="#3D3D3D"/>
<path d="M66.4884 47.1567C66.9321 46.8953 67.4788 46.7645 68.1245 46.7645V47.7905H67.8591C67.146 47.7905 66.5756 47.9807 66.1477 48.3649C65.716 48.7492 65.502 49.3909 65.502 50.2862V54.5646H64.5196V46.9032H65.502V48.2659C65.716 47.7866 66.0447 47.4182 66.4884 47.1567Z" fill="#3D3D3D"/>
<path d="M75.0688 55.9709H74.0864V43.4805H75.0688V55.9709Z" fill="#3D3D3D"/>
<path d="M87.0957 44.7561V45.5682H82.7738V49.2325H86.4223V50.0446H82.7738V54.5646H81.7914V44.7561H87.0957Z" fill="#3D3D3D"/>
<path d="M88.9417 48.6502C89.2547 48.0559 89.6904 47.5964 90.245 47.2755C90.8036 46.9547 91.4295 46.7923 92.1307 46.7923C92.8596 46.7923 93.4894 46.9626 94.0163 47.2993C94.5432 47.636 94.9274 48.0678 95.1612 48.5907V46.9071H96.1436V54.5685H95.1612V52.8691C94.9195 53.392 94.5313 53.8238 94.0044 54.1684C93.4736 54.5091 92.8477 54.6794 92.1188 54.6794C91.4255 54.6794 90.8036 54.517 90.245 54.1882C89.6904 53.8594 89.2547 53.3959 88.9417 52.7978C88.6288 52.1996 88.4703 51.5063 88.4703 50.722C88.4703 49.9337 88.6288 49.2444 88.9417 48.6502ZM94.7848 49.1057C94.5313 48.6383 94.1866 48.2778 93.7548 48.0243C93.3191 47.7707 92.8398 47.644 92.3169 47.644C91.7741 47.644 91.2869 47.7668 90.859 48.0084C90.4273 48.2501 90.0905 48.6066 89.841 49.0661C89.5914 49.5296 89.4686 50.0802 89.4686 50.7141C89.4686 51.34 89.5914 51.8906 89.841 52.362C90.0866 52.8334 90.4273 53.1939 90.859 53.4435C91.2869 53.693 91.7741 53.8158 92.3169 53.8158C92.8398 53.8158 93.3191 53.6891 93.7548 53.4355C94.1906 53.182 94.5352 52.8215 94.7848 52.3541C95.0383 51.8866 95.1651 51.3439 95.1651 50.7259C95.1651 50.1159 95.0383 49.5732 94.7848 49.1057Z" fill="#3D3D3D"/>
<path d="M99.0869 54.0654C98.5284 53.6574 98.2194 53.1028 98.152 52.4016H99.1622C99.2097 52.8334 99.4117 53.182 99.7722 53.4474C100.133 53.7128 100.616 53.8475 101.226 53.8475C101.761 53.8475 102.177 53.7208 102.482 53.4672C102.787 53.2137 102.937 52.9008 102.937 52.5284C102.937 52.2669 102.854 52.053 102.684 51.8827C102.518 51.7163 102.304 51.5816 102.046 51.4826C101.789 51.3835 101.44 51.2805 101 51.1657C100.43 51.0151 99.9663 50.8646 99.6098 50.718C99.2533 50.5675 98.9522 50.3456 98.7066 50.0525C98.457 49.7594 98.3342 49.3632 98.3342 48.868C98.3342 48.4957 98.4452 48.1471 98.671 47.8301C98.8968 47.5132 99.2137 47.2597 99.6257 47.0735C100.038 46.8873 100.505 46.7923 101.028 46.7923C101.852 46.7923 102.514 47.0022 103.021 47.4182C103.528 47.8341 103.797 48.4085 103.837 49.1374H102.854C102.826 48.6898 102.652 48.3253 102.327 48.048C102.003 47.7707 101.563 47.636 101 47.636C100.505 47.636 100.101 47.7549 99.792 47.9846C99.4831 48.2184 99.3286 48.5075 99.3286 48.8561C99.3286 49.1572 99.4197 49.4028 99.6019 49.593C99.7841 49.7831 100.01 49.9337 100.283 50.0406C100.557 50.1476 100.921 50.2664 101.377 50.3971C101.927 50.5477 102.367 50.6903 102.696 50.8329C103.025 50.9755 103.302 51.1775 103.54 51.4509C103.773 51.7242 103.896 52.0807 103.904 52.5323C103.904 52.9443 103.793 53.3127 103.567 53.6336C103.341 53.9585 103.029 54.212 102.628 54.3982C102.224 54.5844 101.765 54.6794 101.238 54.6794C100.359 54.6794 99.6415 54.4734 99.0869 54.0654Z" fill="#3D3D3D"/>
<path d="M107.243 47.7311V52.4888C107.243 52.9562 107.335 53.281 107.509 53.4554C107.687 53.6336 108 53.7208 108.448 53.7208H109.347V54.5646H108.293C107.6 54.5646 107.085 54.4021 106.748 54.0813C106.412 53.7604 106.241 53.2296 106.241 52.4888V47.7311H105.176V46.9032H106.241V44.9819H107.24V46.9032H109.343V47.7311H107.243Z" fill="#3D3D3D"/>
<path d="M118.078 51.1142H111.72C111.748 51.6925 111.886 52.1917 112.14 52.5997C112.393 53.0117 112.726 53.3207 113.138 53.5346C113.55 53.7445 113.998 53.8515 114.485 53.8515C115.123 53.8515 115.658 53.697 116.093 53.388C116.529 53.079 116.814 52.6631 116.957 52.1402H117.995C117.809 52.8889 117.408 53.4989 116.794 53.9703C116.18 54.4417 115.412 54.6794 114.485 54.6794C113.764 54.6794 113.118 54.517 112.548 54.1961C111.977 53.8753 111.53 53.4157 111.209 52.8215C110.888 52.2273 110.726 51.5341 110.726 50.7378C110.726 49.9416 110.884 49.2444 111.201 48.6462C111.518 48.048 111.962 47.5885 112.536 47.2716C113.106 46.9547 113.756 46.7962 114.485 46.7962C115.214 46.7962 115.852 46.9547 116.402 47.2716C116.949 47.5885 117.369 48.0163 117.666 48.5551C117.959 49.0938 118.11 49.688 118.11 50.3456C118.106 50.6784 118.098 50.9359 118.078 51.1142ZM116.767 48.8561C116.529 48.4521 116.204 48.151 115.792 47.945C115.38 47.739 114.933 47.636 114.445 47.636C113.716 47.636 113.094 47.8698 112.579 48.3372C112.065 48.8047 111.779 49.4662 111.724 50.314H117.111C117.119 49.7435 117.004 49.2563 116.767 48.8561Z" fill="#3D3D3D"/>
<path d="M122.083 47.1567C122.527 46.8953 123.073 46.7645 123.719 46.7645V47.7905H123.454C122.741 47.7905 122.17 47.9807 121.742 48.3649C121.31 48.7492 121.097 49.3909 121.097 50.2862V54.5646H120.114V46.9032H121.097V48.2659C121.31 47.7866 121.639 47.4182 122.083 47.1567Z" fill="#3D3D3D"/>
<path d="M130.667 55.9709H129.685V43.4805H130.667V55.9709Z" fill="#3D3D3D"/>
<path d="M138.368 49.2206H142.088V50.0327H138.368V53.7525H142.508V54.5646H137.386V44.7402H142.508V45.5523H138.368V49.2206Z" fill="#3D3D3D"/>
<path d="M144.675 48.6502C144.988 48.0559 145.424 47.5964 145.978 47.2755C146.537 46.9547 147.163 46.7923 147.864 46.7923C148.593 46.7923 149.223 46.9626 149.749 47.2993C150.276 47.636 150.661 48.0678 150.894 48.5907V46.9071H151.877V54.5685H150.894V52.8691C150.653 53.392 150.264 53.8238 149.738 54.1684C149.207 54.5091 148.581 54.6794 147.852 54.6794C147.159 54.6794 146.537 54.517 145.978 54.1882C145.424 53.8594 144.988 53.3959 144.675 52.7978C144.362 52.1996 144.203 51.5063 144.203 50.722C144.207 49.9337 144.362 49.2444 144.675 48.6502ZM150.522 49.1057C150.268 48.6383 149.924 48.2778 149.492 48.0243C149.056 47.7707 148.577 47.644 148.054 47.644C147.511 47.644 147.024 47.7668 146.596 48.0084C146.164 48.2501 145.828 48.6066 145.578 49.0661C145.329 49.5296 145.206 50.0802 145.206 50.7141C145.206 51.34 145.329 51.8906 145.578 52.362C145.824 52.8334 146.164 53.1939 146.596 53.4435C147.024 53.693 147.511 53.8158 148.054 53.8158C148.577 53.8158 149.056 53.6891 149.492 53.4355C149.928 53.182 150.272 52.8215 150.522 52.3541C150.775 51.8866 150.902 51.3439 150.902 50.7259C150.898 50.1159 150.772 49.5732 150.522 49.1057Z" fill="#3D3D3D"/>
<path d="M154.82 54.0654C154.262 53.6574 153.953 53.1028 153.885 52.4016H154.895C154.943 52.8334 155.145 53.182 155.505 53.4474C155.866 53.7128 156.349 53.8475 156.959 53.8475C157.494 53.8475 157.91 53.7208 158.215 53.4672C158.52 53.2137 158.671 52.9008 158.671 52.5284C158.671 52.2669 158.587 52.053 158.417 51.8827C158.251 51.7163 158.037 51.5816 157.779 51.4826C157.522 51.3835 157.173 51.2805 156.733 51.1657C156.163 51.0151 155.7 50.8646 155.343 50.718C154.986 50.5675 154.685 50.3456 154.44 50.0525C154.19 49.7594 154.067 49.3632 154.067 48.868C154.067 48.4957 154.178 48.1471 154.404 47.8301C154.63 47.5132 154.947 47.2597 155.359 47.0735C155.771 46.8873 156.238 46.7923 156.761 46.7923C157.585 46.7923 158.247 47.0022 158.754 47.4182C159.261 47.8341 159.53 48.4085 159.57 49.1374H158.587C158.56 48.6898 158.385 48.3253 158.061 48.048C157.736 47.7707 157.296 47.636 156.733 47.636C156.238 47.636 155.834 47.7549 155.525 47.9846C155.216 48.2184 155.062 48.5075 155.062 48.8561C155.062 49.1572 155.153 49.4028 155.335 49.593C155.517 49.7831 155.743 49.9337 156.016 50.0406C156.29 50.1476 156.654 50.2664 157.11 50.3971C157.66 50.5477 158.1 50.6903 158.429 50.8329C158.758 50.9755 159.035 51.1775 159.273 51.4509C159.506 51.7242 159.629 52.0807 159.637 52.5323C159.637 52.9443 159.526 53.3127 159.3 53.6336C159.075 53.9585 158.762 54.212 158.362 54.3982C157.958 54.5844 157.498 54.6794 156.971 54.6794C156.096 54.6794 155.379 54.4734 154.82 54.0654Z" fill="#3D3D3D"/>
<path d="M161.689 45.2473C161.551 45.1087 161.479 44.9343 161.479 44.7284C161.479 44.5224 161.551 44.352 161.689 44.2173C161.828 44.0826 161.998 44.0153 162.196 44.0153C162.394 44.0153 162.561 44.0826 162.699 44.2173C162.838 44.352 162.909 44.5224 162.909 44.7284C162.909 44.9343 162.838 45.1087 162.699 45.2473C162.561 45.3859 162.39 45.4573 162.196 45.4573C161.998 45.4573 161.832 45.3899 161.689 45.2473ZM162.687 46.9032V54.5646H161.705V46.9032H162.687Z" fill="#3D3D3D"/>
<path d="M172.032 51.1142H165.674C165.702 51.6925 165.841 52.1917 166.094 52.5997C166.348 53.0117 166.681 53.3207 167.093 53.5346C167.505 53.7445 167.952 53.8515 168.439 53.8515C169.077 53.8515 169.612 53.697 170.048 53.388C170.484 53.079 170.769 52.6631 170.911 52.1402H171.949C171.763 52.8889 171.363 53.4989 170.749 53.9703C170.135 54.4417 169.366 54.6794 168.439 54.6794C167.718 54.6794 167.073 54.517 166.502 54.1961C165.932 53.8753 165.484 53.4157 165.163 52.8215C164.842 52.2273 164.68 51.5341 164.68 50.7378C164.68 49.9416 164.839 49.2444 165.155 48.6462C165.472 48.048 165.916 47.5885 166.49 47.2716C167.061 46.9547 167.711 46.7962 168.439 46.7962C169.168 46.7962 169.806 46.9547 170.357 47.2716C170.903 47.5885 171.323 48.0163 171.62 48.5551C171.914 49.0938 172.064 49.688 172.064 50.3456C172.06 50.6784 172.052 50.9359 172.032 51.1142ZM170.721 48.8561C170.484 48.4521 170.159 48.151 169.747 47.945C169.335 47.739 168.887 47.636 168.4 47.636C167.671 47.636 167.049 47.8698 166.534 48.3372C166.019 48.8047 165.734 49.4662 165.678 50.314H171.066C171.074 49.7435 170.959 49.2563 170.721 48.8561Z" fill="#3D3D3D"/>
<path d="M176.037 47.1567C176.481 46.8953 177.028 46.7645 177.673 46.7645V47.7905H177.408C176.695 47.7905 176.125 47.9807 175.697 48.3649C175.265 48.7492 175.051 49.3909 175.051 50.2862V54.5646H174.069V46.9032H175.051V48.2659C175.265 47.7866 175.594 47.4182 176.037 47.1567Z" fill="#3D3D3D"/>
</svg>
