<svg width="114" height="20" viewBox="0 0 114 20" fill="none" xmlns="http://www.w3.org/2000/svg">
<path d="M42.9135 3.73592C43.9435 3.73592 44.7786 2.9541 44.7786 1.98967C44.7786 1.02523 43.9435 0.243408 42.9135 0.243408C41.8834 0.243408 41.0483 1.02523 41.0483 1.98967C41.0483 2.9541 41.8834 3.73592 42.9135 3.73592Z" fill="#ADFFFF"/>
<path d="M47.1063 3.73592C48.1364 3.73592 48.9714 2.9541 48.9714 1.98967C48.9714 1.02523 48.1364 0.243408 47.1063 0.243408C46.0762 0.243408 45.2412 1.02523 45.2412 1.98967C45.2412 2.9541 46.0762 3.73592 47.1063 3.73592Z" fill="#A8FFFF"/>
<path d="M51.2997 3.73592C52.3298 3.73592 53.1648 2.9541 53.1648 1.98967C53.1648 1.02523 52.3298 0.243408 51.2997 0.243408C50.2696 0.243408 49.4346 1.02523 49.4346 1.98967C49.4346 2.9541 50.2696 3.73592 51.2997 3.73592Z" fill="#A2FFFF"/>
<path d="M55.4564 3.73592C56.4865 3.73592 57.3215 2.9541 57.3215 1.98967C57.3215 1.02523 56.4865 0.243408 55.4564 0.243408C54.4264 0.243408 53.5913 1.02523 53.5913 1.98967C53.5913 2.9541 54.4264 3.73592 55.4564 3.73592Z" fill="#9DFFFF"/>
<path d="M59.6498 3.73592C60.6799 3.73592 61.5149 2.9541 61.5149 1.98967C61.5149 1.02523 60.6799 0.243408 59.6498 0.243408C58.6197 0.243408 57.7847 1.02523 57.7847 1.98967C57.7847 2.9541 58.6197 3.73592 59.6498 3.73592Z" fill="#98FFFF"/>
<path d="M63.8431 3.73592C64.8732 3.73592 65.7083 2.9541 65.7083 1.98967C65.7083 1.02523 64.8732 0.243408 63.8431 0.243408C62.8131 0.243408 61.978 1.02523 61.978 1.98967C61.978 2.9541 62.8131 3.73592 63.8431 3.73592Z" fill="#94FFFF"/>
<path d="M68.1532 3.91512C69.1833 3.91512 70.0183 3.1333 70.0183 2.16886C70.0183 1.20443 69.1833 0.422607 68.1532 0.422607C67.1231 0.422607 66.2881 1.20443 66.2881 2.16886C66.2881 3.1333 67.1231 3.91512 68.1532 3.91512Z" fill="#8EFFFF"/>
<path d="M71.8812 5.79818C72.9113 5.79818 73.7463 5.01635 73.7463 4.05192C73.7463 3.08749 72.9113 2.30566 71.8812 2.30566C70.8512 2.30566 70.0161 3.08749 70.0161 4.05192C70.0161 5.01635 70.8512 5.79818 71.8812 5.79818Z" fill="#88FFFF"/>
<path d="M73.9633 9.29061C74.9933 9.29061 75.8284 8.50878 75.8284 7.54435C75.8284 6.57992 74.9933 5.7981 73.9633 5.7981C72.9332 5.7981 72.0981 6.57992 72.0981 7.54435C72.0981 8.50878 72.9332 9.29061 73.9633 9.29061Z" fill="#84FFFF"/>
<path d="M73.8549 13.2806C74.8849 13.2806 75.72 12.4988 75.72 11.5343C75.72 10.5699 74.8849 9.78809 73.8549 9.78809C72.8248 9.78809 71.9897 10.5699 71.9897 11.5343C71.9897 12.4988 72.8248 13.2806 73.8549 13.2806Z" fill="#7FFFFF"/>
<path d="M71.9896 16.773C73.0197 16.773 73.8547 15.9912 73.8547 15.0268C73.8547 14.0623 73.0197 13.2805 71.9896 13.2805C70.9596 13.2805 70.1245 14.0623 70.1245 15.0268C70.1245 15.9912 70.9596 16.773 71.9896 16.773Z" fill="#7CF8F8"/>
<path d="M68.2616 18.7647C69.2917 18.7647 70.1267 17.9829 70.1267 17.0185C70.1267 16.054 69.2917 15.2722 68.2616 15.2722C67.2315 15.2722 66.3965 16.054 66.3965 17.0185C66.3965 17.9829 67.2315 18.7647 68.2616 18.7647Z" fill="#76F3F3"/>
<path d="M63.8431 19.243C64.8732 19.243 65.7083 18.4612 65.7083 17.4967C65.7083 16.5323 64.8732 15.7505 63.8431 15.7505C62.8131 15.7505 61.978 16.5323 61.978 17.4967C61.978 18.4612 62.8131 19.243 63.8431 19.243Z" fill="#70EEEE"/>
<path d="M59.6498 19.243C60.6799 19.243 61.5149 18.4612 61.5149 17.4967C61.5149 16.5323 60.6799 15.7505 59.6498 15.7505C58.6197 15.7505 57.7847 16.5323 57.7847 17.4967C57.7847 18.4612 58.6197 19.243 59.6498 19.243Z" fill="#6EE9E9"/>
<path d="M55.4564 19.243C56.4865 19.243 57.3215 18.4612 57.3215 17.4967C57.3215 16.5323 56.4865 15.7505 55.4564 15.7505C54.4264 15.7505 53.5913 16.5323 53.5913 17.4967C53.5913 18.4612 54.4264 19.243 55.4564 19.243Z" fill="#67E4E4"/>
<path d="M51.2997 19.243C52.3298 19.243 53.1648 18.4612 53.1648 17.4967C53.1648 16.5323 52.3298 15.7505 51.2997 15.7505C50.2696 15.7505 49.4346 16.5323 49.4346 17.4967C49.4346 18.4612 50.2696 19.243 51.2997 19.243Z" fill="#63DFDF"/>
<path d="M47.1063 19.243C48.1364 19.243 48.9714 18.4612 48.9714 17.4967C48.9714 16.5323 48.1364 15.7505 47.1063 15.7505C46.0762 15.7505 45.2412 16.5323 45.2412 17.4967C45.2412 18.4612 46.0762 19.243 47.1063 19.243Z" fill="#5DDADA"/>
<path d="M42.9135 19.243C43.9435 19.243 44.7786 18.4612 44.7786 17.4967C44.7786 16.5323 43.9435 15.7505 42.9135 15.7505C41.8834 15.7505 41.0483 16.5323 41.0483 17.4967C41.0483 18.4612 41.8834 19.243 42.9135 19.243Z" fill="#59D5D5"/>
<path d="M42.9135 15.315C43.9435 15.315 44.7786 14.5332 44.7786 13.5688C44.7786 12.6043 43.9435 11.8225 42.9135 11.8225C41.8834 11.8225 41.0483 12.6043 41.0483 13.5688C41.0483 14.5332 41.8834 15.315 42.9135 15.315Z" fill="#52D0D0"/>
<path d="M42.9135 11.387C43.9435 11.387 44.7786 10.6052 44.7786 9.64079C44.7786 8.67636 43.9435 7.89453 42.9135 7.89453C41.8834 7.89453 41.0483 8.67636 41.0483 9.64079C41.0483 10.6052 41.8834 11.387 42.9135 11.387Z" fill="#4ECBCB"/>
<path d="M47.1063 11.387C48.1364 11.387 48.9714 10.6052 48.9714 9.64079C48.9714 8.67636 48.1364 7.89453 47.1063 7.89453C46.0762 7.89453 45.2412 8.67636 45.2412 9.64079C45.2412 10.6052 46.0762 11.387 47.1063 11.387Z" fill="#4DC6C6"/>
<path d="M51.2997 11.387C52.3298 11.387 53.1648 10.6052 53.1648 9.64079C53.1648 8.67636 52.3298 7.89453 51.2997 7.89453C50.2696 7.89453 49.4346 8.67636 49.4346 9.64079C49.4346 10.6052 50.2696 11.387 51.2997 11.387Z" fill="#46C1C1"/>
<path d="M55.4564 11.387C56.4865 11.387 57.3215 10.6052 57.3215 9.64079C57.3215 8.67636 56.4865 7.89453 55.4564 7.89453C54.4264 7.89453 53.5913 8.67636 53.5913 9.64079C53.5913 10.6052 54.4264 11.387 55.4564 11.387Z" fill="#41BCBC"/>
<path d="M1.35255 4.6944C2.25349 3.21499 3.48411 2.06434 5.04213 1.23818C6.60241 0.412015 8.35011 0 10.2875 0C12.5545 0 14.5393 0.544371 16.2441 1.63311C17.9489 2.72186 19.1411 4.22902 19.8185 6.15033H15.1399C14.6748 5.24304 14.02 4.56204 13.1777 4.10947C12.3355 3.65689 11.3623 3.42847 10.2581 3.42847C9.07719 3.42847 8.02496 3.68678 7.10595 4.2034C6.18468 4.72002 5.46889 5.45012 4.95633 6.39369C4.44376 7.33727 4.18635 8.44522 4.18635 9.71542C4.18635 10.9664 4.44376 12.0701 4.95633 13.0222C5.46889 13.9743 6.18694 14.7087 7.10595 15.2274C8.02496 15.7441 9.07719 16.0024 10.2581 16.0024C11.3623 16.0024 12.3355 15.7718 13.1777 15.3086C14.02 14.8453 14.6748 14.1622 15.1399 13.2528H19.8185C19.1411 15.1954 17.9534 16.7047 16.2577 17.7849C14.5619 18.8651 12.5726 19.4052 10.2852 19.4052C8.34785 19.4052 6.60015 18.9932 5.03987 18.167C3.47959 17.3409 2.25123 16.1945 1.35029 14.7236C0.449344 13.2528 0 11.5855 0 9.71542C0 7.84748 0.451602 6.17381 1.35255 4.6944Z" fill="#41BCBC"/>
<path d="M33.7685 19.243L29.2931 11.8396H27.3761V19.243H23.3071V0.243408H30.9211C32.4904 0.243408 33.8272 0.501719 34.9313 1.01834C36.0355 1.53496 36.8642 2.23517 37.4152 3.1147C37.9684 3.99423 38.2438 4.97837 38.2438 6.06711C38.2438 7.3181 37.8555 8.44954 37.081 9.45502C36.3065 10.4626 35.1526 11.1564 33.624 11.5364L38.4764 19.2388H33.7685V19.243ZM27.3738 8.9811H30.7744C31.8785 8.9811 32.7027 8.73133 33.2446 8.23179C33.7865 7.73225 34.0575 7.03844 34.0575 6.15037C34.0575 5.27937 33.7865 4.60265 33.2446 4.12232C32.7027 3.64199 31.8785 3.40076 30.7744 3.40076H27.3738V8.9811Z" fill="#41BCBC"/>
<path d="M82.2657 0.243408V19.2409H78.1968V0.243408H82.2657Z" fill="#41BCBC"/>
<path d="M90.3453 16.2223H97.029V19.243H86.2764V0.243408H90.3453V16.2223Z" fill="#41BCBC"/>
<path d="M114 0.243408L107.142 12.6273V19.2409H103.073V12.6273L96.1865 0.243408H100.777L105.135 8.92559L109.466 0.243408H114Z" fill="#41BCBC"/>
</svg>
