<svg width="627" height="498" viewBox="0 0 627 498" fill="none" xmlns="http://www.w3.org/2000/svg">
<path d="M511.111 329.654C511.813 328.626 512.306 327.436 512.556 326.17C512.807 324.903 512.808 323.59 512.56 322.322C512.312 321.055 511.821 319.864 511.122 318.834C510.422 317.805 509.531 316.96 508.511 316.361L510.065 296.15L499.414 292.088L497.574 320.665C496.797 322.666 496.696 324.919 497.292 326.998C497.887 329.077 499.137 330.837 500.805 331.945C502.474 333.053 504.444 333.431 506.343 333.009C508.241 332.587 509.937 331.394 511.109 329.655L511.111 329.654Z" fill="#FFB8B8"/>
<path d="M564.251 486.792H554.667L550.107 445.04H564.258L564.251 486.792Z" fill="#FFB8B8"/>
<path d="M547.82 483.698H566.311V496.841H536.178C536.178 493.356 537.404 490.013 539.588 487.548C541.771 485.083 544.732 483.698 547.82 483.698Z" fill="#2F2E41"/>
<path d="M542.493 459.087L533.184 461.67L519.928 422.358L533.669 418.545L542.493 459.087Z" fill="#FFB8B8"/>
<path d="M526.01 460.138L543.964 455.149L546.747 467.911L517.488 476.041C516.75 472.657 517.233 469.08 518.831 466.097C520.429 463.115 523.012 460.971 526.01 460.138Z" fill="#2F2E41"/>
<path d="M553.035 473.479C552.159 473.481 551.314 473.117 550.663 472.456C550.012 471.795 549.602 470.884 549.512 469.901L538.482 353.874L528.882 389.355L542.479 444.773C542.713 445.723 542.628 446.736 542.241 447.62C541.853 448.503 541.19 449.194 540.379 449.559L529.568 454.441C529.123 454.642 528.647 454.739 528.167 454.726C527.688 454.713 527.216 454.591 526.78 454.367C526.344 454.142 525.952 453.82 525.629 453.421C525.307 453.021 525.059 452.551 524.901 452.04L508.238 398.067C506.413 392.173 505.606 385.94 505.86 379.704L508.186 321.456L569.444 324.384L568.488 468.497C568.477 469.5 568.134 470.462 567.527 471.195C566.92 471.928 566.093 472.379 565.207 472.46L553.311 473.472C553.218 473.476 553.126 473.479 553.035 473.479Z" fill="#2F2E41"/>
<path d="M542.889 192.548C554.266 192.548 563.488 182.137 563.488 169.295C563.488 156.452 554.266 146.041 542.889 146.041C531.513 146.041 522.291 156.452 522.291 169.295C522.291 182.137 531.513 192.548 542.889 192.548Z" fill="#FFB8B8"/>
<path d="M558.037 328.173C552.612 328.173 545.876 327.672 538.901 327.154C529.374 326.446 519.523 325.714 512.169 326.195C511.176 326.307 510.174 326.129 509.259 325.679C508.344 325.229 507.546 324.522 506.942 323.626C499.362 312.668 511.052 269.936 511.555 268.123L521.069 220.342C523.165 209.833 529.85 202.081 538.524 200.111C546.642 198.271 554.494 201.94 559.53 209.934C559.798 210.358 560.065 210.793 560.331 211.24C576.729 238.655 567.454 306.769 566.833 311.161C567.699 312.332 572.383 318.954 571.096 323.555C570.571 325.427 569.149 326.702 566.867 327.342C563.96 327.992 560.997 328.27 558.034 328.17L558.037 328.173Z" fill="#0070D2"/>
<path d="M512.502 328.194C510.636 328.194 508.119 327.417 504.726 325.827C503.267 325.142 498.829 323.058 504.218 269.9C506.864 243.788 510.656 217.858 510.694 217.599L510.73 217.349L510.934 217.245C511.032 217.195 520.715 212.185 522.399 205.746C522.455 205.523 522.52 205.307 522.595 205.097C523.058 203.666 523.994 202.492 525.205 201.82C526.417 201.148 527.812 201.031 529.098 201.492C530.457 201.859 531.642 202.795 532.412 204.112C533.181 205.429 533.479 207.026 533.243 208.581C532.657 212.781 531.529 216.861 529.896 220.692C525.339 231.306 522.252 259.442 522.222 259.725C522.048 262.128 517.913 319.061 517.116 323.381C516.838 324.89 516.326 326.736 514.824 327.632C514.104 328.033 513.307 328.228 512.504 328.2L512.502 328.194Z" fill="#2F2E41"/>
<path d="M535.003 326.013C534.627 326.013 534.261 325.872 533.964 325.611C527.904 320.412 537.711 257.395 543.525 235.653C544.69 231.297 545.726 227.57 546.608 224.57C548.213 219.186 549.334 213.633 549.953 207.996C550.273 204.941 550.969 203.197 552.081 202.662C552.853 202.29 553.758 202.543 554.781 203.413C560.155 203.114 565.375 205.591 570.213 208.318L574.567 210.771L579.453 308.429C579.315 314.661 568.432 319.061 563.686 319.342C556.064 319.794 542.376 321.195 536.346 325.505C535.951 325.815 535.485 325.991 535.004 326.012L535.003 326.013Z" fill="#2F2E41"/>
<path d="M507.784 307.689C507.712 307.689 507.639 307.689 507.566 307.681L497.697 306.996C497.206 306.962 496.726 306.813 496.288 306.558C495.851 306.304 495.465 305.949 495.156 305.517C494.846 305.085 494.62 304.584 494.491 304.048C494.362 303.512 494.333 302.951 494.407 302.401L498.873 269L507.28 222.135C507.487 220.981 507.906 219.889 508.511 218.929C509.116 217.969 509.893 217.164 510.792 216.565C511.69 215.966 512.69 215.587 513.727 215.453C514.763 215.318 515.813 215.431 516.808 215.783C518.51 216.396 519.962 217.676 520.901 219.391C521.841 221.106 522.206 223.144 521.931 225.137L515.252 272.096L511.298 304.236C511.176 305.192 510.754 306.067 510.109 306.701C509.464 307.334 508.639 307.685 507.784 307.689Z" fill="#2F2E41"/>
<path d="M541.498 271.13C542.1 270.024 542.909 269.081 543.869 268.366C544.829 267.652 545.916 267.184 547.053 266.995C548.19 266.806 549.351 266.901 550.452 267.273C551.553 267.645 552.569 268.285 553.428 269.148L569.61 260.324L576.758 270.118L553.751 282.216C552.371 283.748 550.541 284.656 548.608 284.766C546.675 284.877 544.773 284.183 543.263 282.817C541.752 281.45 540.739 279.506 540.413 277.352C540.088 275.198 540.474 272.984 541.498 271.13Z" fill="#FFB8B8"/>
<path d="M563.977 280.606C563.181 280.606 562.407 280.303 561.781 279.747C561.155 279.19 560.714 278.412 560.527 277.538L558.179 266.508C558 265.678 558.061 264.806 558.354 264.018C558.647 263.231 559.156 262.571 559.806 262.135L573.979 252.557L566.733 222.607C566.106 220.042 566.394 217.302 567.534 214.974C568.674 212.645 570.577 210.913 572.834 210.149C575.091 209.384 577.524 209.647 579.612 210.882C581.699 212.116 583.276 214.225 584.004 216.755L592.004 244.33C592.987 247.691 592.994 251.319 592.026 254.685C591.058 258.052 589.163 260.982 586.619 263.05L566.055 279.846C565.45 280.34 564.723 280.606 563.977 280.606Z" fill="#2F2E41"/>
<path d="M410.838 0H13.9889C10.2801 0.00501112 6.7246 1.67043 4.10214 4.63094C1.47968 7.59144 0.00443892 11.6053 0 15.7921V64.0015C0.00443892 68.1883 1.47968 72.2022 4.10214 75.1627C6.7246 78.1232 10.2801 79.7886 13.9889 79.7936H410.838C414.547 79.7886 418.103 78.1232 420.725 75.1627C423.348 72.2022 424.823 68.1883 424.827 64.0015V15.7921C424.823 11.6053 423.348 7.59144 420.725 4.63094C418.103 1.67043 414.547 0.00501112 410.838 0ZM423.354 64.0015C423.35 67.7472 422.029 71.3379 419.683 73.9865C417.337 76.6352 414.156 78.1256 410.838 78.1311H13.9889C10.6709 78.1256 7.49016 76.6352 5.14398 73.9865C2.7978 71.3379 1.47757 67.7472 1.47269 64.0015V15.7921C1.47757 12.0464 2.7978 8.45567 5.14398 5.80706C7.49016 3.15844 10.6709 1.66803 13.9889 1.66252H410.838C414.156 1.66803 417.337 3.15844 419.683 5.80706C422.029 8.45567 423.35 12.0464 423.354 15.7921V64.0015Z" fill="#3F3D56"/>
<path d="M410.838 193.664H13.9889C10.2801 193.659 6.7246 191.993 4.10214 189.033C1.47968 186.072 0.00443892 182.058 0 177.872V129.663C0.00443892 125.476 1.47968 121.463 4.10214 118.502C6.7246 115.542 10.2801 113.876 13.9889 113.871H410.838C414.547 113.876 418.103 115.542 420.725 118.502C423.348 121.463 424.823 125.476 424.827 129.663V177.872C424.823 182.058 423.348 186.072 420.725 189.033C418.103 191.993 414.547 193.659 410.838 193.664ZM13.9889 115.534C10.6705 115.538 7.48919 117.028 5.14276 119.677C2.79634 122.326 1.47646 125.917 1.47269 129.663V177.872C1.47579 181.618 2.79537 185.21 5.14187 187.86C7.48836 190.509 10.6701 192 13.9889 192.004H410.838C414.157 192 417.338 190.51 419.685 187.861C422.032 185.212 423.352 181.621 423.355 177.875V129.663C423.352 125.917 422.032 122.326 419.685 119.677C417.339 117.028 414.158 115.538 410.839 115.534H13.9889Z" fill="#CCCCCC"/>
<path d="M410.838 307.536H13.9889C10.2801 307.531 6.7246 305.865 4.10214 302.905C1.47968 299.944 0.00443892 295.931 0 291.744V243.535C0.00443892 239.348 1.47968 235.335 4.10214 232.374C6.7246 229.414 10.2801 227.748 13.9889 227.743H410.838C414.547 227.748 418.103 229.414 420.725 232.374C423.348 235.335 424.823 239.348 424.827 243.535V291.744C424.823 295.931 423.348 299.944 420.725 302.905C418.103 305.865 414.547 307.531 410.838 307.536ZM13.9889 229.402C10.6705 229.406 7.48919 230.896 5.14276 233.545C2.79634 236.194 1.47646 239.785 1.47269 243.531V291.74C1.47624 295.486 2.79602 299.078 5.14247 301.727C7.48891 304.376 10.6704 305.866 13.9889 305.87H410.838C414.157 305.866 417.338 304.377 419.685 301.728C422.032 299.079 423.352 295.487 423.355 291.741V243.535C423.352 239.788 422.033 236.196 419.686 233.546C417.339 230.896 414.157 229.406 410.838 229.402H13.9889Z" fill="#CCCCCC"/>
<path d="M67.6117 67.3833C62.7961 67.3833 58.0887 65.7712 54.0847 62.751C50.0807 59.7307 46.9599 55.4379 45.1171 50.4154C43.2742 45.3929 42.792 39.8662 43.7315 34.5344C44.671 29.2025 46.9899 24.3049 50.395 20.4608C53.8002 16.6167 58.1386 13.9989 62.8616 12.9383C67.5847 11.8777 72.4803 12.4221 76.9293 14.5025C81.3783 16.5828 85.1809 20.1059 87.8563 24.626C90.5317 29.1462 91.9597 34.4604 91.9597 39.8967C91.9597 47.1866 89.3945 54.178 84.8284 59.3327C80.2622 64.4874 74.0692 67.3833 67.6117 67.3833Z" fill="#0070D2"/>
<path d="M374.889 62.3383H114.988C113.426 62.3383 111.928 61.6377 110.823 60.3907C109.718 59.1436 109.098 57.4523 109.098 55.6887C109.098 53.9251 109.718 52.2337 110.823 50.9867C111.928 49.7396 113.426 49.0391 114.988 49.0391H374.889C376.451 49.0391 377.95 49.7396 379.054 50.9867C380.159 52.2337 380.78 53.9251 380.78 55.6887C380.78 57.4523 380.159 59.1436 379.054 60.3907C377.95 61.6377 376.451 62.3383 374.889 62.3383Z" fill="#CCCCCC"/>
<path d="M290.214 34.0776H114.982C113.42 34.0776 111.922 33.377 110.817 32.1299C109.712 30.8829 109.092 29.1915 109.092 27.4279C109.092 25.6644 109.712 23.973 110.817 22.7259C111.922 21.4789 113.42 20.7783 114.982 20.7783H290.214C291.776 20.7783 293.274 21.4789 294.379 22.7259C295.483 23.973 296.104 25.6644 296.104 27.4279C296.104 29.1915 295.483 30.8829 294.379 32.1299C293.274 33.377 291.776 34.0776 290.214 34.0776Z" fill="#CCCCCC"/>
<path d="M67.6117 181.254C62.7961 181.254 58.0887 179.642 54.0847 176.622C50.0807 173.602 46.9599 169.309 45.1171 164.286C43.2742 159.264 42.792 153.737 43.7315 148.405C44.671 143.074 46.9899 138.176 50.395 134.332C53.8002 130.488 58.1386 127.87 62.8616 126.809C67.5847 125.749 72.4803 126.293 76.9293 128.374C81.3783 130.454 85.1809 133.977 87.8563 138.497C90.5317 143.017 91.9597 148.331 91.9597 153.768C91.9597 161.058 89.3945 168.049 84.8284 173.204C80.2622 178.358 74.0692 181.254 67.6117 181.254Z" fill="#E6E6E6"/>
<path d="M374.889 176.209H114.988C113.426 176.209 111.928 175.509 110.823 174.262C109.718 173.015 109.098 171.323 109.098 169.56C109.098 167.796 109.718 166.105 110.823 164.858C111.928 163.611 113.426 162.91 114.988 162.91H374.889C376.451 162.91 377.95 163.611 379.054 164.858C380.159 166.105 380.78 167.796 380.78 169.56C380.78 171.323 380.159 173.015 379.054 174.262C377.95 175.509 376.451 176.209 374.889 176.209Z" fill="#E6E6E6"/>
<path d="M290.214 147.95H114.982C113.42 147.95 111.922 147.249 110.817 146.002C109.712 144.755 109.092 143.064 109.092 141.3C109.092 139.536 109.712 137.845 110.817 136.598C111.922 135.351 113.42 134.65 114.982 134.65H290.214C291.776 134.65 293.274 135.351 294.379 136.598C295.483 137.845 296.104 139.536 296.104 141.3C296.104 143.064 295.483 144.755 294.379 146.002C293.274 147.249 291.776 147.95 290.214 147.95Z" fill="#E6E6E6"/>
<path d="M67.6117 295.126C62.7961 295.126 58.0887 293.513 54.0847 290.493C50.0807 287.473 46.9599 283.18 45.1171 278.158C43.2742 273.135 42.792 267.608 43.7315 262.277C44.671 256.945 46.9899 252.047 50.395 248.203C53.8002 244.359 58.1386 241.741 62.8616 240.681C67.5847 239.62 72.4803 240.164 76.9293 242.245C81.3783 244.325 85.1809 247.848 87.8563 252.368C90.5317 256.888 91.9597 262.203 91.9597 267.639C91.9597 274.929 89.3945 281.92 84.8284 287.075C80.2622 292.23 74.0692 295.126 67.6117 295.126Z" fill="#E6E6E6"/>
<path d="M374.889 290.081H114.988C113.426 290.081 111.928 289.381 110.823 288.134C109.718 286.887 109.098 285.195 109.098 283.432C109.098 281.668 109.718 279.977 110.823 278.73C111.928 277.483 113.426 276.782 114.988 276.782H374.889C376.451 276.782 377.95 277.483 379.054 278.73C380.159 279.977 380.78 281.668 380.78 283.432C380.78 285.195 380.159 286.887 379.054 288.134C377.95 289.381 376.451 290.081 374.889 290.081Z" fill="#E6E6E6"/>
<path d="M290.214 261.821H114.982C113.42 261.821 111.922 261.12 110.817 259.873C109.712 258.626 109.092 256.935 109.092 255.171C109.092 253.408 109.712 251.716 110.817 250.469C111.922 249.222 113.42 248.521 114.982 248.521H290.214C291.776 248.521 293.274 249.222 294.379 250.469C295.483 251.716 296.104 253.408 296.104 255.171C296.104 256.935 295.483 258.626 294.379 259.873C293.274 261.12 291.776 261.821 290.214 261.821Z" fill="#E6E6E6"/>
<path d="M66.3687 49.565C65.764 49.5666 65.1752 49.3459 64.6914 48.9363L64.6612 48.9108L58.3502 43.4612C58.0579 43.2082 57.8126 42.8928 57.6283 42.5328C57.444 42.1728 57.3244 41.7754 57.2761 41.3632C57.2279 40.951 57.252 40.5321 57.3472 40.1305C57.4423 39.7288 57.6066 39.3522 57.8307 39.0223C58.0548 38.6923 58.3342 38.4154 58.6531 38.2073C58.972 37.9993 59.324 37.8641 59.6891 37.8097C60.0543 37.7552 60.4253 37.7825 60.7811 37.8899C61.1369 37.9973 61.4705 38.1828 61.7628 38.4357L65.8504 41.9748L75.5093 27.7486C75.9617 27.0827 76.6298 26.6469 77.3668 26.537C78.1037 26.4271 78.8492 26.6521 79.4392 27.1626L79.3797 27.2572L79.4409 27.1626C80.0301 27.6741 80.4156 28.4285 80.5127 29.2604C80.6099 30.0922 80.4108 30.9337 79.9592 31.6001L68.5978 48.3257C68.3346 48.7103 67.9965 49.0214 67.6096 49.2349C67.2228 49.4483 66.7976 49.5584 66.367 49.5565L66.3687 49.565Z" fill="white"/>
<path d="M626.161 498H460.106C459.884 498 459.671 497.9 459.513 497.723C459.356 497.545 459.268 497.304 459.268 497.053C459.268 496.802 459.356 496.561 459.513 496.384C459.671 496.206 459.884 496.106 460.106 496.106H626.161C626.384 496.106 626.597 496.206 626.754 496.384C626.911 496.561 627 496.802 627 497.053C627 497.304 626.911 497.545 626.754 497.723C626.597 497.9 626.384 498 626.161 498Z" fill="#CCCCCC"/>
<path d="M550.462 175.493C550.462 175.493 547.955 159.846 542.251 161.716C536.548 163.585 521.868 165.498 521.841 158.129C521.814 150.76 535.659 144.247 543.821 145.129C551.984 146.01 565.864 148.707 565.1 162.527C564.488 171.231 562.105 179.658 558.136 187.152L550.462 175.493Z" fill="#2F2E41"/>
</svg>
