<svg width="154" height="150" viewBox="0 0 154 150" fill="none" xmlns="http://www.w3.org/2000/svg">
<g clip-path="url(#clip0_1919_33495)">
<path d="M97.7207 33.7346H56.3136C55.37 33.7358 54.4654 34.1111 53.7982 34.7784C53.131 35.4456 52.7556 36.3502 52.7545 37.2938V129.321L52.2799 129.466L42.1221 132.577C41.6407 132.724 41.1207 132.673 40.6763 132.437C40.2319 132.201 39.8994 131.798 39.7518 131.317L9.53693 32.6218C9.38989 32.1404 9.44001 31.6203 9.67626 31.1758C9.91252 30.7313 10.3156 30.3988 10.7969 30.2514L26.4501 25.4584L71.8292 11.5683L87.4823 6.77527C87.7205 6.70196 87.9708 6.67634 88.2189 6.69988C88.4671 6.72342 88.7081 6.79567 88.9283 6.91247C89.1484 7.02928 89.3434 7.18836 89.5021 7.3806C89.6607 7.57285 89.7798 7.79449 89.8527 8.03284L97.576 33.2601L97.7207 33.7346Z" fill="#F2F2F2"/>
<path d="M106.756 33.26L97.4481 2.85537C97.2932 2.34877 97.04 1.87765 96.703 1.46894C96.366 1.06022 95.9518 0.721923 95.484 0.473366C95.0162 0.224809 94.5039 0.0708646 93.9766 0.0203369C93.4493 -0.0301909 92.9172 0.0236876 92.4107 0.178888L70.4033 6.91517L25.0266 20.8077L3.01921 27.5464C1.99686 27.8603 1.14083 28.567 0.639026 29.5115C0.13722 30.4559 0.0306288 31.5608 0.342655 32.5837L32.1567 136.494C32.4102 137.32 32.9216 138.043 33.616 138.556C34.3104 139.07 35.1511 139.348 36.0149 139.349C36.4147 139.349 36.8122 139.289 37.1941 139.171L52.2801 134.553L52.7547 134.406V133.91L52.2801 134.055L37.0541 138.718C36.1517 138.993 35.177 138.899 34.3439 138.456C33.5108 138.013 32.8872 137.258 32.6099 136.357L0.798323 32.4438C0.660961 31.9969 0.613087 31.5274 0.65744 31.0621C0.701793 30.5967 0.837499 30.1447 1.05679 29.7319C1.27609 29.3191 1.57467 28.9536 1.93542 28.6563C2.29618 28.3591 2.71202 28.1359 3.15916 27.9996L25.1666 21.2609L70.5434 7.37074L92.5508 0.632091C92.8899 0.528591 93.2425 0.475818 93.5971 0.475487C94.3581 0.477196 95.0985 0.72253 95.7099 1.17555C96.3214 1.62858 96.7717 2.26549 96.9949 2.99299L106.261 33.26L106.408 33.7345H106.901L106.756 33.26Z" fill="#3F3D56"/>
<path d="M29.2749 30.329C28.8175 30.3286 28.3724 30.1818 28.0046 29.9099C27.6369 29.638 27.366 29.2554 27.2316 28.8183L24.1754 18.8356C24.0933 18.5675 24.0648 18.2858 24.0915 18.0066C24.1183 17.7275 24.1998 17.4563 24.3313 17.2086C24.4629 16.961 24.642 16.7417 24.8583 16.5632C25.0747 16.3847 25.324 16.2507 25.5922 16.1686L67.3384 3.38799C67.88 3.22274 68.465 3.2791 68.965 3.54471C69.465 3.81031 69.8393 4.26346 70.0056 4.8047L73.0618 14.7875C73.2269 15.329 73.1705 15.914 72.9049 16.414C72.6393 16.914 72.1863 17.2882 71.6451 17.4546L29.8988 30.2352C29.6966 30.2973 29.4863 30.3289 29.2749 30.329Z" fill="#0070D2"/>
<path d="M45.2846 10.6668C47.9055 10.6668 50.0301 8.5422 50.0301 5.92131C50.0301 3.30043 47.9055 1.17578 45.2846 1.17578C42.6637 1.17578 40.5391 3.30043 40.5391 5.92131C40.5391 8.5422 42.6637 10.6668 45.2846 10.6668Z" fill="#0070D2"/>
<path d="M45.2846 8.92605C46.9442 8.92605 48.2896 7.58066 48.2896 5.92103C48.2896 4.26141 46.9442 2.91602 45.2846 2.91602C43.6249 2.91602 42.2795 4.26141 42.2795 5.92103C42.2795 7.58066 43.6249 8.92605 45.2846 8.92605Z" fill="white"/>
<path d="M143.157 138.137H62.9575C62.4228 138.136 61.9102 137.923 61.5321 137.545C61.154 137.167 60.9413 136.654 60.9407 136.12V40.0227C60.9413 39.488 61.154 38.9753 61.5321 38.5972C61.9102 38.2191 62.4228 38.0065 62.9575 38.0059H143.157C143.692 38.0065 144.204 38.2192 144.582 38.5973C144.961 38.9754 145.173 39.488 145.174 40.0227V136.12C145.173 136.654 144.961 137.167 144.582 137.545C144.204 137.923 143.692 138.136 143.157 138.137Z" fill="#E6E6E6"/>
<path d="M106.26 33.2598H56.3137C55.2444 33.2613 54.2193 33.6867 53.4631 34.4429C52.707 35.199 52.2815 36.2241 52.28 37.2935V134.055L52.7546 133.91V37.2935C52.7557 36.3499 53.1311 35.4453 53.7983 34.778C54.4655 34.1108 55.3701 33.7355 56.3137 33.7343H106.408L106.26 33.2598ZM149.801 33.2598H56.3137C55.2444 33.2613 54.2193 33.6867 53.4631 34.4429C52.707 35.199 52.2815 36.2241 52.28 37.2935V145.966C52.2815 147.035 52.707 148.061 53.4631 148.817C54.2193 149.573 55.2444 149.998 56.3137 150H149.801C150.87 149.998 151.895 149.573 152.651 148.817C153.407 148.061 153.833 147.035 153.834 145.966V37.2935C153.833 36.2241 153.407 35.199 152.651 34.4429C151.895 33.6867 150.87 33.2613 149.801 33.2598ZM153.36 145.966C153.359 146.91 152.983 147.814 152.316 148.482C151.649 149.149 150.744 149.524 149.801 149.525H56.3137C55.3701 149.524 54.4655 149.149 53.7983 148.482C53.1311 147.814 52.7557 146.91 52.7546 145.966V37.2935C52.7557 36.3499 53.1311 35.4453 53.7983 34.778C54.4655 34.1108 55.3701 33.7355 56.3137 33.7343H149.801C150.744 33.7355 151.649 34.1108 152.316 34.778C152.983 35.4453 153.359 36.3499 153.36 37.2935V145.966Z" fill="#3F3D56"/>
<path d="M124.887 43.7004H81.2278C80.6616 43.6998 80.1188 43.4746 79.7185 43.0742C79.3181 42.6739 79.0929 42.1311 79.0923 41.5649V31.1247C79.0929 30.5586 79.3181 30.0158 79.7185 29.6154C80.1188 29.2151 80.6616 28.9899 81.2278 28.9893H124.887C125.453 28.9899 125.996 29.2151 126.396 29.6154C126.796 30.0158 127.021 30.5586 127.022 31.1247V41.5649C127.021 42.1311 126.796 42.6739 126.396 43.0742C125.996 43.4746 125.453 43.6998 124.887 43.7004Z" fill="#0070D2"/>
<path d="M103.057 29.701C105.678 29.701 107.803 27.5764 107.803 24.9555C107.803 22.3346 105.678 20.21 103.057 20.21C100.436 20.21 98.3118 22.3346 98.3118 24.9555C98.3118 27.5764 100.436 29.701 103.057 29.701Z" fill="#0070D2"/>
<path d="M103.057 27.8454C104.654 27.8454 105.948 26.5513 105.948 24.9549C105.948 23.3586 104.654 22.0645 103.057 22.0645C101.461 22.0645 100.167 23.3586 100.167 24.9549C100.167 26.5513 101.461 27.8454 103.057 27.8454Z" fill="white"/>
</g>
<defs>
<clipPath id="clip0_1919_33495">
<rect width="153.669" height="150" fill="white" transform="translate(0.165527)"/>
</clipPath>
</defs>
</svg>
