<svg width="630" height="596" viewBox="0 0 630 596" fill="none" xmlns="http://www.w3.org/2000/svg">
<path opacity="0.18" d="M231.12 57.64C205.72 81.83 192.5 116.45 167.91 141.46C123.02 187.1 45.2799 196.1 13.2899 251.6C-2.71009 279.23 -3.33009 313.9 6.28991 344.29C15.9099 374.68 35.0699 401.29 56.7799 424.67C95.4199 466.26 143.46 499.37 196.78 518.8C222.08 528.02 248.98 534.22 275.78 532.12C307.44 529.65 337.1 515.88 368.33 510.12C401.27 504.12 435.44 507.12 468.24 500.28C501.04 493.44 534.69 472.89 541.59 440.11C545.88 419.71 539.07 398.11 543.69 377.82C551.77 342.33 590.23 323.57 611.37 293.93C622.323 278.499 628.486 260.183 629.09 241.27C629.69 221.17 623.28 200.18 608.56 186.49C597.43 176.15 582.73 170.78 568.64 165.11C503.62 139 450.19 99.32 393.38 59.49C344.62 25.28 278.94 12.1 231.12 57.64Z" fill="#68E1FD"/>
<path d="M321.56 374.33L331.87 551.96L348.52 553.24L386.47 369.14L402.54 555.59H419.19L448.56 377.1L386.47 341.98L321.56 374.33Z" fill="#25233A"/>
<path d="M539.22 144.42C539.22 144.42 542.4 137.42 540.29 124.7C538.18 111.98 551.96 94.19 551.96 94.19C553.035 94.7825 553.905 95.6882 554.453 96.7867C555.002 97.8851 555.203 99.1245 555.03 100.34L564.89 74.67C564.89 74.67 569.75 72.32 574.59 85.98C579.43 99.64 575.66 111.58 574.3 118.15C572.03 129.21 562.06 137.35 561.49 142.55C560.916 146.65 560.05 150.703 558.9 154.68L539.22 144.42Z" fill="url(#paint0_linear_428_242)"/>
<path d="M386.17 104.1C386.17 104.1 342.17 103.99 338.43 106.47C334.69 108.95 324.96 115.05 318.7 130.78C312.44 146.51 279.99 233.01 279.99 233.01C279.99 233.01 277.4 241.95 286.06 250.92C294.72 259.89 322.15 292.27 322.15 292.27L311.4 373.9C311.4 373.9 379.4 379.03 387.4 358.53C387.4 358.53 412.21 372.62 448.6 377.11L460.6 381.67L461.6 227.48C466.525 233.443 472.932 238.005 480.178 240.71C487.423 243.415 495.252 244.167 502.88 242.89C529.78 238.73 555.37 204.45 566.88 161.08L529.75 141.48C529.75 141.48 515.66 197.24 491.96 187.58C475.43 180.83 475.44 155.44 473.58 137.58C473.088 132.862 471.141 128.413 468.01 124.849C464.878 121.286 460.716 118.784 456.1 117.69L424.65 110.22L386.17 104.1Z" fill="white"/>
<path d="M353.62 267.58L348.73 373.72C348.73 373.72 318.26 374.97 311.39 373.9L322.14 292.28L353.62 267.58Z" fill="#68E1FD"/>
<path d="M353.62 267.58L348.73 373.72C348.73 373.72 318.26 374.97 311.39 373.9L322.14 292.28L353.62 267.58Z" fill="url(#paint1_linear_428_242)"/>
<path d="M461.6 227.48L451.64 205.06L438.56 375.59L460.61 381.67L461.6 227.48Z" fill="#68E1FD"/>
<path d="M461.6 227.48L451.64 205.06L438.56 375.59L460.61 381.67L461.6 227.48Z" fill="url(#paint2_linear_428_242)"/>
<path d="M384.09 120.9C384.09 120.9 408.34 137.42 421.85 125.75L386.09 276.91L384.09 120.9Z" fill="#25233A"/>
<path d="M390.2 80.74C390.2 80.74 378.95 123.74 386.95 133.09C394.95 142.44 419.95 143.23 421.85 125.75C423.75 108.27 432.04 84.9 432.04 84.9L390.2 80.74Z" fill="url(#paint3_linear_428_242)"/>
<path opacity="0.19" d="M388.98 91.25C388.98 91.25 398.55 115.25 406.8 119.06C415.05 122.87 422.23 120.06 423.27 116.71C424.31 113.36 428.62 95.39 428.62 95.39L388.98 91.25Z" fill="url(#paint4_linear_428_242)"/>
<path d="M447.86 57.1C447.86 84.39 432.48 106.51 413.5 106.51C394.52 106.51 379.15 84.36 379.15 57.1C379.15 29.84 396.03 19.74 415 19.74C433.97 19.74 447.86 29.79 447.86 57.1Z" fill="url(#paint5_linear_428_242)"/>
<path d="M461.19 41.42C459.9 48.87 455.72 55.53 450.81 61.28C450.81 60.79 450.73 60.28 450.68 59.8C450.18 54.32 449.32 48.8 446.95 43.87C444.36 38.47 439.7 33.78 433.85 32.53C429.95 31.69 425.76 32.39 421.73 32.6C418.43 32.76 415.24 32.6 412.4 30.98C411.096 30.0461 409.715 29.2264 408.27 28.53C400.04 25.53 394.52 40.29 394.19 45.94C393.81 52.46 394.87 59.26 392.57 65.39C390.57 64.61 389.84 62.22 389.09 60.19C388.34 58.16 386.77 55.92 384.64 56.26C384.113 56.3839 383.619 56.6182 383.19 56.9475C382.761 57.2768 382.406 57.6935 382.15 58.17C380.48 60.88 380.9 64.41 382.07 67.37C383.24 70.33 385.07 73.01 386.2 75.99C387.11 78.4497 387.521 81.0662 387.407 83.6865C387.294 86.3068 386.659 88.8781 385.54 91.25C380.842 84.9138 377.502 77.6762 375.73 69.99L370.73 74.34C370.843 68.0533 370.953 61.7633 371.06 55.47C371.33 40.85 372.06 24.93 381.58 13.85C388.88 5.34 400.26 1.28 411.42 0.260004C423.81 -0.859996 436.88 1.57 446.9 8.95C456.92 16.33 463.32 29.15 461.19 41.42Z" fill="#3F3D56"/>
<path d="M456.19 41.48C452.49 53.87 450.68 59.8 450.68 59.8C450.18 54.32 449.32 48.8 446.95 43.87C444.36 38.47 439.7 33.78 433.85 32.53C429.95 31.69 425.76 32.39 421.73 32.6C421.73 32.6 436.73 24.69 443.39 22.69C450.05 20.69 459.89 29.1 456.19 41.48Z" fill="#25233A"/>
<path opacity="0.19" d="M388.98 69.03C388.98 69.03 385.56 67.64 386.63 64.97C387.7 62.3 386.74 60.87 385.63 60.52C384.52 60.17 381.27 62.94 384.63 69.03C387.99 75.12 388.98 69.03 388.98 69.03Z" fill="url(#paint6_linear_428_242)"/>
<path d="M381.36 98.54L371.36 102.01C370.505 102.308 369.743 102.825 369.15 103.509C368.557 104.193 368.153 105.021 367.98 105.91L359.08 151.91L376.28 154.65L367.34 166.99L386.05 267.55L384.7 100.9C384.692 100.502 384.591 100.112 384.404 99.7601C384.218 99.4086 383.951 99.1058 383.626 98.8761C383.301 98.6465 382.927 98.4964 382.533 98.438C382.14 98.3796 381.738 98.4145 381.36 98.54ZM424.68 110.18L435.37 114.08L438.56 161.08H423.27L429.8 174.32L386.09 276.91C386.09 276.91 419.49 145.57 424.68 110.18Z" fill="#68E1FD"/>
<path d="M381.36 98.54L371.36 102.01C370.505 102.308 369.743 102.825 369.15 103.509C368.557 104.193 368.153 105.021 367.98 105.91L359.08 151.91L376.28 154.65L367.34 166.99L386.05 267.55L384.7 100.9C384.692 100.502 384.591 100.112 384.404 99.7601C384.218 99.4086 383.951 99.1058 383.626 98.8761C383.301 98.6465 382.927 98.4964 382.533 98.438C382.14 98.3796 381.738 98.4145 381.36 98.54Z" fill="url(#paint7_linear_428_242)"/>
<path d="M424.68 110.18L435.37 114.08L438.56 161.08H423.27L429.8 174.32L386.09 276.91C386.09 276.91 419.49 145.57 424.68 110.18Z" fill="url(#paint8_linear_428_242)"/>
<path d="M337.58 156.72L322.19 236.54L353.64 267.58L337.58 156.72Z" fill="#68E1FD"/>
<path d="M337.58 156.72L322.19 236.54L353.64 267.58L347.75 226.92L337.58 156.72Z" fill="url(#paint9_linear_428_242)"/>
<path d="M353.64 267.58L330.81 296.02L322.15 292.27L350.92 264.89L353.64 267.58Z" fill="#25233A"/>
<path d="M351.08 270.76C351.08 270.76 357.98 285.76 359.08 294.41L330.77 296.02L351.08 270.76Z" fill="url(#paint10_linear_428_242)"/>
<path d="M327.75 296.02L372.62 294.41C372.62 294.41 369.38 340.41 369.1 345.51C368.82 350.61 320.41 354.1 320.41 354.1L327.75 296.02ZM457.7 297.68L413.53 294.68C413.53 294.68 408.74 340.36 409.02 345.49C409.3 350.62 454.2 357.16 454.2 357.16L457.7 297.68Z" fill="white"/>
<path d="M327.75 296.02L372.62 294.41C372.62 294.41 369.38 340.41 369.1 345.51C368.82 350.61 320.41 354.1 320.41 354.1L327.75 296.02Z" fill="#68E1FD"/>
<path d="M327.75 296.02L372.62 294.41C372.62 294.41 369.38 340.41 369.1 345.51C368.82 350.61 320.41 354.1 320.41 354.1L327.75 296.02Z" fill="url(#paint11_linear_428_242)"/>
<path d="M457.7 297.68L413.53 294.68C413.53 294.68 408.74 340.36 409.02 345.49C409.3 350.62 454.2 357.16 454.2 357.16L457.7 297.68Z" fill="#68E1FD"/>
<path d="M457.7 297.68L413.53 294.68C413.53 294.68 408.74 340.36 409.02 345.49C409.3 350.62 454.2 357.16 454.2 357.16L457.7 297.68Z" fill="url(#paint12_linear_428_242)"/>
<path d="M533.08 143.22L535.34 139.61L565.79 156.72L566.92 161.07L533.08 143.22Z" fill="#25233A"/>
<path d="M365.17 130.79C364.75 102.68 387.36 95.39 387.36 95.39M344.89 168.3C342.76 120.62 386.17 118.13 382.25 168.3" stroke="#222A72" stroke-width="3.03" stroke-miterlimit="10" stroke-linecap="round"/>
<path d="M349.62 170.01C349.622 170.899 349.36 171.768 348.868 172.507C348.376 173.247 347.676 173.824 346.855 174.165C346.035 174.507 345.132 174.597 344.26 174.425C343.389 174.253 342.588 173.826 341.959 173.198C341.33 172.571 340.901 171.771 340.727 170.9C340.553 170.028 340.641 169.125 340.981 168.304C341.321 167.483 341.896 166.781 342.635 166.287C343.373 165.794 344.242 165.53 345.13 165.53C346.319 165.53 347.46 166.002 348.301 166.842C349.143 167.681 349.617 168.821 349.62 170.01Z" fill="url(#paint13_linear_428_242)"/>
<path d="M386.17 170.55C386.17 171.438 385.907 172.306 385.413 173.045C384.92 173.783 384.219 174.358 383.398 174.698C382.578 175.038 381.675 175.127 380.804 174.954C379.933 174.781 379.133 174.353 378.505 173.725C377.877 173.097 377.449 172.297 377.276 171.426C377.103 170.555 377.192 169.652 377.532 168.832C377.872 168.011 378.447 167.31 379.185 166.817C379.924 166.323 380.792 166.06 381.68 166.06C382.871 166.06 384.013 166.533 384.855 167.375C385.697 168.217 386.17 169.359 386.17 170.55Z" fill="url(#paint14_linear_428_242)"/>
<path d="M426.53 104.1C426.53 104.1 460.27 120.33 440.58 180.96L432.04 198.89" stroke="#222A72" stroke-width="3.03" stroke-miterlimit="10" stroke-linecap="round"/>
<path d="M435.995 209.5C439.412 206.083 439.412 200.543 435.995 197.126C432.578 193.709 427.038 193.709 423.621 197.126C420.204 200.543 420.204 206.083 423.621 209.5C427.038 212.917 432.578 212.917 435.995 209.5Z" fill="url(#paint15_linear_428_242)"/>
<path d="M434.562 206.887C436.968 204.481 436.968 200.581 434.562 198.175C432.157 195.77 428.256 195.77 425.851 198.175C423.445 200.581 423.445 204.481 425.851 206.887C428.256 209.293 432.157 209.293 434.562 206.887Z" fill="url(#paint16_linear_428_242)"/>
<path d="M436.545 203.251C438.951 200.845 438.951 196.945 436.545 194.539C434.14 192.133 430.239 192.133 427.834 194.539C425.428 196.945 425.428 200.845 427.834 203.251C430.239 205.656 434.14 205.656 436.545 203.251Z" fill="url(#paint17_linear_428_242)"/>
<path d="M267.62 340.96H141.75C140.982 340.96 140.221 340.808 139.512 340.513C138.803 340.219 138.159 339.786 137.617 339.242C137.075 338.697 136.646 338.051 136.355 337.34C136.064 336.63 135.916 335.868 135.92 335.1C135.92 333.554 136.534 332.071 137.628 330.978C138.721 329.884 140.204 329.27 141.75 329.27H267.62C269.166 329.27 270.649 329.884 271.742 330.978C272.836 332.071 273.45 333.554 273.45 335.1C273.454 335.868 273.306 336.63 273.015 337.34C272.724 338.051 272.295 338.697 271.753 339.242C271.211 339.786 270.567 340.219 269.858 340.513C269.149 340.808 268.388 340.96 267.62 340.96Z" fill="#68E1FD"/>
<path d="M205.62 335.1C205.621 335.866 205.472 336.625 205.179 337.333C204.886 338.041 204.457 338.684 203.915 339.225C203.374 339.767 202.731 340.196 202.023 340.489C201.315 340.781 200.556 340.931 199.79 340.93H0.620117V329.3H199.81C201.347 329.308 202.819 329.921 203.906 331.007C204.994 332.093 205.61 333.563 205.62 335.1Z" fill="#68E1FD"/>
<path d="M273.43 335.1C273.427 336.645 272.812 338.127 271.72 339.22C270.627 340.312 269.145 340.927 267.6 340.93H199.81C201.356 340.93 202.839 340.316 203.932 339.222C205.026 338.129 205.64 336.646 205.64 335.1C205.64 333.554 205.026 332.071 203.932 330.978C202.839 329.884 201.356 329.27 199.81 329.27H267.62C269.163 329.275 270.641 329.892 271.73 330.985C272.819 332.077 273.43 333.557 273.43 335.1Z" fill="url(#paint18_linear_428_242)"/>
<path d="M205.62 335.1C205.621 335.866 205.472 336.625 205.179 337.333C204.886 338.041 204.457 338.684 203.915 339.225C203.374 339.767 202.731 340.196 202.023 340.489C201.315 340.781 200.556 340.931 199.79 340.93H0.620117V329.3H199.81C201.347 329.308 202.819 329.921 203.906 331.007C204.994 332.093 205.61 333.563 205.62 335.1Z" fill="url(#paint19_linear_428_242)"/>
<path d="M141.75 340.96H265.53V479.49H141.75V340.96Z" fill="#68E1FD"/>
<path d="M141.75 340.96H265.53V479.49H141.75V340.96Z" fill="url(#paint20_linear_428_242)"/>
<path d="M0.629883 340.96H205.64V479.49H0.629883V340.96Z" fill="#68E1FD"/>
<path d="M333.79 559.65L334.22 551.96L348.52 553.24L346.62 564.77C346.62 564.77 339.55 575.66 333.79 559.65Z" fill="url(#paint21_linear_428_242)"/>
<path d="M417.74 565.91L417.2 555.59L402.54 555.45V568.39C402.54 568.39 411.98 581.92 417.74 565.91Z" fill="url(#paint22_linear_428_242)"/>
<path d="M333.79 559.65C333.79 559.65 306.79 572.96 303.61 577.8C301.516 581.336 299.981 585.175 299.06 589.18C299.06 589.18 315.57 589.47 325.82 586.05C336.07 582.63 348.52 578.93 348.52 578.93V561.28C348.52 561.28 348.31 559.22 345.32 561.57C342.33 563.92 339.32 566.12 336.67 564.57C334.02 563.02 335.39 559.54 333.79 559.65ZM418.44 563.67C418.44 563.67 442.07 578.36 444.84 583.41C446.671 587.093 447.925 591.036 448.56 595.1C448.56 595.1 432.07 594.19 422.1 590.04C412.13 585.89 399.97 581.29 399.97 581.29L401.25 563.69C401.25 563.69 401.61 561.69 404.42 564.2C407.23 566.71 412.42 569.72 415.21 568.39C418 567.06 416.85 563.44 418.44 563.67Z" fill="#68E1FD"/>
<path d="M333.79 559.65C333.79 559.65 306.79 572.96 303.61 577.8C301.516 581.336 299.981 585.175 299.06 589.18C299.06 589.18 315.57 589.47 325.82 586.05C336.07 582.63 348.52 578.93 348.52 578.93V561.28C348.52 561.28 348.31 559.22 345.32 561.57C342.33 563.92 339.32 566.12 336.67 564.57C334.02 563.02 335.39 559.54 333.79 559.65Z" fill="url(#paint23_linear_428_242)"/>
<path d="M418.44 563.67C418.44 563.67 442.07 578.36 444.84 583.41C446.67 587.093 447.925 591.036 448.56 595.1C448.56 595.1 432.07 594.19 422.1 590.04C412.13 585.89 399.97 581.29 399.97 581.29L401.25 563.69C401.25 563.69 401.61 561.69 404.42 564.2C407.23 566.71 412.42 569.72 415.21 568.39C418 567.06 416.85 563.44 418.44 563.67Z" fill="url(#paint24_linear_428_242)"/>
<path d="M206.45 329.1V329.29H96.8899C96.8899 329.29 112.89 276.66 161.57 278.29C162.52 278.29 163.45 278.37 164.35 278.44C209.38 281.73 207.12 324.7 206.45 329.1Z" fill="#68E1FD"/>
<path d="M206.45 329.1H178.45L178.66 326.33C178.66 326.33 187.2 285.33 164.36 278.48C209.38 281.73 207.12 324.7 206.45 329.1Z" fill="#68E1FD"/>
<path d="M206.45 329.1V329.29H96.8899C96.8899 329.29 112.89 276.66 161.57 278.29C162.52 278.29 163.45 278.37 164.35 278.44C209.38 281.73 207.12 324.7 206.45 329.1Z" fill="url(#paint25_linear_428_242)"/>
<path d="M206.45 329.1H178.45L178.66 326.33C178.66 326.33 187.2 285.33 164.36 278.48C209.38 281.73 207.12 324.7 206.45 329.1Z" fill="url(#paint26_linear_428_242)"/>
<defs>
<linearGradient id="paint0_linear_428_242" x1="545.48" y1="182.59" x2="566.01" y2="72.12" gradientUnits="userSpaceOnUse">
<stop stop-color="#ECC4D7"/>
<stop offset="0.42" stop-color="#EFD4D1"/>
<stop offset="1" stop-color="#F2EAC9"/>
</linearGradient>
<linearGradient id="paint1_linear_428_242" x1="311.4" y1="320.96" x2="353.63" y2="320.96" gradientUnits="userSpaceOnUse">
<stop offset="0.01" stop-color="white" stop-opacity="0"/>
<stop offset="0.13" stop-color="white" stop-opacity="0.17"/>
<stop offset="0.37" stop-color="white" stop-opacity="0.46"/>
<stop offset="0.59" stop-color="white" stop-opacity="0.68"/>
<stop offset="0.77" stop-color="white" stop-opacity="0.85"/>
<stop offset="0.91" stop-color="white" stop-opacity="0.95"/>
<stop offset="1" stop-color="white" stop-opacity="0.99"/>
</linearGradient>
<linearGradient id="paint2_linear_428_242" x1="474.64" y1="293.93" x2="433.37" y2="292.68" gradientUnits="userSpaceOnUse">
<stop offset="0.01" stop-color="white" stop-opacity="0"/>
<stop offset="0.13" stop-color="white" stop-opacity="0.17"/>
<stop offset="0.37" stop-color="white" stop-opacity="0.46"/>
<stop offset="0.59" stop-color="white" stop-opacity="0.68"/>
<stop offset="0.77" stop-color="white" stop-opacity="0.85"/>
<stop offset="0.91" stop-color="white" stop-opacity="0.95"/>
<stop offset="1" stop-color="white" stop-opacity="0.99"/>
</linearGradient>
<linearGradient id="paint3_linear_428_242" x1="415.83" y1="114.01" x2="487.57" y2="168.67" gradientUnits="userSpaceOnUse">
<stop stop-color="#ECC4D7"/>
<stop offset="0.42" stop-color="#EFD4D1"/>
<stop offset="1" stop-color="#F2EAC9"/>
</linearGradient>
<linearGradient id="paint4_linear_428_242" x1="452.23" y1="88.96" x2="376.59" y2="115.27" gradientUnits="userSpaceOnUse">
<stop stop-color="#183866"/>
<stop offset="1" stop-color="#1A7FC1"/>
</linearGradient>
<linearGradient id="paint5_linear_428_242" x1="379.15" y1="63.09" x2="447.86" y2="63.09" gradientUnits="userSpaceOnUse">
<stop stop-color="#ECC4D7"/>
<stop offset="0.42" stop-color="#EFD4D1"/>
<stop offset="1" stop-color="#F2EAC9"/>
</linearGradient>
<linearGradient id="paint6_linear_428_242" x1="391.19" y1="64.44" x2="381.37" y2="67.86" gradientUnits="userSpaceOnUse">
<stop stop-color="#183866"/>
<stop offset="1" stop-color="#1A7FC1"/>
</linearGradient>
<linearGradient id="paint7_linear_428_242" x1="340.07" y1="191.55" x2="411.4" y2="177.66" gradientUnits="userSpaceOnUse">
<stop offset="0.01" stop-color="white" stop-opacity="0"/>
<stop offset="0.13" stop-color="white" stop-opacity="0.17"/>
<stop offset="0.37" stop-color="white" stop-opacity="0.46"/>
<stop offset="0.59" stop-color="white" stop-opacity="0.68"/>
<stop offset="0.77" stop-color="white" stop-opacity="0.85"/>
<stop offset="0.91" stop-color="white" stop-opacity="0.95"/>
<stop offset="1" stop-color="white" stop-opacity="0.99"/>
</linearGradient>
<linearGradient id="paint8_linear_428_242" x1="444.38" y1="213.72" x2="381.31" y2="179.56" gradientUnits="userSpaceOnUse">
<stop offset="0.01" stop-color="white" stop-opacity="0"/>
<stop offset="0.13" stop-color="white" stop-opacity="0.17"/>
<stop offset="0.37" stop-color="white" stop-opacity="0.46"/>
<stop offset="0.59" stop-color="white" stop-opacity="0.68"/>
<stop offset="0.77" stop-color="white" stop-opacity="0.85"/>
<stop offset="0.91" stop-color="white" stop-opacity="0.95"/>
<stop offset="1" stop-color="white" stop-opacity="0.99"/>
</linearGradient>
<linearGradient id="paint9_linear_428_242" x1="319.34" y1="214.45" x2="345.23" y2="212.18" gradientUnits="userSpaceOnUse">
<stop offset="0.01" stop-color="white" stop-opacity="0"/>
<stop offset="0.13" stop-color="white" stop-opacity="0.17"/>
<stop offset="0.37" stop-color="white" stop-opacity="0.46"/>
<stop offset="0.59" stop-color="white" stop-opacity="0.68"/>
<stop offset="0.77" stop-color="white" stop-opacity="0.85"/>
<stop offset="0.91" stop-color="white" stop-opacity="0.95"/>
<stop offset="1" stop-color="white" stop-opacity="0.99"/>
</linearGradient>
<linearGradient id="paint10_linear_428_242" x1="342.4" y1="309.01" x2="349.72" y2="269.65" gradientUnits="userSpaceOnUse">
<stop stop-color="#ECC4D7"/>
<stop offset="0.42" stop-color="#EFD4D1"/>
<stop offset="1" stop-color="#F2EAC9"/>
</linearGradient>
<linearGradient id="paint11_linear_428_242" x1="348.39" y1="265.15" x2="345.92" y2="342.75" gradientUnits="userSpaceOnUse">
<stop offset="0.01" stop-color="white" stop-opacity="0"/>
<stop offset="0.13" stop-color="white" stop-opacity="0.17"/>
<stop offset="0.37" stop-color="white" stop-opacity="0.46"/>
<stop offset="0.59" stop-color="white" stop-opacity="0.68"/>
<stop offset="0.77" stop-color="white" stop-opacity="0.85"/>
<stop offset="0.91" stop-color="white" stop-opacity="0.95"/>
<stop offset="1" stop-color="white" stop-opacity="0.99"/>
</linearGradient>
<linearGradient id="paint12_linear_428_242" x1="437.17" y1="251.07" x2="431.39" y2="356.74" gradientUnits="userSpaceOnUse">
<stop offset="0.01" stop-color="white" stop-opacity="0"/>
<stop offset="0.13" stop-color="white" stop-opacity="0.17"/>
<stop offset="0.37" stop-color="white" stop-opacity="0.46"/>
<stop offset="0.59" stop-color="white" stop-opacity="0.68"/>
<stop offset="0.77" stop-color="white" stop-opacity="0.85"/>
<stop offset="0.91" stop-color="white" stop-opacity="0.95"/>
<stop offset="1" stop-color="white" stop-opacity="0.99"/>
</linearGradient>
<linearGradient id="paint13_linear_428_242" x1="340.62" y1="170.01" x2="349.59" y2="170.01" gradientUnits="userSpaceOnUse">
<stop stop-color="#68E1FD"/>
<stop offset="0.2" stop-color="#5DB4CF"/>
<stop offset="0.46" stop-color="#50819B"/>
<stop offset="0.69" stop-color="#475C76"/>
<stop offset="0.87" stop-color="#41455E"/>
<stop offset="0.99" stop-color="#3F3D56"/>
</linearGradient>
<linearGradient id="paint14_linear_428_242" x1="377.2" y1="170.55" x2="386.17" y2="170.55" gradientUnits="userSpaceOnUse">
<stop stop-color="#68E1FD"/>
<stop offset="0.2" stop-color="#5DB4CF"/>
<stop offset="0.46" stop-color="#50819B"/>
<stop offset="0.69" stop-color="#475C76"/>
<stop offset="0.87" stop-color="#41455E"/>
<stop offset="0.99" stop-color="#3F3D56"/>
</linearGradient>
<linearGradient id="paint15_linear_428_242" x1="421.062" y1="203.306" x2="438.572" y2="203.306" gradientUnits="userSpaceOnUse">
<stop stop-color="#68E1FD"/>
<stop offset="0.2" stop-color="#5DB4CF"/>
<stop offset="0.46" stop-color="#50819B"/>
<stop offset="0.69" stop-color="#475C76"/>
<stop offset="0.87" stop-color="#41455E"/>
<stop offset="0.99" stop-color="#3F3D56"/>
</linearGradient>
<linearGradient id="paint16_linear_428_242" x1="427.802" y1="202.529" x2="440.132" y2="202.529" gradientUnits="userSpaceOnUse">
<stop stop-color="#68E1FD"/>
<stop offset="0.2" stop-color="#5DB4CF"/>
<stop offset="0.46" stop-color="#50819B"/>
<stop offset="0.69" stop-color="#475C76"/>
<stop offset="0.87" stop-color="#41455E"/>
<stop offset="0.99" stop-color="#3F3D56"/>
</linearGradient>
<linearGradient id="paint17_linear_428_242" x1="439.363" y1="185.751" x2="423.283" y2="215.211" gradientUnits="userSpaceOnUse">
<stop stop-color="#68E1FD"/>
<stop offset="0.2" stop-color="#5DB4CF"/>
<stop offset="0.46" stop-color="#50819B"/>
<stop offset="0.69" stop-color="#475C76"/>
<stop offset="0.87" stop-color="#41455E"/>
<stop offset="0.99" stop-color="#3F3D56"/>
</linearGradient>
<linearGradient id="paint18_linear_428_242" x1="235.35" y1="324.08" x2="242.59" y2="402.78" gradientUnits="userSpaceOnUse">
<stop stop-opacity="0"/>
<stop offset="0.99"/>
</linearGradient>
<linearGradient id="paint19_linear_428_242" x1="104.27" y1="296.91" x2="97.7702" y2="499.26" gradientUnits="userSpaceOnUse">
<stop stop-opacity="0"/>
<stop offset="0.99"/>
</linearGradient>
<linearGradient id="paint20_linear_428_242" x1="160.91" y1="410.82" x2="536.1" y2="405.57" gradientUnits="userSpaceOnUse">
<stop stop-opacity="0"/>
<stop offset="0.99"/>
</linearGradient>
<linearGradient id="paint21_linear_428_242" x1="333.79" y1="560.17" x2="348.52" y2="560.17" gradientUnits="userSpaceOnUse">
<stop stop-color="#ECC4D7"/>
<stop offset="0.42" stop-color="#EFD4D1"/>
<stop offset="1" stop-color="#F2EAC9"/>
</linearGradient>
<linearGradient id="paint22_linear_428_242" x1="417.75" y1="564.59" x2="402.54" y2="564.59" gradientUnits="userSpaceOnUse">
<stop stop-color="#ECC4D7"/>
<stop offset="0.42" stop-color="#EFD4D1"/>
<stop offset="1" stop-color="#F2EAC9"/>
</linearGradient>
<linearGradient id="paint23_linear_428_242" x1="299.06" y1="574.42" x2="348.52" y2="574.42" gradientUnits="userSpaceOnUse">
<stop stop-opacity="0"/>
<stop offset="0.99"/>
</linearGradient>
<linearGradient id="paint24_linear_428_242" x1="399.97" y1="579.01" x2="448.56" y2="579.01" gradientUnits="userSpaceOnUse">
<stop stop-opacity="0"/>
<stop offset="0.99"/>
</linearGradient>
<linearGradient id="paint25_linear_428_242" x1="148.31" y1="281.7" x2="158.44" y2="410.21" gradientUnits="userSpaceOnUse">
<stop stop-opacity="0"/>
<stop offset="0.99"/>
</linearGradient>
<linearGradient id="paint26_linear_428_242" x1="220.02" y1="267.43" x2="-4.72013" y2="503.56" gradientUnits="userSpaceOnUse">
<stop stop-opacity="0"/>
<stop offset="0.99"/>
</linearGradient>
</defs>
</svg>
