<svg width="593" height="1024" viewBox="0 0 593 1024" fill="none" xmlns="http://www.w3.org/2000/svg">
<g clip-path="url(#clip0_2120_40871)">
<ellipse cx="274.5" cy="465" rx="393.5" ry="374" fill="white"/>
<rect width="593" height="1024" fill="#ECF6FF"/>
<ellipse cx="274.5" cy="606.5" rx="393.5" ry="411.5" fill="#0070D2" fill-opacity="0.08"/>
<ellipse cx="274.5" cy="960" rx="393.5" ry="374" fill="#ECF6FF"/>
<g clip-path="url(#clip1_2120_40871)">
<path d="M233.545 534.05C248.692 507.404 277.586 486.945 308.173 488.915C285.611 513.45 272.455 545.175 271.032 578.476C270.53 591.321 271.309 605.659 262.78 615.277C257.474 621.262 249.362 624.161 241.387 624.769C233.412 625.376 225.438 623.936 217.569 622.501L215.66 623.087C214.934 592.445 218.397 560.696 233.545 534.05Z" fill="#2BDFA2"/>
<path d="M308.219 489.557C285.601 500.445 266.314 518.63 254.475 540.808C251.915 545.603 249.736 550.69 248.785 556.068C247.834 561.449 248.499 566.571 250.336 571.682C252.017 576.354 254.276 580.938 254.791 585.937C255.334 591.207 253.396 596.134 249.906 600.044C245.636 604.828 239.901 607.793 234.192 610.497C227.854 613.5 221.223 616.518 216.734 622.122C216.19 622.801 215.168 621.918 215.711 621.24C223.522 611.49 236.892 609.657 246.163 601.803C250.489 598.138 253.737 593.147 253.532 587.299C253.353 582.185 251.027 577.456 249.285 572.74C247.455 567.788 246.543 562.809 247.199 557.53C247.87 552.129 249.855 546.947 252.281 542.107C257.752 531.194 265.239 521.174 273.816 512.513C283.673 502.557 295.161 494.361 307.782 488.278C308.563 487.902 308.995 489.183 308.219 489.557Z" fill="white"/>
<path d="M257.944 533.397C254.476 530.861 252.023 527.176 251.022 522.999C250.021 518.821 250.537 514.424 252.479 510.593C252.875 509.819 254.096 510.397 253.7 511.172C251.885 514.737 251.405 518.833 252.345 522.721C253.285 526.608 255.584 530.032 258.827 532.374C259.531 532.884 258.644 533.904 257.944 533.397Z" fill="white"/>
<path d="M249.174 569.425C257.862 568.156 265.753 563.658 271.273 556.829C271.819 556.152 272.841 557.035 272.296 557.711C266.538 564.807 258.317 569.471 249.273 570.773C248.41 570.896 248.316 569.548 249.174 569.425Z" fill="white"/>
<path d="M284.34 504.219C285.478 505.48 286.91 506.438 288.509 507.008C290.108 507.579 291.824 507.743 293.502 507.486C294.363 507.351 294.456 508.7 293.601 508.833C291.746 509.108 289.851 508.925 288.083 508.299C286.315 507.673 284.727 506.623 283.458 505.242C283.327 505.122 283.247 504.956 283.234 504.78C283.221 504.603 283.276 504.427 283.388 504.289C283.505 504.155 283.671 504.072 283.85 504.058C284.028 504.045 284.204 504.103 284.34 504.219Z" fill="white"/>
<path d="M369.031 572.974C368.496 573.073 367.962 573.172 367.422 573.282C360.24 574.652 353.181 576.603 346.315 579.116C345.781 579.302 345.243 579.498 344.715 579.699C328.238 585.93 313.061 595.167 299.955 606.938C294.744 611.627 289.898 616.706 285.458 622.13C279.326 629.622 273.274 638.233 265.261 643.117C264.431 643.636 263.569 644.103 262.681 644.516L216.523 625.37C216.44 625.274 216.352 625.188 216.269 625.092L214.391 624.411C214.6 624.116 214.824 623.813 215.033 623.518C215.154 623.346 215.285 623.178 215.406 623.006C215.49 622.892 215.574 622.779 215.643 622.672C215.671 622.634 215.699 622.597 215.722 622.569C215.792 622.462 215.867 622.37 215.932 622.274C217.177 620.581 218.436 618.894 219.71 617.212C219.714 617.202 219.714 617.202 219.729 617.196C229.464 604.41 240.351 592.325 252.727 582.276C253.1 581.974 253.476 581.661 253.87 581.367C259.473 576.869 265.435 572.836 271.696 569.309C275.13 567.389 278.66 565.643 282.271 564.08C291.608 560.058 301.52 557.53 311.644 556.589C331.824 554.715 352.38 559.316 367.858 571.994C368.254 572.318 368.64 572.639 369.031 572.974Z" fill="#2BDFA2"/>
<path d="M368.685 573.516C344.07 568.592 317.722 571.5 294.916 582.08C289.986 584.367 285.183 587.117 281.186 590.839C277.187 594.562 274.633 599.052 273.024 604.239C271.553 608.981 270.597 614.002 267.998 618.303C265.259 622.838 260.745 625.604 255.604 626.625C249.314 627.874 242.95 626.789 236.764 625.511C229.896 624.093 222.784 622.51 215.825 624.282C214.982 624.496 214.698 623.176 215.54 622.961C227.647 619.879 239.425 626.465 251.557 625.776C257.218 625.455 262.816 623.425 266.173 618.632C269.109 614.442 270.099 609.265 271.547 604.451C273.068 599.396 275.337 594.871 279.039 591.051C282.827 587.143 287.532 584.2 292.382 581.796C303.321 576.376 315.332 572.884 327.395 571.132C341.259 569.118 355.366 569.49 369.105 572.232C369.956 572.402 369.53 573.685 368.685 573.516Z" fill="white"/>
<path d="M302.149 578.25C300.907 574.138 301.167 569.719 302.882 565.781C304.598 561.842 307.658 558.643 311.515 556.752C312.297 556.372 312.924 557.569 312.141 557.95C308.546 559.703 305.696 562.684 304.106 566.355C302.516 570.025 302.29 574.143 303.469 577.965C303.724 578.796 302.402 579.076 302.149 578.25Z" fill="white"/>
<path d="M273.454 601.737C281.156 605.954 290.164 607.114 298.683 604.984C299.527 604.773 299.811 606.093 298.968 606.305C290.099 608.504 280.727 607.278 272.722 602.872C271.959 602.451 272.696 601.318 273.454 601.737Z" fill="white"/>
<path d="M340.791 570.847C340.94 572.538 341.507 574.166 342.44 575.584C343.374 577.002 344.645 578.166 346.14 578.971C346.907 579.382 346.17 580.514 345.407 580.106C343.76 579.209 342.358 577.922 341.323 576.357C340.288 574.793 339.652 572.999 339.47 571.132C339.438 570.957 339.474 570.777 339.57 570.628C339.667 570.479 339.816 570.372 339.988 570.329C340.163 570.292 340.346 570.326 340.496 570.423C340.646 570.52 340.752 570.672 340.791 570.847Z" fill="white"/>
<path d="M281.104 604.56C274.639 573.304 266.559 562.883 266.559 562.883L263.472 560.489L259.76 557.605L259.778 557.235L258.897 556.935L258.69 556.775L258.351 556.514L258.297 556.573L258.182 556.692L241.383 550.982L220.072 543.743L210.203 530.916C208.596 528.827 206.526 527.138 204.157 525.983C201.788 524.827 199.184 524.236 196.548 524.255L165.031 524.489C160.769 524.52 156.673 526.145 153.549 529.043L132.833 548.258L100.554 563.675L100.499 563.62L100.16 563.862L95.1728 566.247L95.3786 567.318L92.2917 569.546C92.2917 569.546 84.2113 579.242 77.7469 608.326C76.1025 615.726 75.293 631.601 75.0008 651.162C74.9861 652.152 75.1683 653.134 75.5368 654.053C75.9053 654.971 76.4527 655.807 77.1471 656.512C77.8416 657.217 78.6693 657.777 79.5822 658.16C80.495 658.542 81.4747 658.739 82.4644 658.739H254.875L276.394 658.739C277.383 658.739 278.362 658.542 279.274 658.16C280.186 657.778 281.014 657.219 281.708 656.515C282.402 655.811 282.95 654.975 283.319 654.058C283.688 653.14 283.871 652.159 283.858 651.17C283.572 629.884 282.763 612.585 281.104 604.56Z" fill="#3F3D56"/>
<path d="M303.225 392.258C296.518 392.258 290.084 394.922 285.341 399.666C280.598 404.409 277.934 410.842 277.934 417.55C277.934 424.257 280.598 430.69 285.341 435.433C290.084 440.177 296.518 442.841 303.225 442.841H491.709C498.417 442.841 504.85 440.177 509.593 435.433C514.336 430.69 517.001 424.257 517.001 417.55C517.001 410.842 514.336 404.409 509.593 399.666C504.85 394.922 498.417 392.258 491.709 392.258H303.225Z" fill="#E5E5E5"/>
<path d="M303.224 397.377C297.874 397.377 292.743 399.502 288.959 403.286C285.176 407.069 283.051 412.2 283.051 417.55C283.051 422.9 285.176 428.031 288.959 431.815C292.743 435.598 297.874 437.723 303.224 437.723H491.707C497.058 437.723 502.189 435.598 505.972 431.815C509.755 428.031 511.881 422.9 511.881 417.55C511.881 412.2 509.755 407.069 505.972 403.286C502.189 399.502 497.058 397.377 491.707 397.377H303.224Z" fill="white"/>
<path d="M185.738 512.416C208.542 512.416 227.029 493.929 227.029 471.125C227.029 448.321 208.542 429.834 185.738 429.834C162.934 429.834 144.447 448.321 144.447 471.125C144.447 493.929 162.934 512.416 185.738 512.416Z" fill="#FFB8B8"/>
<path d="M175.176 510.394C175 510.005 174.824 509.616 174.648 509.225C174.716 509.227 174.783 509.236 174.851 509.238L175.176 510.394Z" fill="#2F2E41"/>
<path d="M143.3 431.711C145.388 430.045 147.829 428.512 150.499 428.598C153.169 428.684 155.877 431.096 155.323 433.71C160.228 425.026 168.034 418.347 177.372 414.846C186.71 411.344 196.983 411.244 206.387 414.562C213.023 416.903 219.531 421.587 221.056 428.457C221.447 430.221 221.531 432.154 222.632 433.586C224.02 435.392 226.677 435.8 228.864 435.165C228.886 435.159 228.908 435.152 228.93 435.146C229.299 435.02 229.698 435.007 230.075 435.11C230.451 435.213 230.788 435.427 231.042 435.724C231.296 436.02 231.455 436.386 231.499 436.774C231.542 437.162 231.469 437.554 231.287 437.9L229.409 441.402C231.776 441.929 234.236 441.877 236.578 441.249C236.967 441.147 237.378 441.168 237.755 441.309C238.132 441.45 238.456 441.704 238.683 442.036C238.909 442.368 239.028 442.763 239.022 443.165C239.015 443.567 238.885 443.958 238.648 444.283C232.456 452.783 222.113 458.273 211.557 458.208C204.054 458.162 196.475 455.577 189.173 457.302C186.349 457.969 183.709 459.261 181.449 461.081C179.188 462.902 177.364 465.205 176.11 467.823C174.856 470.44 174.204 473.305 174.201 476.208C174.199 479.11 174.846 481.976 176.096 484.596C173.853 482.143 169.517 482.723 167.222 485.129C164.928 487.535 164.334 491.125 164.565 494.441C164.919 499.513 166.906 504.293 169.001 508.944C151.436 508.391 134.823 496.07 129.231 479.405C123.615 462.67 129.501 442.719 143.3 431.711Z" fill="#2F2E41"/>
<path opacity="0.2" d="M115.641 595.124L127.222 658.135L134.171 658.74L115.641 595.124Z" fill="black"/>
<path opacity="0.2" d="M243.21 590.372L231.629 658.09L224.68 658.74L243.21 590.372Z" fill="black"/>
<path d="M153.178 410.505C150.957 411.432 148.64 410.416 147.668 408.089C146.682 405.726 147.603 403.328 149.859 402.386C152.116 401.444 154.391 402.462 155.394 404.863C156.381 407.228 155.47 409.548 153.178 410.505ZM148.924 397.735L147.159 398.473C146.717 398.655 146.224 398.664 145.776 398.5C145.328 398.336 144.958 398.009 144.739 397.585L144.652 397.414C142.752 393.988 142.535 389.824 144.009 385.045C145.375 380.757 145.942 377.742 144.801 375.01C143.482 371.852 140.666 370.862 137.075 372.295C135.682 372.877 135.239 372.868 134.142 373.955C133.904 374.195 133.62 374.384 133.307 374.511C132.994 374.638 132.658 374.701 132.32 374.696C131.994 374.692 131.671 374.622 131.372 374.491C131.073 374.36 130.803 374.17 130.579 373.932C130.147 373.474 129.906 372.869 129.902 372.24C129.899 371.611 130.135 371.004 130.562 370.541C132.405 368.613 134.627 367.087 137.089 366.06C144.805 362.838 148.689 367.595 150.467 371.852C152.206 376.016 151.228 379.879 149.656 384.883C148.339 389.04 148.416 392.121 149.912 395.184C150.02 395.416 150.08 395.667 150.088 395.922C150.097 396.177 150.054 396.432 149.962 396.67C149.869 396.908 149.73 397.126 149.552 397.309C149.373 397.492 149.16 397.637 148.924 397.735Z" fill="#0070D2"/>
<path d="M344.858 429.612H307.357C307.238 429.613 307.119 429.59 307.009 429.545C306.899 429.5 306.799 429.434 306.714 429.35C306.629 429.266 306.562 429.166 306.517 429.056C306.471 428.946 306.447 428.828 306.447 428.709C306.447 428.59 306.471 428.472 306.517 428.362C306.562 428.252 306.629 428.152 306.714 428.068C306.799 427.984 306.899 427.918 307.009 427.873C307.119 427.828 307.238 427.805 307.357 427.806H344.858C345.096 427.807 345.325 427.903 345.493 428.072C345.661 428.242 345.755 428.47 345.755 428.709C345.755 428.947 345.661 429.176 345.493 429.346C345.325 429.515 345.096 429.611 344.858 429.612Z" fill="#0070D2"/>
<path d="M392.43 429.913H354.929C354.81 429.914 354.692 429.891 354.581 429.846C354.471 429.801 354.371 429.735 354.286 429.651C354.202 429.567 354.135 429.467 354.089 429.357C354.043 429.247 354.02 429.129 354.02 429.01C354.02 428.891 354.043 428.773 354.089 428.663C354.135 428.553 354.202 428.453 354.286 428.369C354.371 428.285 354.471 428.218 354.581 428.173C354.692 428.128 354.81 428.106 354.929 428.106H392.43C392.549 428.106 392.667 428.128 392.778 428.173C392.888 428.218 392.988 428.285 393.073 428.369C393.157 428.453 393.225 428.553 393.27 428.663C393.316 428.773 393.34 428.891 393.34 429.01C393.34 429.129 393.316 429.247 393.27 429.357C393.225 429.467 393.157 429.567 393.073 429.651C392.988 429.735 392.888 429.801 392.778 429.846C392.667 429.891 392.549 429.914 392.43 429.913Z" fill="#0070D2"/>
<path d="M440.004 430.214H402.503C402.264 430.212 402.036 430.116 401.868 429.947C401.7 429.778 401.605 429.549 401.605 429.311C401.605 429.072 401.7 428.843 401.868 428.674C402.036 428.505 402.264 428.409 402.503 428.407H440.004C440.123 428.406 440.241 428.429 440.351 428.474C440.462 428.519 440.562 428.586 440.647 428.67C440.731 428.754 440.798 428.853 440.844 428.963C440.89 429.073 440.913 429.191 440.913 429.311C440.913 429.43 440.89 429.548 440.844 429.658C440.798 429.768 440.731 429.867 440.647 429.951C440.562 430.035 440.462 430.102 440.351 430.147C440.241 430.192 440.123 430.215 440.004 430.214Z" fill="#0070D2"/>
<path d="M487.576 430.516H450.075C449.836 430.514 449.608 430.418 449.44 430.249C449.272 430.08 449.178 429.851 449.178 429.612C449.178 429.374 449.272 429.145 449.44 428.976C449.608 428.806 449.836 428.711 450.075 428.709H487.576C487.815 428.711 488.043 428.806 488.211 428.976C488.379 429.145 488.473 429.374 488.473 429.612C488.473 429.851 488.379 430.08 488.211 430.249C488.043 430.418 487.815 430.514 487.576 430.516Z" fill="#0070D2"/>
<path d="M326.025 421.299C329.874 421.299 332.994 418.179 332.994 414.329C332.994 410.48 329.874 407.359 326.025 407.359C322.175 407.359 319.055 410.48 319.055 414.329C319.055 418.179 322.175 421.299 326.025 421.299Z" fill="#0070D2"/>
<path d="M373.886 421.299C377.735 421.299 380.856 418.179 380.856 414.329C380.856 410.48 377.735 407.359 373.886 407.359C370.037 407.359 366.916 410.48 366.916 414.329C366.916 418.179 370.037 421.299 373.886 421.299Z" fill="#0070D2"/>
<path d="M421.745 421.299C425.595 421.299 428.715 418.179 428.715 414.329C428.715 410.48 425.595 407.359 421.745 407.359C417.896 407.359 414.775 410.48 414.775 414.329C414.775 418.179 417.896 421.299 421.745 421.299Z" fill="#0070D2"/>
<path d="M469.605 421.299C473.454 421.299 476.575 418.179 476.575 414.329C476.575 410.48 473.454 407.359 469.605 407.359C465.755 407.359 462.635 410.48 462.635 414.329C462.635 418.179 465.755 421.299 469.605 421.299Z" fill="#0070D2"/>
</g>
<path d="M-22.2581 97.871C-22.2581 100.009 -23.9912 101.742 -26.129 101.742C-28.2669 101.742 -30 100.009 -30 97.871C-30 95.7331 -28.2669 94 -26.129 94C-23.9912 94 -22.2581 95.7331 -22.2581 97.871Z" fill="#D9EBFB"/>
<path d="M-4.19355 97.871C-4.19355 100.009 -5.92664 101.742 -8.06451 101.742C-10.2024 101.742 -11.9355 100.009 -11.9355 97.871C-11.9355 95.7331 -10.2024 94 -8.06451 94C-5.92664 94 -4.19355 95.7331 -4.19355 97.871Z" fill="#D9EBFB"/>
<path d="M13.871 97.871C13.871 100.009 12.1379 101.742 10 101.742C7.86213 101.742 6.12903 100.009 6.12903 97.871C6.12903 95.7331 7.86213 94 10 94C12.1379 94 13.871 95.7331 13.871 97.871Z" fill="#D9EBFB"/>
<path d="M31.9355 97.871C31.9355 100.009 30.2024 101.742 28.0645 101.742C25.9266 101.742 24.1936 100.009 24.1936 97.871C24.1936 95.7331 25.9266 94 28.0645 94C30.2024 94 31.9355 95.7331 31.9355 97.871Z" fill="#D9EBFB"/>
<path d="M50 97.871C50 100.009 48.2669 101.742 46.129 101.742C43.9912 101.742 42.2581 100.009 42.2581 97.871C42.2581 95.7331 43.9912 94 46.129 94C48.2669 94 50 95.7331 50 97.871Z" fill="#D9EBFB"/>
<path d="M68.0645 97.871C68.0645 100.009 66.3314 101.742 64.1936 101.742C62.0557 101.742 60.3226 100.009 60.3226 97.871C60.3226 95.7331 62.0557 94 64.1936 94C66.3314 94 68.0645 95.7331 68.0645 97.871Z" fill="#D9EBFB"/>
<path d="M86.129 97.871C86.129 100.009 84.3959 101.742 82.2581 101.742C80.1202 101.742 78.3871 100.009 78.3871 97.871C78.3871 95.7331 80.1202 94 82.2581 94C84.3959 94 86.129 95.7331 86.129 97.871Z" fill="#D9EBFB"/>
<path d="M-22.2581 115.935C-22.2581 118.073 -23.9912 119.806 -26.129 119.806C-28.2669 119.806 -30 118.073 -30 115.935C-30 113.798 -28.2669 112.065 -26.129 112.065C-23.9912 112.065 -22.2581 113.798 -22.2581 115.935Z" fill="#D9EBFB"/>
<path d="M-4.19355 115.935C-4.19355 118.073 -5.92664 119.806 -8.06451 119.806C-10.2024 119.806 -11.9355 118.073 -11.9355 115.935C-11.9355 113.798 -10.2024 112.065 -8.06451 112.065C-5.92664 112.065 -4.19355 113.798 -4.19355 115.935Z" fill="#D9EBFB"/>
<path d="M13.871 115.935C13.871 118.073 12.1379 119.806 10 119.806C7.86213 119.806 6.12903 118.073 6.12903 115.935C6.12903 113.798 7.86213 112.065 10 112.065C12.1379 112.065 13.871 113.798 13.871 115.935Z" fill="#D9EBFB"/>
<path d="M31.9355 115.935C31.9355 118.073 30.2024 119.806 28.0645 119.806C25.9266 119.806 24.1936 118.073 24.1936 115.935C24.1936 113.798 25.9266 112.065 28.0645 112.065C30.2024 112.065 31.9355 113.798 31.9355 115.935Z" fill="#D9EBFB"/>
<path d="M50 115.935C50 118.073 48.2669 119.806 46.129 119.806C43.9912 119.806 42.2581 118.073 42.2581 115.935C42.2581 113.798 43.9912 112.065 46.129 112.065C48.2669 112.065 50 113.798 50 115.935Z" fill="#D9EBFB"/>
<path d="M68.0645 115.935C68.0645 118.073 66.3314 119.806 64.1936 119.806C62.0557 119.806 60.3226 118.073 60.3226 115.935C60.3226 113.798 62.0557 112.065 64.1936 112.065C66.3314 112.065 68.0645 113.798 68.0645 115.935Z" fill="#D9EBFB"/>
<path d="M86.129 115.935C86.129 118.073 84.3959 119.806 82.2581 119.806C80.1202 119.806 78.3871 118.073 78.3871 115.935C78.3871 113.798 80.1202 112.065 82.2581 112.065C84.3959 112.065 86.129 113.798 86.129 115.935Z" fill="#D9EBFB"/>
<path d="M-22.2581 134C-22.2581 136.138 -23.9912 137.871 -26.129 137.871C-28.2669 137.871 -30 136.138 -30 134C-30 131.862 -28.2669 130.129 -26.129 130.129C-23.9912 130.129 -22.2581 131.862 -22.2581 134Z" fill="#D9EBFB"/>
<path d="M-4.19355 134C-4.19355 136.138 -5.92664 137.871 -8.06451 137.871C-10.2024 137.871 -11.9355 136.138 -11.9355 134C-11.9355 131.862 -10.2024 130.129 -8.06451 130.129C-5.92664 130.129 -4.19355 131.862 -4.19355 134Z" fill="#D9EBFB"/>
<path d="M13.871 134C13.871 136.138 12.1379 137.871 10 137.871C7.86213 137.871 6.12903 136.138 6.12903 134C6.12903 131.862 7.86213 130.129 10 130.129C12.1379 130.129 13.871 131.862 13.871 134Z" fill="#D9EBFB"/>
<path d="M31.9355 134C31.9355 136.138 30.2024 137.871 28.0645 137.871C25.9266 137.871 24.1936 136.138 24.1936 134C24.1936 131.862 25.9266 130.129 28.0645 130.129C30.2024 130.129 31.9355 131.862 31.9355 134Z" fill="#D9EBFB"/>
<path d="M50 134C50 136.138 48.2669 137.871 46.129 137.871C43.9912 137.871 42.2581 136.138 42.2581 134C42.2581 131.862 43.9912 130.129 46.129 130.129C48.2669 130.129 50 131.862 50 134Z" fill="#D9EBFB"/>
<path d="M68.0645 134C68.0645 136.138 66.3314 137.871 64.1936 137.871C62.0557 137.871 60.3226 136.138 60.3226 134C60.3226 131.862 62.0557 130.129 64.1936 130.129C66.3314 130.129 68.0645 131.862 68.0645 134Z" fill="#D9EBFB"/>
<path d="M86.129 134C86.129 136.138 84.3959 137.871 82.2581 137.871C80.1202 137.871 78.3871 136.138 78.3871 134C78.3871 131.862 80.1202 130.129 82.2581 130.129C84.3959 130.129 86.129 131.862 86.129 134Z" fill="#D9EBFB"/>
<path d="M-22.2581 152.065C-22.2581 154.202 -23.9912 155.935 -26.129 155.935C-28.2669 155.935 -30 154.202 -30 152.065C-30 149.927 -28.2669 148.194 -26.129 148.194C-23.9912 148.194 -22.2581 149.927 -22.2581 152.065Z" fill="#D9EBFB"/>
<path d="M-4.19355 152.065C-4.19355 154.202 -5.92664 155.935 -8.06451 155.935C-10.2024 155.935 -11.9355 154.202 -11.9355 152.065C-11.9355 149.927 -10.2024 148.194 -8.06451 148.194C-5.92664 148.194 -4.19355 149.927 -4.19355 152.065Z" fill="#D9EBFB"/>
<path d="M13.871 152.065C13.871 154.202 12.1379 155.935 10 155.935C7.86213 155.935 6.12903 154.202 6.12903 152.065C6.12903 149.927 7.86213 148.194 10 148.194C12.1379 148.194 13.871 149.927 13.871 152.065Z" fill="#D9EBFB"/>
<path d="M31.9355 152.065C31.9355 154.202 30.2024 155.935 28.0645 155.935C25.9266 155.935 24.1936 154.202 24.1936 152.065C24.1936 149.927 25.9266 148.194 28.0645 148.194C30.2024 148.194 31.9355 149.927 31.9355 152.065Z" fill="#D9EBFB"/>
<path d="M50 152.065C50 154.202 48.2669 155.935 46.129 155.935C43.9912 155.935 42.2581 154.202 42.2581 152.065C42.2581 149.927 43.9912 148.194 46.129 148.194C48.2669 148.194 50 149.927 50 152.065Z" fill="#D9EBFB"/>
<path d="M68.0645 152.065C68.0645 154.202 66.3314 155.935 64.1936 155.935C62.0557 155.935 60.3226 154.202 60.3226 152.065C60.3226 149.927 62.0557 148.194 64.1936 148.194C66.3314 148.194 68.0645 149.927 68.0645 152.065Z" fill="#D9EBFB"/>
<path d="M86.129 152.065C86.129 154.202 84.3959 155.935 82.2581 155.935C80.1202 155.935 78.3871 154.202 78.3871 152.065C78.3871 149.927 80.1202 148.194 82.2581 148.194C84.3959 148.194 86.129 149.927 86.129 152.065Z" fill="#D9EBFB"/>
<path d="M-22.2581 170.129C-22.2581 172.267 -23.9912 174 -26.129 174C-28.2669 174 -30 172.267 -30 170.129C-30 167.991 -28.2669 166.258 -26.129 166.258C-23.9912 166.258 -22.2581 167.991 -22.2581 170.129Z" fill="#D9EBFB"/>
<path d="M-4.19355 170.129C-4.19355 172.267 -5.92664 174 -8.06451 174C-10.2024 174 -11.9355 172.267 -11.9355 170.129C-11.9355 167.991 -10.2024 166.258 -8.06451 166.258C-5.92664 166.258 -4.19355 167.991 -4.19355 170.129Z" fill="#D9EBFB"/>
<path d="M13.871 170.129C13.871 172.267 12.1379 174 10 174C7.86213 174 6.12903 172.267 6.12903 170.129C6.12903 167.991 7.86213 166.258 10 166.258C12.1379 166.258 13.871 167.991 13.871 170.129Z" fill="#D9EBFB"/>
<path d="M31.9355 170.129C31.9355 172.267 30.2024 174 28.0645 174C25.9266 174 24.1936 172.267 24.1936 170.129C24.1936 167.991 25.9266 166.258 28.0645 166.258C30.2024 166.258 31.9355 167.991 31.9355 170.129Z" fill="#D9EBFB"/>
<path d="M50 170.129C50 172.267 48.2669 174 46.129 174C43.9912 174 42.2581 172.267 42.2581 170.129C42.2581 167.991 43.9912 166.258 46.129 166.258C48.2669 166.258 50 167.991 50 170.129Z" fill="#D9EBFB"/>
<path d="M68.0645 170.129C68.0645 172.267 66.3314 174 64.1936 174C62.0557 174 60.3226 172.267 60.3226 170.129C60.3226 167.991 62.0557 166.258 64.1936 166.258C66.3314 166.258 68.0645 167.991 68.0645 170.129Z" fill="#D9EBFB"/>
<path d="M86.129 170.129C86.129 172.267 84.3959 174 82.2581 174C80.1202 174 78.3871 172.267 78.3871 170.129C78.3871 167.991 80.1202 166.258 82.2581 166.258C84.3959 166.258 86.129 167.991 86.129 170.129Z" fill="#D9EBFB"/>
<path d="M519.742 861.871C519.742 864.009 518.009 865.742 515.871 865.742C513.733 865.742 512 864.009 512 861.871C512 859.733 513.733 858 515.871 858C518.009 858 519.742 859.733 519.742 861.871Z" fill="#FEBDBD"/>
<path d="M537.806 861.871C537.806 864.009 536.073 865.742 533.935 865.742C531.798 865.742 530.065 864.009 530.065 861.871C530.065 859.733 531.798 858 533.935 858C536.073 858 537.806 859.733 537.806 861.871Z" fill="#FEBDBD"/>
<path d="M555.871 861.871C555.871 864.009 554.138 865.742 552 865.742C549.862 865.742 548.129 864.009 548.129 861.871C548.129 859.733 549.862 858 552 858C554.138 858 555.871 859.733 555.871 861.871Z" fill="#FEBDBD"/>
<path d="M573.935 861.871C573.935 864.009 572.202 865.742 570.065 865.742C567.927 865.742 566.194 864.009 566.194 861.871C566.194 859.733 567.927 858 570.065 858C572.202 858 573.935 859.733 573.935 861.871Z" fill="#FEBDBD"/>
<path d="M592 861.871C592 864.009 590.267 865.742 588.129 865.742C585.991 865.742 584.258 864.009 584.258 861.871C584.258 859.733 585.991 858 588.129 858C590.267 858 592 859.733 592 861.871Z" fill="#FEBDBD"/>
<path d="M610.065 861.871C610.065 864.009 608.331 865.742 606.194 865.742C604.056 865.742 602.323 864.009 602.323 861.871C602.323 859.733 604.056 858 606.194 858C608.331 858 610.065 859.733 610.065 861.871Z" fill="#FEBDBD"/>
<path d="M628.129 861.871C628.129 864.009 626.396 865.742 624.258 865.742C622.12 865.742 620.387 864.009 620.387 861.871C620.387 859.733 622.12 858 624.258 858C626.396 858 628.129 859.733 628.129 861.871Z" fill="#FEBDBD"/>
<path d="M519.742 879.935C519.742 882.073 518.009 883.806 515.871 883.806C513.733 883.806 512 882.073 512 879.935C512 877.798 513.733 876.065 515.871 876.065C518.009 876.065 519.742 877.798 519.742 879.935Z" fill="#FEBDBD"/>
<path d="M537.806 879.935C537.806 882.073 536.073 883.806 533.935 883.806C531.798 883.806 530.065 882.073 530.065 879.935C530.065 877.798 531.798 876.065 533.935 876.065C536.073 876.065 537.806 877.798 537.806 879.935Z" fill="#FEBDBD"/>
<path d="M555.871 879.935C555.871 882.073 554.138 883.806 552 883.806C549.862 883.806 548.129 882.073 548.129 879.935C548.129 877.798 549.862 876.065 552 876.065C554.138 876.065 555.871 877.798 555.871 879.935Z" fill="#FEBDBD"/>
<path d="M573.935 879.935C573.935 882.073 572.202 883.806 570.065 883.806C567.927 883.806 566.194 882.073 566.194 879.935C566.194 877.798 567.927 876.065 570.065 876.065C572.202 876.065 573.935 877.798 573.935 879.935Z" fill="#FEBDBD"/>
<path d="M592 879.935C592 882.073 590.267 883.806 588.129 883.806C585.991 883.806 584.258 882.073 584.258 879.935C584.258 877.798 585.991 876.065 588.129 876.065C590.267 876.065 592 877.798 592 879.935Z" fill="#FEBDBD"/>
<path d="M610.065 879.935C610.065 882.073 608.331 883.806 606.194 883.806C604.056 883.806 602.323 882.073 602.323 879.935C602.323 877.798 604.056 876.065 606.194 876.065C608.331 876.065 610.065 877.798 610.065 879.935Z" fill="#FEBDBD"/>
<path d="M628.129 879.935C628.129 882.073 626.396 883.806 624.258 883.806C622.12 883.806 620.387 882.073 620.387 879.935C620.387 877.798 622.12 876.065 624.258 876.065C626.396 876.065 628.129 877.798 628.129 879.935Z" fill="#FEBDBD"/>
<path d="M519.742 898C519.742 900.138 518.009 901.871 515.871 901.871C513.733 901.871 512 900.138 512 898C512 895.862 513.733 894.129 515.871 894.129C518.009 894.129 519.742 895.862 519.742 898Z" fill="#FEBDBD"/>
<path d="M537.806 898C537.806 900.138 536.073 901.871 533.935 901.871C531.798 901.871 530.065 900.138 530.065 898C530.065 895.862 531.798 894.129 533.935 894.129C536.073 894.129 537.806 895.862 537.806 898Z" fill="#FEBDBD"/>
<path d="M555.871 898C555.871 900.138 554.138 901.871 552 901.871C549.862 901.871 548.129 900.138 548.129 898C548.129 895.862 549.862 894.129 552 894.129C554.138 894.129 555.871 895.862 555.871 898Z" fill="#FEBDBD"/>
<path d="M573.935 898C573.935 900.138 572.202 901.871 570.065 901.871C567.927 901.871 566.194 900.138 566.194 898C566.194 895.862 567.927 894.129 570.065 894.129C572.202 894.129 573.935 895.862 573.935 898Z" fill="#FEBDBD"/>
<path d="M592 898C592 900.138 590.267 901.871 588.129 901.871C585.991 901.871 584.258 900.138 584.258 898C584.258 895.862 585.991 894.129 588.129 894.129C590.267 894.129 592 895.862 592 898Z" fill="#FEBDBD"/>
<path d="M610.065 898C610.065 900.138 608.331 901.871 606.194 901.871C604.056 901.871 602.323 900.138 602.323 898C602.323 895.862 604.056 894.129 606.194 894.129C608.331 894.129 610.065 895.862 610.065 898Z" fill="#FEBDBD"/>
<path d="M628.129 898C628.129 900.138 626.396 901.871 624.258 901.871C622.12 901.871 620.387 900.138 620.387 898C620.387 895.862 622.12 894.129 624.258 894.129C626.396 894.129 628.129 895.862 628.129 898Z" fill="#FEBDBD"/>
<path d="M519.742 916.065C519.742 918.202 518.009 919.935 515.871 919.935C513.733 919.935 512 918.202 512 916.065C512 913.927 513.733 912.194 515.871 912.194C518.009 912.194 519.742 913.927 519.742 916.065Z" fill="#FEBDBD"/>
<path d="M537.806 916.065C537.806 918.202 536.073 919.935 533.935 919.935C531.798 919.935 530.065 918.202 530.065 916.065C530.065 913.927 531.798 912.194 533.935 912.194C536.073 912.194 537.806 913.927 537.806 916.065Z" fill="#FEBDBD"/>
<path d="M555.871 916.065C555.871 918.202 554.138 919.935 552 919.935C549.862 919.935 548.129 918.202 548.129 916.065C548.129 913.927 549.862 912.194 552 912.194C554.138 912.194 555.871 913.927 555.871 916.065Z" fill="#FEBDBD"/>
<path d="M573.935 916.065C573.935 918.202 572.202 919.935 570.065 919.935C567.927 919.935 566.194 918.202 566.194 916.065C566.194 913.927 567.927 912.194 570.065 912.194C572.202 912.194 573.935 913.927 573.935 916.065Z" fill="#FEBDBD"/>
<path d="M592 916.065C592 918.202 590.267 919.935 588.129 919.935C585.991 919.935 584.258 918.202 584.258 916.065C584.258 913.927 585.991 912.194 588.129 912.194C590.267 912.194 592 913.927 592 916.065Z" fill="#FEBDBD"/>
<path d="M610.065 916.065C610.065 918.202 608.331 919.935 606.194 919.935C604.056 919.935 602.323 918.202 602.323 916.065C602.323 913.927 604.056 912.194 606.194 912.194C608.331 912.194 610.065 913.927 610.065 916.065Z" fill="#FEBDBD"/>
<path d="M628.129 916.065C628.129 918.202 626.396 919.935 624.258 919.935C622.12 919.935 620.387 918.202 620.387 916.065C620.387 913.927 622.12 912.194 624.258 912.194C626.396 912.194 628.129 913.927 628.129 916.065Z" fill="#FEBDBD"/>
<path d="M519.742 934.129C519.742 936.267 518.009 938 515.871 938C513.733 938 512 936.267 512 934.129C512 931.991 513.733 930.258 515.871 930.258C518.009 930.258 519.742 931.991 519.742 934.129Z" fill="#FEBDBD"/>
<path d="M537.806 934.129C537.806 936.267 536.073 938 533.935 938C531.798 938 530.065 936.267 530.065 934.129C530.065 931.991 531.798 930.258 533.935 930.258C536.073 930.258 537.806 931.991 537.806 934.129Z" fill="#FEBDBD"/>
<path d="M555.871 934.129C555.871 936.267 554.138 938 552 938C549.862 938 548.129 936.267 548.129 934.129C548.129 931.991 549.862 930.258 552 930.258C554.138 930.258 555.871 931.991 555.871 934.129Z" fill="#FEBDBD"/>
<path d="M573.935 934.129C573.935 936.267 572.202 938 570.065 938C567.927 938 566.194 936.267 566.194 934.129C566.194 931.991 567.927 930.258 570.065 930.258C572.202 930.258 573.935 931.991 573.935 934.129Z" fill="#FEBDBD"/>
<path d="M592 934.129C592 936.267 590.267 938 588.129 938C585.991 938 584.258 936.267 584.258 934.129C584.258 931.991 585.991 930.258 588.129 930.258C590.267 930.258 592 931.991 592 934.129Z" fill="#FEBDBD"/>
<path d="M610.065 934.129C610.065 936.267 608.331 938 606.194 938C604.056 938 602.323 936.267 602.323 934.129C602.323 931.991 604.056 930.258 606.194 930.258C608.331 930.258 610.065 931.991 610.065 934.129Z" fill="#FEBDBD"/>
<path d="M628.129 934.129C628.129 936.267 626.396 938 624.258 938C622.12 938 620.387 936.267 620.387 934.129C620.387 931.991 622.12 930.258 624.258 930.258C626.396 930.258 628.129 931.991 628.129 934.129Z" fill="#FEBDBD"/>
</g>
<defs>
<clipPath id="clip0_2120_40871">
<rect width="593" height="1024" fill="white"/>
</clipPath>
<clipPath id="clip1_2120_40871">
<rect width="442" height="293.74" fill="white" transform="translate(75 365)"/>
</clipPath>
</defs>
</svg>
