<svg width="593" height="1024" viewBox="0 0 593 1024" fill="none" xmlns="http://www.w3.org/2000/svg">
<g clip-path="url(#clip0_1128_18092)">
<rect width="593" height="1024" fill="#ECF6FF"/>
<ellipse cx="274.5" cy="606.5" rx="393.5" ry="411.5" fill="#0070D2" fill-opacity="0.08"/>
<ellipse cx="274.5" cy="960" rx="393.5" ry="374" fill="#ECF6FF"/>
<path d="M505.603 633.602H165.677C162.654 633.602 159.755 632.4 157.618 630.26C155.48 628.12 154.279 625.218 154.279 622.192C277.502 607.857 398.409 607.857 517.001 622.192C517.001 625.218 515.8 628.12 513.662 630.26C511.525 632.4 508.626 633.602 505.603 633.602Z" fill="#2F2E41"/>
<path d="M517.001 622.864L154.279 622.193L196.317 551.386L196.519 551.051V395.001C196.518 393.107 196.891 391.231 197.615 389.482C198.339 387.732 199.4 386.142 200.738 384.802C202.076 383.463 203.665 382.4 205.413 381.676C207.161 380.951 209.035 380.578 210.927 380.578H458.342C460.234 380.578 462.107 380.951 463.856 381.676C465.604 382.4 467.192 383.463 468.53 384.802C469.868 386.142 470.929 387.732 471.653 389.482C472.377 391.231 472.75 393.107 472.75 395.001V552.125L517.001 622.864Z" fill="#3F3D56"/>
<path d="M210.598 390.646C209.353 390.647 208.16 391.142 207.28 392.023C206.401 392.904 205.906 394.098 205.904 395.344V537.628C205.906 538.873 206.401 540.067 207.281 540.948C208.16 541.829 209.353 542.324 210.598 542.326H460.681C461.925 542.324 463.118 541.829 463.998 540.948C464.878 540.067 465.373 538.873 465.374 537.628V395.344C465.373 394.098 464.878 392.904 463.998 392.023C463.118 391.142 461.925 390.647 460.681 390.646H210.598Z" fill="white"/>
<path d="M211.646 561.117C211.262 561.118 210.886 561.229 210.562 561.436C210.238 561.644 209.98 561.94 209.819 562.289L196.866 590.477C196.725 590.784 196.663 591.122 196.686 591.458C196.71 591.795 196.817 592.121 196.999 592.405C197.181 592.69 197.432 592.923 197.728 593.086C198.024 593.248 198.356 593.332 198.693 593.333H471.093C471.436 593.332 471.773 593.245 472.072 593.078C472.372 592.91 472.624 592.669 472.804 592.377C472.984 592.086 473.087 591.752 473.102 591.409C473.117 591.067 473.045 590.725 472.892 590.418L458.812 562.23C458.646 561.895 458.389 561.613 458.071 561.416C457.753 561.22 457.387 561.116 457.013 561.117H211.646Z" fill="#2F2E41"/>
<path d="M334.634 388.296C336.301 388.296 337.651 386.944 337.651 385.276C337.651 383.608 336.301 382.256 334.634 382.256C332.968 382.256 331.617 383.608 331.617 385.276C331.617 386.944 332.968 388.296 334.634 388.296Z" fill="white"/>
<path d="M307.858 598.702C307.416 598.703 306.986 598.849 306.635 599.118C306.284 599.387 306.032 599.765 305.916 600.192L302.667 612.273C302.587 612.571 302.576 612.884 302.636 613.187C302.696 613.49 302.825 613.776 303.012 614.021C303.2 614.266 303.442 614.465 303.719 614.602C303.996 614.739 304.3 614.81 304.609 614.81H366.401C366.722 614.81 367.038 614.733 367.323 614.586C367.608 614.439 367.854 614.226 368.04 613.964C368.226 613.703 368.346 613.4 368.392 613.083C368.437 612.765 368.406 612.441 368.301 612.138L364.124 600.057C363.987 599.661 363.731 599.318 363.39 599.076C363.049 598.833 362.642 598.702 362.223 598.702H307.858Z" fill="#2F2E41"/>
<path d="M472.749 548.701V551.386H196.316L196.524 551.05V548.701H472.749Z" fill="#2F2E41"/>
<path d="M465.04 437.961C490.96 437.961 511.972 416.927 511.972 390.981C511.972 365.034 490.96 344 465.04 344C439.12 344 418.107 365.034 418.107 390.981C418.107 416.927 439.12 437.961 465.04 437.961Z" fill="#0070D2"/>
<path d="M484.483 411.45H445.596C444.885 411.45 444.203 411.167 443.7 410.663C443.198 410.16 442.915 409.478 442.914 408.766V385.275C442.915 384.564 443.198 383.881 443.7 383.378C444.203 382.875 444.885 382.592 445.596 382.591H484.483C485.194 382.592 485.876 382.875 486.378 383.378C486.881 383.881 487.164 384.564 487.165 385.275V408.766C487.164 409.478 486.881 410.16 486.378 410.663C485.876 411.167 485.194 411.45 484.483 411.45ZM445.596 385.275V408.766H484.485L484.483 385.275L445.596 385.275Z" fill="white"/>
<path d="M477.107 385.276H452.971V374.537C452.971 366.759 458.046 361.114 465.039 361.114C472.032 361.114 477.107 366.759 477.107 374.537L477.107 385.276ZM455.653 382.591H474.426V374.537C474.426 368.215 470.566 363.799 465.039 363.799C459.512 363.799 455.653 368.215 455.653 374.537L455.653 382.591Z" fill="white"/>
<path d="M465.039 399.034C466.52 399.034 467.721 397.832 467.721 396.35C467.721 394.867 466.52 393.665 465.039 393.665C463.558 393.665 462.357 394.867 462.357 396.35C462.357 397.832 463.558 399.034 465.039 399.034Z" fill="white"/>
<path d="M432.276 494.064H239.003C238.054 494.063 237.144 493.685 236.473 493.013C235.802 492.342 235.425 491.431 235.424 490.481V442.489C235.425 441.539 235.802 440.629 236.473 439.957C237.144 439.285 238.054 438.907 239.003 438.906H432.276C433.225 438.907 434.135 439.285 434.806 439.957C435.477 440.629 435.854 441.539 435.855 442.489V490.481C435.854 491.431 435.477 492.342 434.806 493.013C434.135 493.685 433.225 494.063 432.276 494.064ZM239.003 440.339C238.434 440.34 237.888 440.567 237.485 440.97C237.083 441.373 236.856 441.919 236.855 442.489V490.481C236.856 491.051 237.083 491.597 237.485 492C237.888 492.403 238.434 492.63 239.003 492.631H432.276C432.846 492.63 433.392 492.403 433.794 492C434.197 491.597 434.423 491.051 434.424 490.481V442.489C434.423 441.919 434.197 441.373 433.794 440.97C433.392 440.567 432.846 440.34 432.276 440.339L239.003 440.339Z" fill="#E6E6E6"/>
<path d="M269.033 479.239C277.085 479.239 283.612 472.705 283.612 464.644C283.612 456.584 277.085 450.05 269.033 450.05C260.981 450.05 254.453 456.584 254.453 464.644C254.453 472.705 260.981 479.239 269.033 479.239Z" fill="#E6E6E6"/>
<path d="M302.705 454.914C302.386 454.914 302.069 454.976 301.774 455.098C301.479 455.22 301.211 455.399 300.985 455.625C300.759 455.851 300.579 456.119 300.457 456.415C300.334 456.71 300.271 457.027 300.271 457.346C300.271 457.666 300.334 457.983 300.457 458.278C300.579 458.574 300.759 458.842 300.985 459.068C301.211 459.294 301.479 459.473 301.774 459.595C302.069 459.717 302.386 459.779 302.705 459.779H417.258C417.903 459.779 418.521 459.523 418.976 459.066C419.432 458.61 419.688 457.992 419.688 457.346C419.688 456.701 419.432 456.083 418.976 455.626C418.521 455.17 417.903 454.914 417.258 454.914H302.705Z" fill="#E6E6E6"/>
<path d="M302.705 469.509C302.061 469.509 301.443 469.765 300.987 470.221C300.531 470.677 300.275 471.296 300.275 471.941C300.275 472.586 300.531 473.205 300.987 473.661C301.443 474.117 302.061 474.374 302.705 474.374H351.998C352.642 474.374 353.26 474.117 353.716 473.661C354.172 473.205 354.428 472.586 354.428 471.941C354.428 471.296 354.172 470.677 353.716 470.221C353.26 469.765 352.642 469.509 351.998 469.509H302.705Z" fill="#E6E6E6"/>
<path opacity="0.1" d="M134.425 680C161.299 680 183.085 676.501 183.085 672.184C183.085 667.868 161.299 664.369 134.425 664.369C107.551 664.369 85.7656 667.868 85.7656 672.184C85.7656 676.501 107.551 680 134.425 680Z" fill="#0070D2"/>
<path d="M181.478 478.934C181.478 478.934 179.51 478.66 179.51 475.793C179.51 472.927 178.102 467.573 178.102 467.573C178.102 467.548 176.884 458.25 175.201 456.772C173.518 455.294 171.356 446.614 171.356 446.614C171.356 446.614 170.986 441.905 170.232 440.891C169.478 439.878 168.459 437.396 166.956 433.855C165.453 430.315 159.186 427.863 159.186 427.863C159.186 427.863 147.855 421.291 144.644 419.148C144.352 418.972 144.079 418.767 143.83 418.534C143.27 417.8 140.833 417.785 140.833 417.785C140.579 416.177 140.334 414.329 140.254 412.656C140.254 412.477 140.254 412.297 140.229 412.117C143.81 410.001 146.507 406.664 147.825 402.719C147.885 402.529 147.935 402.329 147.99 402.139C148.204 402.069 148.402 401.954 148.569 401.803C148.737 401.651 148.871 401.467 148.963 401.261C149.253 400.616 149.258 399.862 149.618 399.263C150.037 398.554 150.836 398.174 151.465 397.64C153.053 396.292 153.463 394.02 153.388 391.952C153.338 390.279 153.068 388.591 153.173 386.928L153.203 386.509C153.233 386.259 153.268 386.009 153.313 385.77C153.558 384.531 154.092 383.363 154.392 382.134C154.691 380.906 154.721 379.523 154.022 378.464C152.998 376.911 150.866 376.601 148.993 376.441C146.871 376.262 144.973 376.496 143.615 374.733C142.979 373.812 142.264 372.948 141.478 372.152C141.198 371.892 138.481 370.234 138.481 370.124C135.83 368.896 132.825 368.666 130.017 369.475C128.609 369.884 127.28 370.554 125.852 370.888C122.771 371.617 119.225 370.828 116.608 372.591C115.15 373.59 114.276 375.178 113.457 376.726C112.792 378.001 112.116 379.274 111.43 380.546C110.326 382.639 109.203 384.766 108.738 387.083C108.641 387.587 108.58 388.098 108.558 388.611V388.636C108.558 388.821 108.558 389.006 108.558 389.191V389.425C108.558 389.6 108.558 389.77 108.588 389.925C108.618 390.079 108.613 390.129 108.628 390.234C108.643 390.339 108.668 390.574 108.698 390.734C108.728 390.893 108.788 391.173 108.848 391.393C108.873 391.488 108.908 391.578 108.938 391.667C108.988 391.837 109.048 392.002 109.113 392.167C109.148 392.252 109.183 392.342 109.223 392.427C109.298 392.601 109.387 392.771 109.477 392.926C109.517 392.996 109.547 393.061 109.587 393.126C109.726 393.358 109.88 393.581 110.047 393.795C111.115 395.128 112.688 395.977 113.852 397.226C113.852 397.276 113.852 397.325 113.852 397.37C113.852 397.51 113.852 397.645 113.852 397.785C113.914 400.569 114.655 403.296 116.011 405.729C117.367 408.161 119.296 410.226 121.632 411.743C121.632 411.932 121.657 412.127 121.667 412.317C121.765 413.799 121.746 415.287 121.612 416.766C121.409 416.527 121.154 416.336 120.867 416.208C120.58 416.08 120.268 416.018 119.954 416.027C119.74 416.017 119.525 416.035 119.315 416.082L119.27 416.047V416.092C118.172 416.362 116.818 417.505 115.525 420.756C115.525 420.756 111.59 425.191 108.593 425.006C105.597 424.821 98.0115 429.62 98.0115 429.62C98.0115 429.62 90.6107 434.424 89.0226 439.318C88.135 442.094 87.0708 444.809 85.8366 447.448L76.6879 466.3L75 481.256C75 481.256 75.9338 487.908 75.7491 488.922C75.5643 489.936 79.5893 499.079 79.5893 499.079C79.5893 499.079 92.8878 522.445 98.3211 523.644L98.7106 523.369C98.9431 523.491 99.1896 523.583 99.4447 523.644L100.563 522.855C100.63 523.734 100.602 524.618 100.478 525.492C99.7294 527.799 100.758 542.855 102.066 545.806C103.375 548.758 102.91 587.455 102.91 587.455L102.726 590.871C102.726 590.871 102.726 590.98 102.771 591.17L102.726 591.979L102.86 592.049C103 593.133 102.955 594.232 102.726 595.3C102.256 596.798 102.066 601.033 102.066 601.033C102.066 601.033 98.3261 624.943 100.099 629.747C101.872 634.552 103.38 639.815 103.38 639.815C103.38 639.815 105.253 645.808 103.47 646.831C101.687 647.855 96.6182 649.573 97.6619 652.07C98.6107 654.377 102.211 660.559 102.746 661.463L102.701 661.938L101.967 669.893C102.085 670.943 102.37 671.968 102.811 672.929C103.615 674.662 105.178 676.46 108.149 676.265C108.648 676.23 109.228 676.17 109.787 676.095C115.225 675.366 121.922 672.939 121.922 672.939C121.574 672.718 121.255 672.455 120.973 672.155C120.706 671.896 120.494 671.585 120.351 671.242C120.207 670.899 120.135 670.53 120.139 670.157C120.219 668.709 117.507 661.808 116.833 660.11C116.728 659.865 116.673 659.725 116.673 659.725C116.673 659.725 122.856 653.263 121.827 647.535C121.827 647.535 114.985 643.54 117.238 641.348C119.49 639.156 123.515 632.859 123.515 632.859C123.515 632.859 123.7 609.313 123.515 605.797C123.322 603.357 123.438 600.902 123.859 598.491C123.934 598.127 124.024 597.772 124.119 597.423C127.234 597.887 130.378 598.126 133.527 598.137C134.676 598.137 135.845 598.137 137.023 598.067C137.023 598.4 137.038 598.759 137.068 599.145C137.328 604.978 137.812 615.205 138.207 619.006C138.766 624.454 141.857 639.136 141.857 639.136C141.857 639.136 135.959 642.921 142.886 652.25C142.886 652.25 142.886 655.63 142.426 656.12C141.936 657.72 141.541 659.347 141.243 660.994C140.953 662.752 140.833 664.529 141.303 665.453C142.426 667.661 149.168 667.481 149.168 667.481L149.333 667.451C150.606 667.319 151.892 667.442 153.117 667.811C154.342 668.181 155.481 668.79 156.469 669.603C159.031 671.661 168.754 670.757 174.017 670.102C176.08 669.843 177.458 669.603 177.458 669.603C177.525 669.37 177.549 669.126 177.528 668.884C177.473 667.591 176.459 664.754 169.588 662.222C169.588 662.222 163.126 657.878 163.216 654.092H163.081H162.332C162.876 654.062 163.226 654.092 163.226 654.092C163.226 654.092 160.694 644.854 161.728 644.105C162.761 643.356 159.665 633.118 159.665 633.118C159.665 633.118 157.892 615.94 157.797 614.736C157.801 613.703 157.958 612.677 158.262 611.69L157.797 602.272C157.797 602.272 157.708 599.14 157.797 598.122C157.782 597.237 157.711 596.355 157.583 595.48C157.538 595.13 157.493 594.766 157.443 594.406C159.865 593.792 161.438 593.223 161.438 593.223L161.158 560.438C163.216 556.443 163.595 547.679 163.585 541.462C163.585 537.467 163.405 534.51 163.405 534.51L166.217 529.921C166.217 529.921 166.866 524.428 165.837 523.224C165.383 522.68 165.588 522.116 165.962 521.651C166.157 521.497 166.362 521.357 166.577 521.232C166.577 521.232 166.547 521.187 166.512 521.122C166.708 520.958 166.917 520.809 167.136 520.678C167.136 520.678 166.137 519.13 167.031 518.475C167.87 519.045 168.619 519.474 169.188 519.824C169.148 520.188 169.108 520.398 169.108 520.398L169.348 519.899C169.897 520.208 170.232 520.398 170.232 520.398C170.232 520.398 174.637 511.624 174.542 510.33C174.447 509.037 177.538 503.589 177.538 503.589C177.538 503.589 177.912 500.727 179.6 499.529C181.288 498.33 180.909 489.646 180.909 489.646C180.909 489.646 181.378 485.122 182.502 483.274C183.625 481.426 181.478 478.934 181.478 478.934ZM97.2025 475.084L97.2874 477.177C96.788 476.373 96.4284 475.793 96.4284 475.793L97.2025 475.084Z" fill="url(#paint0_linear_1128_18092)"/>
<path d="M170.471 516.608L169.392 521.202C169.392 521.202 160.753 516.792 159.195 511.189C157.637 505.586 161.801 503.459 161.801 503.459L169.851 506.87L170.471 516.608Z" fill="white"/>
<path opacity="0.1" d="M170.471 516.608L169.392 521.202C169.392 521.202 160.753 516.792 159.195 511.189C157.637 505.586 161.801 503.459 161.801 503.459L169.851 506.87L170.471 516.608Z" fill="black"/>
<path d="M121.987 672.969C121.987 672.969 113.997 675.905 108.504 676.275C105.588 676.469 104.054 674.682 103.265 672.959C102.834 672.001 102.556 670.982 102.441 669.938L103.156 662.022L103.535 657.808L115.206 654.776L116.859 659.83L117.013 660.215C117.678 661.903 120.339 668.769 120.259 670.202C120.256 670.569 120.327 670.933 120.468 671.272C120.608 671.611 120.816 671.918 121.078 672.175C121.346 672.477 121.652 672.744 121.987 672.969Z" fill="white"/>
<path d="M176.563 668.944C176.583 669.184 176.56 669.426 176.493 669.658C176.493 669.658 159.405 672.509 155.909 669.658C154.923 668.825 153.774 668.207 152.536 667.844C151.298 667.481 149.997 667.381 148.718 667.55C148.718 667.55 142.106 667.73 141.002 665.553C140.543 664.639 140.663 662.866 140.947 661.118C141.238 659.481 141.625 657.862 142.106 656.269L142.371 656.06L143.944 654.796L162.361 654.252H162.501C162.411 658.017 168.753 662.337 168.753 662.337C175.49 664.834 176.483 667.655 176.563 668.944Z" fill="white"/>
<path opacity="0.1" d="M176.565 668.943C176.582 669.184 176.557 669.426 176.49 669.658C176.49 669.658 159.406 672.509 155.91 669.658C154.925 668.825 153.777 668.208 152.54 667.845C151.302 667.482 150.003 667.382 148.724 667.55C148.724 667.55 142.107 667.73 141.009 665.553C140.549 664.634 140.664 662.866 140.949 661.118C143.496 661.373 147.516 662.007 149.094 663.52C151.481 665.822 155.526 668.119 158.008 668.299C159.95 668.424 171.571 668.794 176.565 668.943Z" fill="black"/>
<path opacity="0.1" d="M121.986 672.968C121.986 672.968 113.996 675.905 108.503 676.274C105.587 676.469 104.054 674.681 103.27 672.953C105.302 673.637 108.124 674.357 109.607 673.697C111.365 672.918 117.597 672.414 121.092 672.199C121.358 672.49 121.659 672.749 121.986 672.968Z" fill="black"/>
<path d="M133.842 436.337C127.25 433.775 118.77 425.311 120.888 421.355C121.358 420.357 121.637 419.28 121.712 418.179C121.848 416.685 121.868 415.182 121.772 413.685C121.623 411.233 121.328 408.791 120.888 406.374C120.888 406.374 141.467 406.838 140.269 409.87C139.919 410.759 139.864 412.302 139.959 414.03C140.054 415.757 140.304 417.71 140.563 419.363C140.923 421.63 141.282 423.358 141.282 423.358C141.282 423.358 140.024 425.121 139.285 425.216C138.546 425.311 143.3 439.987 133.842 436.337Z" fill="#FFB8B8"/>
<path opacity="0.1" d="M116.998 660.215L116.844 660.384C110.691 652.944 103.25 662.217 103.25 662.217L103.141 662.022L103.52 657.808L115.191 654.776L116.844 659.83L116.998 660.215Z" fill="black"/>
<path opacity="0.1" d="M162.506 654.777C162.506 654.777 158.011 654.682 155.614 656.799C153.217 658.917 141.632 657.259 142.131 656.799C142.279 656.572 142.368 656.311 142.391 656.04L143.964 654.777L162.381 654.232C162.451 654.567 162.506 654.777 162.506 654.777Z" fill="black"/>
<path d="M124.653 596.344C124.318 597.172 124.064 598.03 123.894 598.906C123.477 601.306 123.362 603.748 123.549 606.177C123.734 609.673 123.549 633.099 123.549 633.099C123.549 633.099 119.599 639.346 117.397 641.548C115.195 643.75 121.891 647.706 121.891 647.706C122.89 653.399 116.838 659.831 116.838 659.831C110.685 652.39 103.244 661.668 103.244 661.668C103.244 661.668 99.1994 654.677 98.1907 652.18C97.1819 649.683 102.141 647.955 103.884 646.942C105.626 645.928 103.799 639.95 103.799 639.95C103.799 639.95 102.326 634.712 100.578 629.933C98.8299 625.154 102.505 601.363 102.505 601.363C102.505 601.363 102.695 597.138 103.15 595.665C103.379 594.602 103.424 593.508 103.284 592.429C103.254 592.065 103.219 591.76 103.194 591.555C103.17 591.35 103.15 591.256 103.15 591.256L103.219 591.136L105.716 586.481C105.716 586.481 125.851 593.413 124.653 596.344Z" fill="#0070D2"/>
<path d="M162.507 654.226C162.507 654.226 158.012 654.131 155.615 656.224C153.218 658.316 141.633 656.683 142.132 656.224C142.631 655.764 142.591 652.364 142.591 652.364C135.795 643.085 141.593 639.32 141.593 639.32C141.593 639.32 138.556 624.713 138.007 619.295C137.623 615.509 137.148 605.337 136.894 599.529C136.784 597.032 136.719 595.314 136.719 595.314L142.272 594.196L142.986 594.051L156.379 591.364C156.379 591.364 156.749 593.861 156.999 595.904C157.123 596.776 157.193 597.655 157.208 598.535C157.118 599.534 157.208 602.66 157.208 602.66L157.663 612.034C157.366 613.017 157.213 614.038 157.208 615.065C157.298 616.258 159.041 633.347 159.041 633.347C159.041 633.347 162.072 643.545 161.039 644.279C160.005 645.013 162.507 654.226 162.507 654.226Z" fill="#0070D2"/>
<path opacity="0.1" d="M140.268 409.87C139.918 410.759 139.863 412.302 139.958 414.03C137.202 415.689 134.033 416.538 130.815 416.478C127.598 416.418 124.463 415.452 121.771 413.69C121.622 411.236 121.327 408.793 120.887 406.374C120.887 406.374 141.466 406.828 140.268 409.87Z" fill="black"/>
<path d="M148.225 398.833C148.229 400.633 147.946 402.421 147.386 404.132C146.135 407.964 143.569 411.23 140.143 413.353C136.716 415.477 132.649 416.321 128.661 415.736C124.672 415.151 121.019 413.174 118.347 410.156C115.674 407.138 114.155 403.273 114.057 399.243C114.057 399.103 114.057 398.973 114.057 398.833C114.018 396.565 114.432 394.311 115.273 392.204C116.114 390.097 117.367 388.179 118.957 386.561C120.548 384.943 122.444 383.658 124.536 382.781C126.629 381.904 128.875 381.452 131.144 381.452C133.412 381.452 135.658 381.904 137.751 382.781C139.843 383.658 141.74 384.943 143.33 386.561C144.92 388.179 146.173 390.097 147.014 392.204C147.855 394.311 148.269 396.565 148.23 398.833H148.225Z" fill="#FFB8B8"/>
<path opacity="0.1" d="M133.842 436.337C127.25 433.775 118.77 425.311 120.888 421.356C121.358 420.358 121.637 419.28 121.712 418.18L130.735 425.595L136.319 430.175L140.563 419.368C140.923 421.635 141.282 423.363 141.282 423.363C141.282 423.363 140.024 425.126 139.285 425.221C138.546 425.316 143.3 439.988 133.842 436.337Z" fill="black"/>
<path d="M157.179 469.112L149.643 595.705L139.816 596.349L114.367 522.945L118.542 435.798L119.421 417.386L130.737 426.679L136.325 431.259L140.695 420.137L148.82 427.219L157.179 469.112Z" fill="#0070D2"/>
<path opacity="0.1" d="M124.653 596.344C124.318 597.172 124.064 598.03 123.894 598.906C116.742 597.802 109.797 595.632 103.289 592.469L103.154 592.399L103.199 591.595L103.224 591.176L105.721 586.521C105.721 586.521 125.851 593.413 124.653 596.344Z" fill="black"/>
<path opacity="0.1" d="M142.385 598.926C140.557 599.237 138.713 599.447 136.862 599.555C136.752 597.058 136.688 595.34 136.688 595.34L142.241 594.222L142.385 598.926Z" fill="black"/>
<path opacity="0.1" d="M156.968 595.929C153.417 596.853 147.934 597.892 143.025 597.242L142.955 594.076L156.348 591.39C156.348 591.39 156.718 593.862 156.968 595.929Z" fill="black"/>
<path opacity="0.1" d="M142.935 597.822C122.461 601.317 103.709 591.295 103.709 591.295L103.889 587.899C103.889 587.899 104.353 549.402 103.065 546.45C101.776 543.499 100.773 528.533 101.502 526.236C102.231 523.938 98.8399 489.491 98.8399 489.491L98.2906 475.508L78.1855 467.363L87.1744 448.627C88.3885 446 89.4327 443.298 90.3005 440.537C91.8636 435.673 99.1196 430.894 99.1196 430.894C99.1196 430.894 106.56 426.12 109.502 426.299C112.443 426.479 116.298 422.075 116.298 422.075C119.145 414.819 121.722 418.105 121.722 418.105C121.722 418.449 121.722 418.105 121.582 419.178C120.583 427.143 137.732 452.312 137.976 452.757L139.609 492.537L141.262 542.88L142.935 597.822Z" fill="black"/>
<path d="M142.386 597.822C121.911 601.317 103.154 591.295 103.154 591.295L103.339 587.899C103.339 587.899 103.804 549.402 102.51 546.45C101.217 543.499 100.218 528.532 100.952 526.235C101.686 523.938 98.2905 489.491 98.2905 489.491L97.7362 475.508L77.6211 467.333L86.61 448.596C87.8214 445.968 88.8655 443.266 89.7361 440.506C91.2942 435.642 98.5552 430.863 98.5552 430.863C98.5552 430.863 105.996 426.089 108.932 426.269C111.869 426.449 115.729 422.044 115.729 422.044C118.58 414.788 121.721 418.074 121.721 418.074C121.721 418.419 121.422 418.574 121.582 419.148C123.779 426.873 137.182 452.282 137.427 452.726L139.08 492.507L140.733 542.85L142.386 597.822Z" fill="white"/>
<path opacity="0.1" d="M136.867 453.86C134.665 452.942 123 439.623 123 439.623V436.592C122.575 435.593 120.053 436.202 118.006 436.901L118.885 418.489L119.884 419.318C122.071 427.039 136.613 453.416 136.867 453.86Z" fill="black"/>
<path d="M137.421 452.757C135.214 451.838 123.548 438.52 123.548 438.52V435.488C123.124 434.49 120.602 435.099 118.555 435.798L119.439 417.386L120.437 418.215C122.63 425.935 137.177 452.317 137.421 452.757Z" fill="white"/>
<path opacity="0.1" d="M103.71 519.179C103.984 519.179 117.947 517.711 117.947 517.711C117.947 517.711 126.401 534.335 125.847 538.38C125.293 542.425 124.289 546.006 120.888 545.372C117.487 544.737 102.586 545.871 102.586 545.871L103.71 519.179Z" fill="black"/>
<path d="M103.155 518.076C103.43 518.076 117.392 516.607 117.392 516.607C117.392 516.607 125.842 533.237 125.292 537.277C124.743 541.317 123.729 544.902 120.334 544.268C116.938 543.634 102.031 544.768 102.031 544.768L103.155 518.076Z" fill="white"/>
<path d="M113.677 510.271C113.677 510.271 126.491 517.157 126.765 519.259C127.04 521.362 120.243 518.341 118.775 517.976C117.809 517.743 116.825 517.589 115.834 517.517L106.041 517.781L113.677 510.271Z" fill="#FFB8B8"/>
<path opacity="0.1" d="M133.292 454.719C134.036 454.719 134.64 454.115 134.64 453.371C134.64 452.626 134.036 452.022 133.292 452.022C132.547 452.022 131.943 452.626 131.943 453.371C131.943 454.115 132.547 454.719 133.292 454.719Z" fill="black"/>
<path d="M133.292 454.169C134.036 454.169 134.64 453.566 134.64 452.821C134.64 452.076 134.036 451.473 133.292 451.473C132.547 451.473 131.943 452.076 131.943 452.821C131.943 453.566 132.547 454.169 133.292 454.169Z" fill="#3F3D56"/>
<path opacity="0.1" d="M135.774 513.087C136.519 513.087 137.122 512.484 137.122 511.739C137.122 510.994 136.519 510.391 135.774 510.391C135.029 510.391 134.426 510.994 134.426 511.739C134.426 512.484 135.029 513.087 135.774 513.087Z" fill="black"/>
<path d="M135.774 512.533C136.519 512.533 137.122 511.929 137.122 511.184C137.122 510.44 136.519 509.836 135.774 509.836C135.029 509.836 134.426 510.44 134.426 511.184C134.426 511.929 135.029 512.533 135.774 512.533Z" fill="#3F3D56"/>
<path opacity="0.1" d="M134.635 483.903C135.38 483.903 135.984 483.299 135.984 482.554C135.984 481.81 135.38 481.206 134.635 481.206C133.891 481.206 133.287 481.81 133.287 482.554C133.287 483.299 133.891 483.903 134.635 483.903Z" fill="black"/>
<path d="M134.635 483.354C135.38 483.354 135.984 482.75 135.984 482.006C135.984 481.261 135.38 480.657 134.635 480.657C133.891 480.657 133.287 481.261 133.287 482.006C133.287 482.75 133.891 483.354 134.635 483.354Z" fill="#3F3D56"/>
<path d="M165.717 517.236C165.717 517.236 166.636 518.615 165.717 519.259C164.799 519.903 165.807 521.461 165.807 521.461C165.807 521.461 163.515 522.805 164.524 524.013C165.533 525.222 164.893 530.68 164.893 530.68L162.137 535.244C162.137 535.244 162.302 538.186 162.312 542.161C162.312 548.363 161.947 557.082 159.93 561.057L160.209 593.672C160.209 593.672 150.556 597.197 142.476 596.124L141.278 543.789C141.278 543.789 143.026 514.11 143.67 508.417C144.047 505.462 144.2 502.482 144.129 499.503C144.129 499.503 143.855 490.595 142.931 486.46C142.931 486.46 141.932 468.547 141.832 463.588C141.787 461.216 141.912 454.294 142.052 447.713C142.207 440.517 142.381 433.73 142.381 433.73L140.559 419.308C140.559 419.308 142.381 419.123 142.931 419.857C143.177 420.087 143.444 420.293 143.73 420.471C146.876 422.599 157.992 429.141 157.992 429.141C157.992 429.141 164.144 431.588 165.618 435.093C167.091 438.599 168.114 441.086 168.829 442.085C169.543 443.083 169.932 447.778 169.932 447.778C169.932 447.778 172.05 456.417 173.703 457.88C175.355 459.343 176.564 468.652 176.564 468.652L161.957 480.137C161.957 480.137 160.674 499.244 160.399 499.983C160.124 500.722 165.717 517.236 165.717 517.236Z" fill="white"/>
<path opacity="0.1" d="M148.779 437.985L150.097 441.83L143.156 448.821C143.31 441.63 143.485 434.839 143.485 434.839L141.078 420.222C141.078 420.222 143.485 420.222 144.039 420.966C144.283 421.198 144.55 421.402 144.838 421.575L150.741 438.604L148.779 437.985Z" fill="black"/>
<path d="M148.224 436.881L149.547 440.726L142.606 447.718C142.761 440.522 142.935 433.735 142.935 433.735L140.523 419.118C140.523 419.118 142.935 419.118 143.485 419.862C143.73 420.093 143.997 420.299 144.284 420.476L150.191 437.5L148.224 436.881Z" fill="white"/>
<path opacity="0.1" d="M148.225 398.833C148.229 400.633 147.946 402.421 147.386 404.132C147.292 404.146 147.195 404.142 147.103 404.119C147.01 404.096 146.923 404.054 146.847 403.997C146.717 399.502 144.504 395.282 141.783 391.692C141.019 390.608 140.092 389.648 139.036 388.845C137.969 388.044 136.64 387.668 135.311 387.792C133.813 387.997 132.489 389.015 130.976 389.145C128.979 389.31 127.191 387.927 125.208 387.857C124.402 387.864 123.607 388.044 122.876 388.383C122.145 388.722 121.495 389.214 120.969 389.824C119.927 391.056 119.153 392.492 118.696 394.039C117.911 396.385 117.484 398.836 117.428 401.31C117.403 402.708 117.268 404.461 115.97 404.97C116.068 403.942 115.951 402.905 115.627 401.924C115.303 400.943 114.778 400.04 114.087 399.273L114.057 399.243C114.057 399.103 114.057 398.973 114.057 398.833C114.018 396.565 114.432 394.311 115.273 392.204C116.114 390.097 117.367 388.179 118.957 386.561C120.548 384.943 122.444 383.658 124.536 382.781C126.629 381.904 128.875 381.452 131.144 381.452C133.412 381.452 135.658 381.904 137.751 382.781C139.843 383.658 141.74 384.943 143.33 386.561C144.92 388.179 146.173 390.097 147.014 392.204C147.855 394.311 148.269 396.565 148.23 398.833H148.225Z" fill="black"/>
<path d="M138.217 371.702C135.622 370.481 132.671 370.251 129.918 371.053C128.534 371.462 127.231 372.127 125.828 372.461C122.831 373.185 119.336 372.401 116.764 374.154C115.336 375.153 114.477 376.731 113.678 378.264L111.68 382.069C110.591 384.152 109.493 386.269 109.038 388.561C108.584 390.853 108.859 393.42 110.312 395.263C111.37 396.606 112.934 397.45 114.082 398.714C114.77 399.482 115.292 400.384 115.615 401.364C115.938 402.344 116.056 403.379 115.96 404.407C117.263 403.907 117.388 402.149 117.418 400.751C117.474 398.277 117.901 395.826 118.686 393.48C119.142 391.932 119.916 390.497 120.959 389.265C121.485 388.655 122.136 388.164 122.867 387.825C123.598 387.486 124.393 387.306 125.198 387.298C127.196 387.368 128.989 388.746 130.966 388.581C132.464 388.456 133.793 387.433 135.301 387.233C136.631 387.107 137.959 387.483 139.026 388.287C140.082 389.088 141.007 390.048 141.768 391.133C144.494 394.724 146.707 398.933 146.837 403.438C147.401 403.852 148.215 403.313 148.494 402.674C148.774 402.034 148.784 401.285 149.139 400.676C149.548 399.972 150.332 399.598 150.946 399.068C152.505 397.725 152.894 395.463 152.834 393.41C152.774 391.358 152.375 389.275 152.764 387.258C152.999 386.019 153.528 384.861 153.818 383.637C154.108 382.414 154.142 381.04 153.458 379.987C152.46 378.439 150.357 378.134 148.524 377.989C146.442 377.81 144.579 378.039 143.251 376.286C142.627 375.372 141.926 374.513 141.154 373.72C140.889 373.46 138.217 371.812 138.217 371.702Z" fill="#512E4E"/>
<path opacity="0.1" d="M83.9379 477.011L78.7194 467.363L77.0664 482.25C77.0664 482.25 77.9853 488.862 77.8005 489.875C77.6157 490.889 81.5658 499.978 81.5658 499.978C81.5658 499.978 94.6147 523.219 99.9431 524.418L117.946 511.554L113.172 505.491C113.172 505.491 111.519 504.847 111.104 505.491C111.104 505.491 102.24 490.24 101.321 489.136C100.402 488.033 100.582 485.83 100.582 485.83C100.582 485.83 99.204 484.362 99.6634 482.984C100.123 481.606 97.0017 476.827 97.0017 476.827L99.8482 474.165L83.9379 477.011Z" fill="black"/>
<path d="M78.9941 466.265L77.6158 467.363L75.9629 482.25C75.9629 482.25 76.8818 488.862 76.697 489.875C76.5122 490.889 80.4673 499.978 80.4673 499.978C80.4673 499.978 93.5111 523.219 98.8395 524.418L116.847 511.554L112.068 505.491C112.068 505.491 110.415 504.847 110.001 505.491C110.001 505.491 101.137 490.24 100.218 489.136C99.299 488.033 99.4837 485.83 99.4837 485.83C99.4837 485.83 98.1055 484.362 98.5649 482.984C99.0243 481.606 95.8982 476.827 95.8982 476.827L98.7447 474.165L78.9941 466.265Z" fill="white"/>
<path opacity="0.1" d="M164.524 524.582C165.523 525.796 164.893 531.244 164.893 531.244L162.137 535.809C162.137 535.809 162.302 538.755 162.312 542.725L157.677 544.173C157.259 544.304 156.815 544.333 156.382 544.257C155.95 544.181 155.542 544.003 155.193 543.738C154.843 543.473 154.563 543.128 154.374 542.732C154.185 542.336 154.093 541.9 154.107 541.462L154.906 515.688L165.717 519.823C164.799 520.463 165.807 522.031 165.807 522.031C165.807 522.031 163.515 523.369 164.524 524.582Z" fill="black"/>
<path d="M165.078 524.029C166.076 525.242 165.447 530.695 165.447 530.695L162.691 535.26C162.691 535.26 162.855 538.201 162.87 542.176L158.151 543.649C157.741 543.777 157.306 543.804 156.883 543.73C156.46 543.655 156.061 543.481 155.719 543.221C155.377 542.961 155.102 542.623 154.917 542.236C154.732 541.848 154.643 541.422 154.656 540.993L155.46 515.14L166.276 519.275C165.352 519.914 166.361 521.477 166.361 521.477C166.361 521.477 164.079 522.82 165.078 524.029Z" fill="white"/>
<path d="M168.659 511.743C168.659 511.743 167.925 516.432 166.087 516.707C164.25 516.981 163.426 524.292 161.593 524.033C159.76 523.773 160.974 517.236 161.038 515.968C161.103 514.699 159.041 509.446 160.584 508.252C162.127 507.059 167.011 508.252 167.011 508.252L168.659 511.743Z" fill="#FFB8B8"/>
<path opacity="0.1" d="M172.568 475.633L176.034 468.642C176.034 468.642 177.412 473.97 177.412 476.816C177.412 479.663 179.34 479.943 179.34 479.943C179.34 479.943 181.452 482.439 180.338 484.257C179.225 486.075 178.775 490.599 178.775 490.599C178.775 490.599 179.14 499.234 177.487 500.427C175.834 501.621 175.489 504.472 175.489 504.472C175.489 504.472 172.453 509.89 172.548 511.179C172.643 512.467 168.323 521.191 168.323 521.191C168.323 521.191 170.436 510.35 158.126 505.666C158.126 505.666 158.031 501.985 158.95 500.977C159.869 499.968 161.302 499.508 160.403 494.41C159.504 489.311 160.143 483.219 160.143 481.995C160.143 480.772 162.9 473.141 162.9 473.141L172.568 475.633Z" fill="black"/>
<path d="M174.067 467.643L177.093 468.641C177.093 468.641 178.476 473.97 178.476 476.816C178.476 479.663 180.404 479.942 180.404 479.942C180.404 479.942 182.516 482.439 181.403 484.257C180.289 486.075 179.845 490.599 179.845 490.599C179.845 490.599 180.209 499.233 178.556 500.427C176.903 501.62 176.534 504.472 176.534 504.472C176.534 504.472 173.503 509.89 173.597 511.179C173.692 512.467 169.368 521.191 169.368 521.191C169.368 521.191 171.485 510.35 159.17 505.665C159.17 505.665 159.08 501.985 159.999 500.976C160.918 499.968 162.351 499.508 161.453 494.409C160.554 489.311 161.193 483.218 161.193 481.995C161.193 480.771 163.949 473.141 163.949 473.141L174.067 467.643Z" fill="white"/>
<path opacity="0.1" d="M107.225 648.854C107.225 648.854 112.049 645.822 115.215 648.025C118.381 650.227 107.225 648.854 107.225 648.854Z" fill="black"/>
<path opacity="0.1" d="M144.709 639.48C144.709 639.48 148.979 638.931 152.564 642.791C156.15 646.651 144.709 639.48 144.709 639.48Z" fill="black"/>
<g opacity="0.1">
<path d="M150.955 397.974C150.341 398.504 149.552 398.883 149.142 399.587C148.793 400.191 148.783 400.936 148.503 401.585C148.224 402.234 147.41 402.763 146.845 402.354C146.715 397.859 144.498 393.64 141.777 390.044C141.016 388.959 140.091 387.999 139.035 387.198C137.966 386.394 136.636 386.018 135.305 386.144C133.806 386.349 132.488 387.367 130.975 387.492C128.977 387.662 127.185 386.279 125.202 386.209C124.396 386.217 123.602 386.397 122.871 386.737C122.141 387.077 121.492 387.57 120.967 388.181C119.925 389.411 119.151 390.845 118.695 392.391C117.91 394.738 117.483 397.189 117.427 399.662C117.397 401.055 117.267 402.793 115.979 403.313C116.009 403.682 116.009 404.052 115.979 404.421C117.277 403.922 117.407 402.164 117.437 400.766C117.492 398.292 117.92 395.841 118.705 393.495C119.161 391.947 119.935 390.511 120.977 389.28C121.503 388.67 122.152 388.179 122.883 387.84C123.613 387.501 124.407 387.321 125.212 387.312C127.21 387.382 129.007 388.761 130.985 388.596C132.483 388.471 133.811 387.447 135.315 387.248C136.646 387.122 137.976 387.498 139.045 388.301C140.101 389.102 141.026 390.063 141.787 391.148C144.508 394.738 146.725 398.948 146.855 403.452C147.42 403.867 148.234 403.328 148.513 402.688C148.793 402.049 148.803 401.3 149.152 400.691C149.562 399.987 150.351 399.612 150.965 399.083C152.523 397.739 152.913 395.477 152.853 393.425C152.853 393.36 152.853 393.295 152.853 393.235C152.758 395.013 152.284 396.826 150.955 397.974Z" fill="black"/>
<path d="M114.091 397.62C112.942 396.356 111.374 395.512 110.321 394.174C109.433 392.989 108.927 391.563 108.868 390.084C108.71 391.932 109.226 393.775 110.321 395.273C111.374 396.616 112.942 397.46 114.091 398.723C115.194 399.959 115.856 401.526 115.974 403.178C116.05 402.172 115.923 401.162 115.599 400.207C115.276 399.252 114.763 398.372 114.091 397.62Z" fill="black"/>
<path d="M153.828 382.543C153.533 383.767 153.009 384.931 152.769 386.164C152.627 386.988 152.575 387.825 152.614 388.661C152.631 388.185 152.683 387.711 152.769 387.243C153.009 386.004 153.533 384.846 153.828 383.622C153.999 382.947 154.055 382.248 153.992 381.555C153.961 381.888 153.906 382.218 153.828 382.543Z" fill="black"/>
</g>
<path d="M-15.2581 72.871C-15.2581 75.0088 -16.9912 76.7419 -19.129 76.7419C-21.2669 76.7419 -23 75.0088 -23 72.871C-23 70.7331 -21.2669 69 -19.129 69C-16.9912 69 -15.2581 70.7331 -15.2581 72.871Z" fill="#F05252"/>
<path d="M2.80645 72.871C2.80645 75.0088 1.07336 76.7419 -1.06451 76.7419C-3.20239 76.7419 -4.93548 75.0088 -4.93548 72.871C-4.93548 70.7331 -3.20239 69 -1.06451 69C1.07336 69 2.80645 70.7331 2.80645 72.871Z" fill="#F05252"/>
<path d="M20.871 72.871C20.871 75.0088 19.1379 76.7419 17 76.7419C14.8621 76.7419 13.129 75.0088 13.129 72.871C13.129 70.7331 14.8621 69 17 69C19.1379 69 20.871 70.7331 20.871 72.871Z" fill="#F05252"/>
<path d="M38.9355 72.871C38.9355 75.0088 37.2024 76.7419 35.0645 76.7419C32.9266 76.7419 31.1936 75.0088 31.1936 72.871C31.1936 70.7331 32.9266 69 35.0645 69C37.2024 69 38.9355 70.7331 38.9355 72.871Z" fill="#F05252"/>
<path d="M57 72.871C57 75.0088 55.2669 76.7419 53.129 76.7419C50.9912 76.7419 49.2581 75.0088 49.2581 72.871C49.2581 70.7331 50.9912 69 53.129 69C55.2669 69 57 70.7331 57 72.871Z" fill="#F05252"/>
<path d="M75.0645 72.871C75.0645 75.0088 73.3314 76.7419 71.1936 76.7419C69.0557 76.7419 67.3226 75.0088 67.3226 72.871C67.3226 70.7331 69.0557 69 71.1936 69C73.3314 69 75.0645 70.7331 75.0645 72.871Z" fill="#F05252"/>
<path d="M93.129 72.871C93.129 75.0088 91.3959 76.7419 89.2581 76.7419C87.1202 76.7419 85.3871 75.0088 85.3871 72.871C85.3871 70.7331 87.1202 69 89.2581 69C91.3959 69 93.129 70.7331 93.129 72.871Z" fill="#F05252"/>
<path d="M-15.2581 90.9355C-15.2581 93.0734 -16.9912 94.8065 -19.129 94.8065C-21.2669 94.8065 -23 93.0734 -23 90.9355C-23 88.7976 -21.2669 87.0645 -19.129 87.0645C-16.9912 87.0645 -15.2581 88.7976 -15.2581 90.9355Z" fill="#F05252"/>
<path d="M2.80645 90.9355C2.80645 93.0734 1.07336 94.8065 -1.06451 94.8065C-3.20239 94.8065 -4.93548 93.0734 -4.93548 90.9355C-4.93548 88.7976 -3.20239 87.0645 -1.06451 87.0645C1.07336 87.0645 2.80645 88.7976 2.80645 90.9355Z" fill="#F05252"/>
<path d="M20.871 90.9355C20.871 93.0734 19.1379 94.8065 17 94.8065C14.8621 94.8065 13.129 93.0734 13.129 90.9355C13.129 88.7976 14.8621 87.0645 17 87.0645C19.1379 87.0645 20.871 88.7976 20.871 90.9355Z" fill="#F05252"/>
<path d="M38.9355 90.9355C38.9355 93.0734 37.2024 94.8065 35.0645 94.8065C32.9266 94.8065 31.1936 93.0734 31.1936 90.9355C31.1936 88.7976 32.9266 87.0645 35.0645 87.0645C37.2024 87.0645 38.9355 88.7976 38.9355 90.9355Z" fill="#F05252"/>
<path d="M57 90.9355C57 93.0734 55.2669 94.8065 53.129 94.8065C50.9912 94.8065 49.2581 93.0734 49.2581 90.9355C49.2581 88.7976 50.9912 87.0645 53.129 87.0645C55.2669 87.0645 57 88.7976 57 90.9355Z" fill="#F05252"/>
<path d="M75.0645 90.9355C75.0645 93.0734 73.3314 94.8065 71.1936 94.8065C69.0557 94.8065 67.3226 93.0734 67.3226 90.9355C67.3226 88.7976 69.0557 87.0645 71.1936 87.0645C73.3314 87.0645 75.0645 88.7976 75.0645 90.9355Z" fill="#F05252"/>
<path d="M93.129 90.9355C93.129 93.0734 91.3959 94.8065 89.2581 94.8065C87.1202 94.8065 85.3871 93.0734 85.3871 90.9355C85.3871 88.7976 87.1202 87.0645 89.2581 87.0645C91.3959 87.0645 93.129 88.7976 93.129 90.9355Z" fill="#F05252"/>
<path d="M-15.2581 109C-15.2581 111.138 -16.9912 112.871 -19.129 112.871C-21.2669 112.871 -23 111.138 -23 109C-23 106.862 -21.2669 105.129 -19.129 105.129C-16.9912 105.129 -15.2581 106.862 -15.2581 109Z" fill="#F05252"/>
<path d="M2.80645 109C2.80645 111.138 1.07336 112.871 -1.06451 112.871C-3.20239 112.871 -4.93548 111.138 -4.93548 109C-4.93548 106.862 -3.20239 105.129 -1.06451 105.129C1.07336 105.129 2.80645 106.862 2.80645 109Z" fill="#F05252"/>
<path d="M20.871 109C20.871 111.138 19.1379 112.871 17 112.871C14.8621 112.871 13.129 111.138 13.129 109C13.129 106.862 14.8621 105.129 17 105.129C19.1379 105.129 20.871 106.862 20.871 109Z" fill="#F05252"/>
<path d="M38.9355 109C38.9355 111.138 37.2024 112.871 35.0645 112.871C32.9266 112.871 31.1936 111.138 31.1936 109C31.1936 106.862 32.9266 105.129 35.0645 105.129C37.2024 105.129 38.9355 106.862 38.9355 109Z" fill="#F05252"/>
<path d="M57 109C57 111.138 55.2669 112.871 53.129 112.871C50.9912 112.871 49.2581 111.138 49.2581 109C49.2581 106.862 50.9912 105.129 53.129 105.129C55.2669 105.129 57 106.862 57 109Z" fill="#F05252"/>
<path d="M75.0645 109C75.0645 111.138 73.3314 112.871 71.1936 112.871C69.0557 112.871 67.3226 111.138 67.3226 109C67.3226 106.862 69.0557 105.129 71.1936 105.129C73.3314 105.129 75.0645 106.862 75.0645 109Z" fill="#F05252"/>
<path d="M93.129 109C93.129 111.138 91.3959 112.871 89.2581 112.871C87.1202 112.871 85.3871 111.138 85.3871 109C85.3871 106.862 87.1202 105.129 89.2581 105.129C91.3959 105.129 93.129 106.862 93.129 109Z" fill="#F05252"/>
<path d="M-15.2581 127.065C-15.2581 129.202 -16.9912 130.935 -19.129 130.935C-21.2669 130.935 -23 129.202 -23 127.065C-23 124.927 -21.2669 123.194 -19.129 123.194C-16.9912 123.194 -15.2581 124.927 -15.2581 127.065Z" fill="#F05252"/>
<path d="M2.80645 127.065C2.80645 129.202 1.07336 130.935 -1.06451 130.935C-3.20239 130.935 -4.93548 129.202 -4.93548 127.065C-4.93548 124.927 -3.20239 123.194 -1.06451 123.194C1.07336 123.194 2.80645 124.927 2.80645 127.065Z" fill="#F05252"/>
<path d="M20.871 127.065C20.871 129.202 19.1379 130.935 17 130.935C14.8621 130.935 13.129 129.202 13.129 127.065C13.129 124.927 14.8621 123.194 17 123.194C19.1379 123.194 20.871 124.927 20.871 127.065Z" fill="#F05252"/>
<path d="M38.9355 127.065C38.9355 129.202 37.2024 130.935 35.0645 130.935C32.9266 130.935 31.1936 129.202 31.1936 127.065C31.1936 124.927 32.9266 123.194 35.0645 123.194C37.2024 123.194 38.9355 124.927 38.9355 127.065Z" fill="#F05252"/>
<path d="M57 127.065C57 129.202 55.2669 130.935 53.129 130.935C50.9912 130.935 49.2581 129.202 49.2581 127.065C49.2581 124.927 50.9912 123.194 53.129 123.194C55.2669 123.194 57 124.927 57 127.065Z" fill="#F05252"/>
<path d="M75.0645 127.065C75.0645 129.202 73.3314 130.935 71.1936 130.935C69.0557 130.935 67.3226 129.202 67.3226 127.065C67.3226 124.927 69.0557 123.194 71.1936 123.194C73.3314 123.194 75.0645 124.927 75.0645 127.065Z" fill="#F05252"/>
<path d="M93.129 127.065C93.129 129.202 91.3959 130.935 89.2581 130.935C87.1202 130.935 85.3871 129.202 85.3871 127.065C85.3871 124.927 87.1202 123.194 89.2581 123.194C91.3959 123.194 93.129 124.927 93.129 127.065Z" fill="#F05252"/>
<path d="M-15.2581 145.129C-15.2581 147.267 -16.9912 149 -19.129 149C-21.2669 149 -23 147.267 -23 145.129C-23 142.991 -21.2669 141.258 -19.129 141.258C-16.9912 141.258 -15.2581 142.991 -15.2581 145.129Z" fill="#F05252"/>
<path d="M2.80645 145.129C2.80645 147.267 1.07336 149 -1.06451 149C-3.20239 149 -4.93548 147.267 -4.93548 145.129C-4.93548 142.991 -3.20239 141.258 -1.06451 141.258C1.07336 141.258 2.80645 142.991 2.80645 145.129Z" fill="#F05252"/>
<path d="M20.871 145.129C20.871 147.267 19.1379 149 17 149C14.8621 149 13.129 147.267 13.129 145.129C13.129 142.991 14.8621 141.258 17 141.258C19.1379 141.258 20.871 142.991 20.871 145.129Z" fill="#F05252"/>
<path d="M38.9355 145.129C38.9355 147.267 37.2024 149 35.0645 149C32.9266 149 31.1936 147.267 31.1936 145.129C31.1936 142.991 32.9266 141.258 35.0645 141.258C37.2024 141.258 38.9355 142.991 38.9355 145.129Z" fill="#F05252"/>
<path d="M57 145.129C57 147.267 55.2669 149 53.129 149C50.9912 149 49.2581 147.267 49.2581 145.129C49.2581 142.991 50.9912 141.258 53.129 141.258C55.2669 141.258 57 142.991 57 145.129Z" fill="#F05252"/>
<path d="M75.0645 145.129C75.0645 147.267 73.3314 149 71.1936 149C69.0557 149 67.3226 147.267 67.3226 145.129C67.3226 142.991 69.0557 141.258 71.1936 141.258C73.3314 141.258 75.0645 142.991 75.0645 145.129Z" fill="#F05252"/>
<path d="M93.129 145.129C93.129 147.267 91.3959 149 89.2581 149C87.1202 149 85.3871 147.267 85.3871 145.129C85.3871 142.991 87.1202 141.258 89.2581 141.258C91.3959 141.258 93.129 142.991 93.129 145.129Z" fill="#F05252"/>
<path d="M514.742 883.871C514.742 886.009 513.009 887.742 510.871 887.742C508.733 887.742 507 886.009 507 883.871C507 881.733 508.733 880 510.871 880C513.009 880 514.742 881.733 514.742 883.871Z" fill="#FFCE91"/>
<path d="M532.806 883.871C532.806 886.009 531.073 887.742 528.935 887.742C526.798 887.742 525.065 886.009 525.065 883.871C525.065 881.733 526.798 880 528.935 880C531.073 880 532.806 881.733 532.806 883.871Z" fill="#FFCE91"/>
<path d="M550.871 883.871C550.871 886.009 549.138 887.742 547 887.742C544.862 887.742 543.129 886.009 543.129 883.871C543.129 881.733 544.862 880 547 880C549.138 880 550.871 881.733 550.871 883.871Z" fill="#FFCE91"/>
<path d="M568.935 883.871C568.935 886.009 567.202 887.742 565.065 887.742C562.927 887.742 561.194 886.009 561.194 883.871C561.194 881.733 562.927 880 565.065 880C567.202 880 568.935 881.733 568.935 883.871Z" fill="#FFCE91"/>
<path d="M587 883.871C587 886.009 585.267 887.742 583.129 887.742C580.991 887.742 579.258 886.009 579.258 883.871C579.258 881.733 580.991 880 583.129 880C585.267 880 587 881.733 587 883.871Z" fill="#FFCE91"/>
<path d="M605.065 883.871C605.065 886.009 603.331 887.742 601.194 887.742C599.056 887.742 597.323 886.009 597.323 883.871C597.323 881.733 599.056 880 601.194 880C603.331 880 605.065 881.733 605.065 883.871Z" fill="#FFCE91"/>
<path d="M623.129 883.871C623.129 886.009 621.396 887.742 619.258 887.742C617.12 887.742 615.387 886.009 615.387 883.871C615.387 881.733 617.12 880 619.258 880C621.396 880 623.129 881.733 623.129 883.871Z" fill="#FFCE91"/>
<path d="M514.742 901.935C514.742 904.073 513.009 905.806 510.871 905.806C508.733 905.806 507 904.073 507 901.935C507 899.798 508.733 898.065 510.871 898.065C513.009 898.065 514.742 899.798 514.742 901.935Z" fill="#FFCE91"/>
<path d="M532.806 901.935C532.806 904.073 531.073 905.806 528.935 905.806C526.798 905.806 525.065 904.073 525.065 901.935C525.065 899.798 526.798 898.065 528.935 898.065C531.073 898.065 532.806 899.798 532.806 901.935Z" fill="#FFCE91"/>
<path d="M550.871 901.935C550.871 904.073 549.138 905.806 547 905.806C544.862 905.806 543.129 904.073 543.129 901.935C543.129 899.798 544.862 898.065 547 898.065C549.138 898.065 550.871 899.798 550.871 901.935Z" fill="#FFCE91"/>
<path d="M568.935 901.935C568.935 904.073 567.202 905.806 565.065 905.806C562.927 905.806 561.194 904.073 561.194 901.935C561.194 899.798 562.927 898.065 565.065 898.065C567.202 898.065 568.935 899.798 568.935 901.935Z" fill="#FFCE91"/>
<path d="M587 901.935C587 904.073 585.267 905.806 583.129 905.806C580.991 905.806 579.258 904.073 579.258 901.935C579.258 899.798 580.991 898.065 583.129 898.065C585.267 898.065 587 899.798 587 901.935Z" fill="#FFCE91"/>
<path d="M605.065 901.935C605.065 904.073 603.331 905.806 601.194 905.806C599.056 905.806 597.323 904.073 597.323 901.935C597.323 899.798 599.056 898.065 601.194 898.065C603.331 898.065 605.065 899.798 605.065 901.935Z" fill="#FFCE91"/>
<path d="M623.129 901.935C623.129 904.073 621.396 905.806 619.258 905.806C617.12 905.806 615.387 904.073 615.387 901.935C615.387 899.798 617.12 898.065 619.258 898.065C621.396 898.065 623.129 899.798 623.129 901.935Z" fill="#FFCE91"/>
<path d="M514.742 920C514.742 922.138 513.009 923.871 510.871 923.871C508.733 923.871 507 922.138 507 920C507 917.862 508.733 916.129 510.871 916.129C513.009 916.129 514.742 917.862 514.742 920Z" fill="#FFCE91"/>
<path d="M532.806 920C532.806 922.138 531.073 923.871 528.935 923.871C526.798 923.871 525.065 922.138 525.065 920C525.065 917.862 526.798 916.129 528.935 916.129C531.073 916.129 532.806 917.862 532.806 920Z" fill="#FFCE91"/>
<path d="M550.871 920C550.871 922.138 549.138 923.871 547 923.871C544.862 923.871 543.129 922.138 543.129 920C543.129 917.862 544.862 916.129 547 916.129C549.138 916.129 550.871 917.862 550.871 920Z" fill="#FFCE91"/>
<path d="M568.935 920C568.935 922.138 567.202 923.871 565.065 923.871C562.927 923.871 561.194 922.138 561.194 920C561.194 917.862 562.927 916.129 565.065 916.129C567.202 916.129 568.935 917.862 568.935 920Z" fill="#FFCE91"/>
<path d="M587 920C587 922.138 585.267 923.871 583.129 923.871C580.991 923.871 579.258 922.138 579.258 920C579.258 917.862 580.991 916.129 583.129 916.129C585.267 916.129 587 917.862 587 920Z" fill="#FFCE91"/>
<path d="M605.065 920C605.065 922.138 603.331 923.871 601.194 923.871C599.056 923.871 597.323 922.138 597.323 920C597.323 917.862 599.056 916.129 601.194 916.129C603.331 916.129 605.065 917.862 605.065 920Z" fill="#FFCE91"/>
<path d="M623.129 920C623.129 922.138 621.396 923.871 619.258 923.871C617.12 923.871 615.387 922.138 615.387 920C615.387 917.862 617.12 916.129 619.258 916.129C621.396 916.129 623.129 917.862 623.129 920Z" fill="#FFCE91"/>
<path d="M514.742 938.065C514.742 940.202 513.009 941.935 510.871 941.935C508.733 941.935 507 940.202 507 938.065C507 935.927 508.733 934.194 510.871 934.194C513.009 934.194 514.742 935.927 514.742 938.065Z" fill="#FFCE91"/>
<path d="M532.806 938.065C532.806 940.202 531.073 941.935 528.935 941.935C526.798 941.935 525.065 940.202 525.065 938.065C525.065 935.927 526.798 934.194 528.935 934.194C531.073 934.194 532.806 935.927 532.806 938.065Z" fill="#FFCE91"/>
<path d="M550.871 938.065C550.871 940.202 549.138 941.935 547 941.935C544.862 941.935 543.129 940.202 543.129 938.065C543.129 935.927 544.862 934.194 547 934.194C549.138 934.194 550.871 935.927 550.871 938.065Z" fill="#FFCE91"/>
<path d="M568.935 938.065C568.935 940.202 567.202 941.935 565.065 941.935C562.927 941.935 561.194 940.202 561.194 938.065C561.194 935.927 562.927 934.194 565.065 934.194C567.202 934.194 568.935 935.927 568.935 938.065Z" fill="#FFCE91"/>
<path d="M587 938.065C587 940.202 585.267 941.935 583.129 941.935C580.991 941.935 579.258 940.202 579.258 938.065C579.258 935.927 580.991 934.194 583.129 934.194C585.267 934.194 587 935.927 587 938.065Z" fill="#FFCE91"/>
<path d="M605.065 938.065C605.065 940.202 603.331 941.935 601.194 941.935C599.056 941.935 597.323 940.202 597.323 938.065C597.323 935.927 599.056 934.194 601.194 934.194C603.331 934.194 605.065 935.927 605.065 938.065Z" fill="#FFCE91"/>
<path d="M623.129 938.065C623.129 940.202 621.396 941.935 619.258 941.935C617.12 941.935 615.387 940.202 615.387 938.065C615.387 935.927 617.12 934.194 619.258 934.194C621.396 934.194 623.129 935.927 623.129 938.065Z" fill="#FFCE91"/>
<path d="M514.742 956.129C514.742 958.267 513.009 960 510.871 960C508.733 960 507 958.267 507 956.129C507 953.991 508.733 952.258 510.871 952.258C513.009 952.258 514.742 953.991 514.742 956.129Z" fill="#FFCE91"/>
<path d="M532.806 956.129C532.806 958.267 531.073 960 528.935 960C526.798 960 525.065 958.267 525.065 956.129C525.065 953.991 526.798 952.258 528.935 952.258C531.073 952.258 532.806 953.991 532.806 956.129Z" fill="#FFCE91"/>
<path d="M550.871 956.129C550.871 958.267 549.138 960 547 960C544.862 960 543.129 958.267 543.129 956.129C543.129 953.991 544.862 952.258 547 952.258C549.138 952.258 550.871 953.991 550.871 956.129Z" fill="#FFCE91"/>
<path d="M568.935 956.129C568.935 958.267 567.202 960 565.065 960C562.927 960 561.194 958.267 561.194 956.129C561.194 953.991 562.927 952.258 565.065 952.258C567.202 952.258 568.935 953.991 568.935 956.129Z" fill="#FFCE91"/>
<path d="M587 956.129C587 958.267 585.267 960 583.129 960C580.991 960 579.258 958.267 579.258 956.129C579.258 953.991 580.991 952.258 583.129 952.258C585.267 952.258 587 953.991 587 956.129Z" fill="#FFCE91"/>
<path d="M605.065 956.129C605.065 958.267 603.331 960 601.194 960C599.056 960 597.323 958.267 597.323 956.129C597.323 953.991 599.056 952.258 601.194 952.258C603.331 952.258 605.065 953.991 605.065 956.129Z" fill="#FFCE91"/>
<path d="M623.129 956.129C623.129 958.267 621.396 960 619.258 960C617.12 960 615.387 958.267 615.387 956.129C615.387 953.991 617.12 952.258 619.258 952.258C621.396 952.258 623.129 953.991 623.129 956.129Z" fill="#FFCE91"/>
</g>
<defs>
<linearGradient id="paint0_linear_1128_18092" x1="128.908" y1="676.29" x2="128.908" y2="369.001" gradientUnits="userSpaceOnUse">
<stop stop-color="#808080" stop-opacity="0.25"/>
<stop offset="0.54" stop-color="#808080" stop-opacity="0.12"/>
<stop offset="1" stop-color="#808080" stop-opacity="0.1"/>
</linearGradient>
<clipPath id="clip0_1128_18092">
<rect width="593" height="1024" fill="white"/>
</clipPath>
</defs>
</svg>
