<svg width="12" height="14" viewBox="0 0 12 14" fill="none" xmlns="http://www.w3.org/2000/svg">
<path d="M4.90788 10.4169C4.83529 10.4843 4.72381 10.518 4.57344 10.518H4.14177V9.72856H4.57344C4.86899 9.72856 5.01677 9.86079 5.01677 10.1252C5.01677 10.2497 4.98047 10.3469 4.90788 10.4169Z" fill="#0070D2"/>
<path fill-rule="evenodd" clip-rule="evenodd" d="M0 2.55523V11.4441C0 12.6714 0.994923 13.6663 2.22222 13.6663H9.16667C10.394 13.6663 11.3889 12.6714 11.3889 11.4441V3.57102C11.3889 3.27634 11.2718 2.99372 11.0635 2.78535L8.93655 0.658444C8.72817 0.450071 8.44556 0.333008 8.15087 0.333008H2.22222C0.994923 0.333008 0 1.32793 0 2.55523ZM2.96222 11.1908V9.28523H2.41389V11.1908C2.41389 11.2997 2.38796 11.3852 2.33611 11.4475C2.28426 11.5097 2.20907 11.5408 2.11056 11.5408C2.00944 11.5408 1.93167 11.5084 1.87722 11.4436C1.82537 11.3787 1.79815 11.288 1.79556 11.1713H1.25111C1.25111 11.441 1.33019 11.651 1.48833 11.8013C1.64907 11.9517 1.85907 12.0269 2.11833 12.0269C2.375 12.0269 2.57981 11.9543 2.73278 11.8091C2.88574 11.6613 2.96222 11.4552 2.96222 11.1908ZM5.47177 10.5336C5.54177 10.4065 5.57677 10.2704 5.57677 10.1252C5.57677 9.96449 5.53918 9.8206 5.46399 9.69356C5.3914 9.56653 5.28122 9.46671 5.13344 9.39412C4.98566 9.32153 4.80677 9.28523 4.59677 9.28523H3.59733V11.9997H4.14177V10.9575H4.59677C4.81973 10.9575 5.00381 10.9186 5.14899 10.8408C5.29677 10.763 5.40436 10.6606 5.47177 10.5336ZM7.59665 9.84134C7.70554 9.90097 7.7911 9.98782 7.85332 10.1019H8.47943C8.39388 9.83227 8.23832 9.62356 8.01276 9.47579C7.78721 9.32542 7.52147 9.25023 7.21554 9.25023C6.95628 9.25023 6.72036 9.30986 6.50777 9.42912C6.29777 9.54579 6.13184 9.71042 6.00999 9.92301C5.89073 10.133 5.8311 10.3715 5.8311 10.6386C5.8311 10.9056 5.89073 11.1441 6.00999 11.3541C6.13184 11.5641 6.29777 11.7287 6.50777 11.848C6.72036 11.9647 6.95758 12.023 7.21943 12.023C7.45277 12.023 7.66277 11.975 7.84943 11.8791C8.03869 11.7806 8.19295 11.651 8.31221 11.4902C8.43147 11.3295 8.50925 11.1545 8.54554 10.9652V10.4908H7.07554V10.9069H8.00888C7.9674 11.1039 7.88054 11.2582 7.74832 11.3697C7.6161 11.4786 7.44628 11.533 7.23888 11.533C7.07036 11.533 6.92258 11.4967 6.79554 11.4241C6.66851 11.3515 6.56869 11.2478 6.4961 11.113C6.4261 10.9782 6.3911 10.82 6.3911 10.6386C6.3911 10.4623 6.4261 10.3067 6.4961 10.1719C6.5661 10.0371 6.66332 9.93338 6.78777 9.86079C6.91221 9.78819 7.0548 9.7519 7.21554 9.7519C7.36073 9.7519 7.48777 9.78171 7.59665 9.84134Z" fill="#0070D2"/>
</svg>
