<svg width="12" height="14" viewBox="0 0 12 14" fill="none" xmlns="http://www.w3.org/2000/svg">
<path d="M2.91556 10.1908C2.83259 10.2678 2.70519 10.3063 2.53333 10.3063H2.04V9.40412H2.53333C2.87111 9.40412 3.04 9.55523 3.04 9.85745C3.04 9.99967 2.99852 10.1108 2.91556 10.1908Z" fill="#F05252"/>
<path d="M5.93955 11.2041C5.76177 11.3819 5.50992 11.4708 5.18399 11.4708H4.74399V9.4219H5.18399C5.50992 9.4219 5.76177 9.51375 5.93955 9.69745C6.11733 9.87819 6.20622 10.13 6.20622 10.453C6.20622 10.776 6.11733 11.0263 5.93955 11.2041Z" fill="#F05252"/>
<path fill-rule="evenodd" clip-rule="evenodd" d="M0 2.55523V11.4441C0 12.6714 0.994923 13.6663 2.22222 13.6663H9.16667C10.394 13.6663 11.3889 12.6714 11.3889 11.4441V3.57102C11.3889 3.27634 11.2718 2.99372 11.0635 2.78535L8.93655 0.658444C8.72817 0.450071 8.44556 0.333008 8.15087 0.333008H2.22222C0.994923 0.333008 0 1.32793 0 2.55523ZM3.56 10.3241C3.64 10.1789 3.68 10.0234 3.68 9.85745C3.68 9.67375 3.63704 9.50931 3.55111 9.36412C3.46815 9.21893 3.34222 9.10486 3.17333 9.0219C3.00444 8.93893 2.8 8.89745 2.56 8.89745H1.41778V11.9997H2.04V10.8086H2.56C2.81481 10.8086 3.02519 10.7641 3.19111 10.6752C3.36 10.5863 3.48296 10.4693 3.56 10.3241ZM6.06399 9.08856C5.81807 8.96116 5.53214 8.89745 5.20622 8.89745H4.12177V11.9997H5.20622C5.53214 11.9997 5.81807 11.936 6.06399 11.8086C6.31288 11.6812 6.50399 11.5019 6.63733 11.2708C6.77362 11.0367 6.84177 10.7641 6.84177 10.453C6.84177 10.1419 6.77362 9.8693 6.63733 9.63523C6.50399 9.39819 6.31288 9.21597 6.06399 9.08856ZM9.22309 9.39967V8.89745H7.30754V11.9997H7.92976V10.6886H8.92087V10.1952H7.92976V9.39967H9.22309Z" fill="#F05252"/>
</svg>
