<svg width="12" height="14" viewBox="0 0 12 14" fill="none" xmlns="http://www.w3.org/2000/svg">
<path d="M2.69 10.4169C2.61741 10.4843 2.50593 10.518 2.35556 10.518H1.92389V9.72856H2.35556C2.65111 9.72856 2.79889 9.86079 2.79889 10.1252C2.79889 10.2497 2.76259 10.3469 2.69 10.4169Z" fill="#31C48D"/>
<path fill-rule="evenodd" clip-rule="evenodd" d="M0 2.55523V11.4441C0 12.6714 0.994923 13.6663 2.22222 13.6663H9.16667C10.394 13.6663 11.3889 12.6714 11.3889 11.4441V3.57102C11.3889 3.27634 11.2718 2.99372 11.0635 2.78535L8.93655 0.658444C8.72817 0.450071 8.44556 0.333008 8.15087 0.333008H2.22222C0.994923 0.333008 0 1.32793 0 2.55523ZM3.25389 10.5336C3.32389 10.4065 3.35889 10.2704 3.35889 10.1252C3.35889 9.96449 3.3213 9.8206 3.24611 9.69356C3.17352 9.56653 3.06333 9.46671 2.91556 9.39412C2.76778 9.32153 2.58889 9.28523 2.37889 9.28523H1.37944V11.9997H1.92389V10.9575H2.37889C2.60185 10.9575 2.78593 10.9186 2.93111 10.8408C3.07889 10.763 3.18648 10.6606 3.25389 10.5336ZM5.52266 11.9997H6.06711V9.28134H5.52266V11.148L4.28988 9.28134H3.74544V11.9997H4.28988V10.1369L5.52266 11.9997ZM8.23847 9.84134C8.34736 9.90097 8.43292 9.98782 8.49514 10.1019H9.12125C9.0357 9.83227 8.88014 9.62356 8.65458 9.47579C8.42903 9.32542 8.16329 9.25023 7.85736 9.25023C7.5981 9.25023 7.36218 9.30986 7.14958 9.42912C6.93958 9.54579 6.77366 9.71042 6.65181 9.92301C6.53255 10.133 6.47292 10.3715 6.47292 10.6386C6.47292 10.9056 6.53255 11.1441 6.65181 11.3541C6.77366 11.5641 6.93958 11.7287 7.14958 11.848C7.36218 11.9647 7.5994 12.023 7.86125 12.023C8.09458 12.023 8.30458 11.975 8.49125 11.8791C8.68051 11.7806 8.83477 11.651 8.95403 11.4902C9.07329 11.3295 9.15106 11.1545 9.18736 10.9652V10.4908H7.71736V10.9069H8.65069C8.60921 11.1039 8.52236 11.2582 8.39014 11.3697C8.25792 11.4786 8.0881 11.533 7.88069 11.533C7.71218 11.533 7.5644 11.4967 7.43736 11.4241C7.31032 11.3515 7.21051 11.2478 7.13792 11.113C7.06792 10.9782 7.03292 10.82 7.03292 10.6386C7.03292 10.4623 7.06792 10.3067 7.13792 10.1719C7.20792 10.0371 7.30514 9.93338 7.42958 9.86079C7.55403 9.78819 7.69662 9.7519 7.85736 9.7519C8.00255 9.7519 8.12958 9.78171 8.23847 9.84134Z" fill="#31C48D"/>
</svg>
