<svg width="16" height="18" viewBox="0 0 16 18" fill="none" xmlns="http://www.w3.org/2000/svg">
<path d="M3.3791 17.1288L3.5336 16.6532L3.3791 17.1288ZM0.703931 14.4536L1.17946 14.2991L0.703931 14.4536ZM15.2961 14.4536L14.8205 14.2991L15.2961 14.4536ZM12.6209 17.1288L12.4664 16.6532L12.6209 17.1288ZM12.6209 5.86995L12.4664 6.34548L12.6209 5.86995ZM15.2961 8.54511L14.8205 8.69962L15.2961 8.54511ZM3.3791 5.86995L3.5336 6.34548L3.3791 5.86995ZM0.703931 8.54511L1.17946 8.69962L0.703931 8.54511ZM7.5 14.8327C7.5 15.1088 7.72386 15.3327 8 15.3327C8.27614 15.3327 8.5 15.1088 8.5 14.8327H7.5ZM6.33333 6.16602H9.66667V5.16602H6.33333V6.16602ZM9.66667 16.8327H6.33333V17.8327H9.66667V16.8327ZM6.33333 16.8327C4.74335 16.8327 4.06694 16.8265 3.5336 16.6532L3.22459 17.6043C3.94652 17.8389 4.82118 17.8327 6.33333 17.8327V16.8327ZM0 11.4993C0 13.0115 -0.00616866 13.8862 0.228403 14.6081L1.17946 14.2991C1.00617 13.7657 1 13.0893 1 11.4993H0ZM3.5336 16.6532C2.41733 16.2905 1.54216 15.4153 1.17946 14.2991L0.228403 14.6081C0.69002 16.0288 1.80388 17.1427 3.22459 17.6043L3.5336 16.6532ZM15 11.4993C15 13.0893 14.9938 13.7657 14.8205 14.2991L15.7716 14.6081C16.0062 13.8862 16 13.0115 16 11.4993H15ZM9.66667 17.8327C11.1788 17.8327 12.0535 17.8389 12.7754 17.6043L12.4664 16.6532C11.9331 16.8265 11.2567 16.8327 9.66667 16.8327V17.8327ZM14.8205 14.2991C14.4578 15.4153 13.5827 16.2905 12.4664 16.6532L12.7754 17.6043C14.1961 17.1427 15.31 16.0288 15.7716 14.6081L14.8205 14.2991ZM16 11.4993C16 9.9872 16.0062 9.11254 15.7716 8.3906L14.8205 8.69962C14.9938 9.23295 15 9.90936 15 11.4993H16ZM12.4664 6.34548C13.5827 6.70817 14.4578 7.58335 14.8205 8.69962L15.7716 8.3906C15.31 6.96989 14.1961 5.85604 12.7754 5.39442L12.4664 6.34548ZM1 11.4993C1 9.90936 1.00617 9.23295 1.17946 8.69962L0.228403 8.3906C-0.00616866 9.11254 0 9.9872 0 11.4993H1ZM3.22459 5.39442C1.80388 5.85604 0.69002 6.96989 0.228403 8.3906L1.17946 8.69962C1.54216 7.58335 2.41733 6.70817 3.5336 6.34548L3.22459 5.39442ZM11.6667 4.83268V5.66602H12.6667V4.83268H11.6667ZM4.33333 5.66602V4.83268H3.33333V5.66602H4.33333ZM8 1.16602C10.025 1.16602 11.6667 2.80764 11.6667 4.83268H12.6667C12.6667 2.25535 10.5773 0.166016 8 0.166016V1.16602ZM8 0.166016C5.42267 0.166016 3.33333 2.25535 3.33333 4.83268H4.33333C4.33333 2.80764 5.97496 1.16602 8 1.16602V0.166016ZM7.5 11.4993V14.8327H8.5V11.4993H7.5ZM5.83333 9.83268C5.83333 11.0293 6.80338 11.9993 8 11.9993V10.9993C7.35567 10.9993 6.83333 10.477 6.83333 9.83268H5.83333ZM8 11.9993C9.19662 11.9993 10.1667 11.0293 10.1667 9.83268H9.16667C9.16667 10.477 8.64433 10.9993 8 10.9993V11.9993ZM10.1667 9.83268C10.1667 8.63607 9.19662 7.66602 8 7.66602V8.66602C8.64433 8.66602 9.16667 9.18835 9.16667 9.83268H10.1667ZM8 7.66602C6.80338 7.66602 5.83333 8.63607 5.83333 9.83268H6.83333C6.83333 9.18835 7.35567 8.66602 8 8.66602V7.66602ZM6.33333 5.16602C5.15207 5.16602 4.36436 5.16427 3.75027 5.26773L3.9164 6.25383C4.4273 6.16776 5.11182 6.16602 6.33333 6.16602V5.16602ZM3.75027 5.26773C3.56573 5.29882 3.3925 5.33986 3.22459 5.39442L3.5336 6.34548C3.64869 6.30808 3.77349 6.27791 3.9164 6.25383L3.75027 5.26773ZM3.33333 5.66602V5.76078H4.33333V5.66602H3.33333ZM9.66667 6.16602C10.8882 6.16602 11.5727 6.16776 12.0836 6.25383L12.2497 5.26773C11.6356 5.16427 10.8479 5.16602 9.66667 5.16602V6.16602ZM12.0836 6.25383C12.2265 6.27791 12.3513 6.30808 12.4664 6.34548L12.7754 5.39442C12.6075 5.33986 12.4343 5.29882 12.2497 5.26773L12.0836 6.25383ZM11.6667 5.66602V5.76078H12.6667V5.66602H11.6667Z" fill="#3D3D3D"/>
</svg>
