<svg width="16" height="17" viewBox="0 0 16 17" fill="none" xmlns="http://www.w3.org/2000/svg">
<path d="M4.81963 13.9993L5.15297 14.5708C6.65297 17.1422 9.65297 17.1422 11.153 14.5708L11.4863 13.9993M1.63866 11.9574L1.72478 12.1349C2.27792 13.2753 3.43394 13.9993 4.70136 13.9993H11.552C12.6381 13.9993 13.6489 13.4445 14.2321 12.5282C15.0552 11.2348 14.8372 9.53807 13.7138 8.49479L13.6773 8.46082C12.9145 7.75248 12.539 6.72054 12.6681 5.68767L12.722 5.25689C13.0267 2.81918 11.1259 0.666016 8.66922 0.666016H7.25012C4.79643 0.666016 2.89797 2.81655 3.20232 5.2513L3.26845 5.78034C3.39023 6.75461 3.03435 7.72776 2.31278 8.39362C1.32718 9.30312 1.05335 10.7507 1.63866 11.9574Z" stroke="#3D3D3D" stroke-linecap="round"/>
</svg>
