<svg width="14" height="18" viewBox="0 0 14 18" fill="none" xmlns="http://www.w3.org/2000/svg">
<path fill-rule="evenodd" clip-rule="evenodd" d="M7.00374 0.666016C4.55872 0.666016 2.57664 2.65655 2.57664 5.11199C2.57664 7.56744 4.55872 9.55797 7.00374 9.55797C9.44876 9.55797 11.4308 7.56744 11.4308 5.11199C11.4308 2.65655 9.44876 0.666016 7.00374 0.666016ZM7.00374 1.87241C8.78532 1.87241 10.2296 3.32282 10.2296 5.11199C10.2296 6.90117 8.78532 8.35158 7.00374 8.35158C5.22216 8.35158 3.77791 6.90117 3.77791 5.11199C3.77791 3.32282 5.22216 1.87241 7.00374 1.87241ZM5.19187 11.3501C4.54377 11.3951 3.88867 11.4876 3.24249 11.6261C1.99531 11.883 0.99754 12.3963 0.572862 13.2492C0.412686 13.5828 0.332154 13.94 0.333513 14.3016C0.333032 14.6606 0.412912 15.0182 0.567344 15.3454C0.975115 16.1886 1.85667 16.6657 3.04703 16.9302L3.26027 16.9747C3.8889 17.1166 4.5442 17.2121 5.20388 17.2569C5.26007 17.2733 5.39398 17.2887 5.54013 17.2961L5.66035 17.3006C5.72216 17.3021 5.79231 17.3024 5.89684 17.3024C6.84503 17.3546 7.82801 17.3394 8.80643 17.2561C9.32783 17.2204 9.85274 17.1522 10.3733 17.0523L10.7627 16.9715C12.0481 16.7179 13.0106 16.2357 13.4323 15.3464C13.745 14.6861 13.745 13.9199 13.4325 13.26C13.0118 12.3729 12.0616 11.8947 10.753 11.6251C10.2396 11.5155 9.71783 11.4344 9.19239 11.3826L8.80825 11.3501C7.60511 11.244 6.39501 11.244 5.19187 11.3501ZM8.70313 12.5519L8.71369 12.5527C9.31673 12.5951 9.91608 12.6798 10.5074 12.806C11.4794 13.0063 12.1391 13.3382 12.3477 13.7783C12.5049 14.1102 12.5049 14.4958 12.3476 14.828C12.1526 15.2392 11.5602 15.557 10.7039 15.7511L10.5164 15.7908C9.91348 15.9253 9.31611 16.0121 8.71479 16.0533C7.78177 16.1326 6.85428 16.1469 5.92913 16.0969L5.60113 16.0913C5.51008 16.0866 5.43334 16.0779 5.36222 16.0636C4.7991 16.0211 4.29238 15.9538 3.80038 15.8563L3.50662 15.7941C2.53158 15.603 1.86612 15.2696 1.65036 14.8235C1.57486 14.6635 1.53453 14.4829 1.53477 14.3001C1.5341 14.1184 1.57389 13.9419 1.65115 13.7809C1.86093 13.3597 2.56615 12.9969 3.48854 12.8069C4.0841 12.6793 4.68317 12.5947 5.28594 12.5527C6.43018 12.4519 7.56993 12.4519 8.70313 12.5519Z" fill="#3D3D3D"/>
</svg>
