<svg width="20" height="15" viewBox="0 0 20 15" fill="none" xmlns="http://www.w3.org/2000/svg">
<path fill-rule="evenodd" clip-rule="evenodd" d="M9.99992 0.833374C8.27403 0.833374 6.87492 2.23248 6.87492 3.95837C6.87492 5.68426 8.27403 7.08337 9.99992 7.08337C11.7258 7.08337 13.1249 5.68426 13.1249 3.95837C13.1249 2.23248 11.7258 0.833374 9.99992 0.833374ZM8.12492 3.95837C8.12492 2.92284 8.96439 2.08337 9.99992 2.08337C11.0355 2.08337 11.8749 2.92284 11.8749 3.95837C11.8749 4.99391 11.0355 5.83337 9.99992 5.83337C8.96439 5.83337 8.12492 4.99391 8.12492 3.95837Z" fill="#6B7280"/>
<path fill-rule="evenodd" clip-rule="evenodd" d="M7.49992 8.33337C5.77403 8.33337 4.37492 9.73248 4.37492 11.4584C4.37492 13.1843 5.77403 14.5834 7.49992 14.5834H12.4999C14.2258 14.5834 15.6249 13.1843 15.6249 11.4584C15.6249 9.73248 14.2258 8.33337 12.4999 8.33337H7.49992ZM5.62492 11.4584C5.62492 10.4228 6.46439 9.58337 7.49992 9.58337H12.4999C13.5355 9.58337 14.3749 10.4228 14.3749 11.4584C14.3749 12.4939 13.5355 13.3334 12.4999 13.3334H7.49992C6.46439 13.3334 5.62492 12.4939 5.62492 11.4584Z" fill="#6B7280"/>
<path d="M6.46004 6.15725C6.3286 5.9461 6.08197 5.83337 5.83325 5.83337C4.79772 5.83337 3.95825 4.99391 3.95825 3.95837C3.95825 2.92284 4.79772 2.08337 5.83325 2.08337C6.08197 2.08337 6.3286 1.97065 6.46004 1.7595C6.46585 1.75016 6.4717 1.74084 6.47758 1.73155C6.69642 1.38613 6.58554 0.897041 6.17909 0.852293C6.06553 0.839792 5.95014 0.833374 5.83325 0.833374C4.10736 0.833374 2.70825 2.23248 2.70825 3.95837C2.70825 5.68426 4.10736 7.08337 5.83325 7.08337C5.95014 7.08337 6.06553 7.07696 6.17909 7.06445C6.58554 7.01971 6.69642 6.53062 6.47758 6.18519C6.4717 6.1759 6.46585 6.16659 6.46004 6.15725Z" fill="#6B7280"/>
<path d="M3.92349 12.7641C3.82889 12.6063 3.66191 12.5 3.47791 12.5H3.33325C2.29772 12.5 1.45825 11.6606 1.45825 10.625C1.45825 9.58951 2.29772 8.75004 3.33325 8.75004H3.47791C3.66191 8.75004 3.82889 8.64381 3.92349 8.48598C4.15441 8.10073 3.90382 7.50004 3.45466 7.50004H3.33325C1.60736 7.50004 0.208252 8.89915 0.208252 10.625C0.208252 12.3509 1.60736 13.75 3.33325 13.75H3.45466C3.90382 13.75 4.15441 13.1494 3.92349 12.7641Z" fill="#6B7280"/>
<path d="M13.5223 6.18519C13.3034 6.53062 13.4143 7.01971 13.8208 7.06445C13.9343 7.07696 14.0497 7.08337 14.1666 7.08337C15.8925 7.08337 17.2916 5.68426 17.2916 3.95837C17.2916 2.23248 15.8925 0.833374 14.1666 0.833374C14.0497 0.833374 13.9343 0.839792 13.8208 0.852294C13.4143 0.897041 13.3034 1.38613 13.5223 1.73155C13.5281 1.74084 13.534 1.75016 13.5398 1.75949C13.6712 1.97064 13.9179 2.08337 14.1666 2.08337C15.2021 2.08337 16.0416 2.92284 16.0416 3.95837C16.0416 4.99391 15.2021 5.83337 14.1666 5.83337C13.9179 5.83337 13.6712 5.9461 13.5398 6.15725C13.534 6.16659 13.5281 6.1759 13.5223 6.18519Z" fill="#6B7280"/>
<path d="M16.0763 12.7641C15.8454 13.1494 16.096 13.75 16.5452 13.75H16.6666C18.3925 13.75 19.7916 12.3509 19.7916 10.625C19.7916 8.89915 18.3925 7.50004 16.6666 7.50004H16.5452C16.096 7.50004 15.8454 8.10073 16.0763 8.48598C16.1709 8.64381 16.3379 8.75004 16.5219 8.75004H16.6666C17.7021 8.75004 18.5416 9.58951 18.5416 10.625C18.5416 11.6606 17.7021 12.5 16.6666 12.5H16.5219C16.3379 12.5 16.1709 12.6063 16.0763 12.7641Z" fill="#6B7280"/>
</svg>
