<svg width="15" height="14" viewBox="0 0 15 14" fill="none" xmlns="http://www.w3.org/2000/svg">
<path fill-rule="evenodd" clip-rule="evenodd" d="M5.19817 -0.00012207C3.4386 -0.00012207 2.01219 1.42629 2.01219 3.18585C2.01219 4.94542 3.4386 6.37183 5.19817 6.37183C6.95774 6.37183 8.38415 4.94542 8.38415 3.18585C8.38415 1.42629 6.95774 -0.00012207 5.19817 -0.00012207ZM3.01829 3.18585C3.01829 1.98194 3.99426 1.00598 5.19817 1.00598C6.40208 1.00598 7.37805 1.98194 7.37805 3.18585C7.37805 4.38977 6.40208 5.36573 5.19817 5.36573C3.99426 5.36573 3.01829 4.38977 3.01829 3.18585Z" fill="#6B7280"/>
<path d="M12.4085 4.52732C12.4085 4.24949 12.1833 4.02427 11.9055 4.02427C11.6277 4.02427 11.4024 4.24949 11.4024 4.52732V6.03646H9.89329C9.61547 6.03646 9.39024 6.26169 9.39024 6.53951C9.39024 6.81734 9.61547 7.04256 9.89329 7.04256H11.4024V8.55171C11.4024 8.82953 11.6277 9.05476 11.9055 9.05476C12.1833 9.05476 12.4085 8.82953 12.4085 8.55171V7.04256H13.9177C14.1955 7.04256 14.4207 6.81734 14.4207 6.53951C14.4207 6.26169 14.1955 6.03646 13.9177 6.03646H12.4085V4.52732Z" fill="#6B7280"/>
<path fill-rule="evenodd" clip-rule="evenodd" d="M3.18598 7.37793C1.42641 7.37793 0 8.80434 0 10.5639C0 12.3235 1.42641 13.7499 3.18598 13.7499H7.21037C8.96993 13.7499 10.3963 12.3235 10.3963 10.5639C10.3963 8.80434 8.96993 7.37793 7.21037 7.37793H3.18598ZM1.0061 10.5639C1.0061 9.35999 1.98206 8.38402 3.18598 8.38402H7.21037C8.41428 8.38402 9.39024 9.35999 9.39024 10.5639C9.39024 11.7678 8.41428 12.7438 7.21037 12.7438H3.18598C1.98206 12.7438 1.0061 11.7678 1.0061 10.5639Z" fill="#6B7280"/>
</svg>
