<svg width="14" height="14" viewBox="0 0 14 14" fill="none" xmlns="http://www.w3.org/2000/svg">
<path d="M4.5835 1.14587V2.86462" stroke="#6B7280" stroke-miterlimit="10" stroke-linecap="round" stroke-linejoin="round"/>
<path d="M9.1665 1.14587V2.86462" stroke="#6B7280" stroke-miterlimit="10" stroke-linecap="round" stroke-linejoin="round"/>
<path d="M2.00537 5.20776H11.745" stroke="#6B7280" stroke-miterlimit="10" stroke-linecap="round" stroke-linejoin="round"/>
<path d="M12.6043 10.8854C12.6043 11.3151 12.484 11.7219 12.272 12.0656C11.8767 12.7302 11.1491 13.1771 10.3127 13.1771C9.73402 13.1771 9.20694 12.9651 8.80589 12.6042C8.62829 12.4552 8.4736 12.2719 8.35329 12.0656C8.14131 11.7219 8.021 11.3151 8.021 10.8854C8.021 9.61927 9.04652 8.59375 10.3127 8.59375C11.0002 8.59375 11.6132 8.89739 12.0314 9.37291C12.3866 9.77968 12.6043 10.3068 12.6043 10.8854Z" stroke="#6B7280" stroke-miterlimit="10" stroke-linecap="round" stroke-linejoin="round"/>
<path d="M9.41895 10.8854L9.98613 11.4526L11.2064 10.324" stroke="#6B7280" stroke-linecap="round" stroke-linejoin="round"/>
<path d="M12.0313 4.86983V9.37295C11.613 8.89743 11 8.59379 10.3125 8.59379C9.04635 8.59379 8.02083 9.61931 8.02083 10.8855C8.02083 11.3151 8.14115 11.7219 8.35313 12.0657C8.47344 12.2719 8.62813 12.4552 8.80573 12.6042H4.58333C2.57813 12.6042 1.71875 11.4584 1.71875 9.73962V4.86983C1.71875 3.15108 2.57813 2.00525 4.58333 2.00525H9.16667C11.1719 2.00525 12.0313 3.15108 12.0313 4.86983Z" stroke="#6B7280" stroke-miterlimit="10" stroke-linecap="round" stroke-linejoin="round"/>
<path d="M6.87242 7.84896H6.87757" stroke="#6B7280" stroke-linecap="round" stroke-linejoin="round"/>
<path d="M4.75182 7.84896H4.75696" stroke="#6B7280" stroke-linecap="round" stroke-linejoin="round"/>
<path d="M4.75182 9.56771H4.75696" stroke="#6B7280" stroke-linecap="round" stroke-linejoin="round"/>
</svg>
