<svg width="16" height="16" viewBox="0 0 16 16" fill="none" xmlns="http://www.w3.org/2000/svg">
<path d="M10.1249 5.81238C10.1249 7.05502 9.11752 8.06238 7.87488 8.06238V9.06238C9.6698 9.06238 11.1249 7.6073 11.1249 5.81238H10.1249ZM7.87488 8.06238C6.63224 8.06238 5.62488 7.05502 5.62488 5.81238H4.62488C4.62488 7.6073 6.07995 9.06238 7.87488 9.06238V8.06238ZM5.62488 5.81238C5.62488 4.56974 6.63224 3.56238 7.87488 3.56238V2.56238C6.07995 2.56238 4.62488 4.01745 4.62488 5.81238H5.62488ZM7.87488 3.56238C9.11752 3.56238 10.1249 4.56974 10.1249 5.81238H11.1249C11.1249 4.01745 9.6698 2.56238 7.87488 2.56238V3.56238ZM5.81238 11.1249H9.93738V10.1249H5.81238V11.1249ZM1.49988 7.87488C1.49988 4.35406 4.35406 1.49988 7.87488 1.49988V0.499878C3.80178 0.499878 0.499878 3.80178 0.499878 7.87488H1.49988ZM7.87488 1.49988C11.3957 1.49988 14.2499 4.35406 14.2499 7.87488H15.2499C15.2499 3.80178 11.948 0.499878 7.87488 0.499878V1.49988ZM14.2499 7.87488C14.2499 9.68282 13.4979 11.3143 12.2884 12.4751L12.9808 13.1966C14.3787 11.855 15.2499 9.96627 15.2499 7.87488H14.2499ZM12.2884 12.4751C11.1425 13.5748 9.58803 14.2499 7.87488 14.2499V15.2499C9.85631 15.2499 11.6561 14.4678 12.9808 13.1966L12.2884 12.4751ZM9.93738 11.1249C11.0285 11.1249 11.9392 11.9021 12.1442 12.9333L13.125 12.7384C12.8288 11.2482 11.5148 10.1249 9.93738 10.1249V11.1249ZM7.87488 14.2499C6.16173 14.2499 4.60731 13.5748 3.46139 12.4751L2.76898 13.1966C4.09363 14.4678 5.89345 15.2499 7.87488 15.2499V14.2499ZM3.46139 12.4751C2.25183 11.3143 1.49988 9.68282 1.49988 7.87488H0.499878C0.499878 9.96627 1.37106 11.855 2.76898 13.1966L3.46139 12.4751ZM5.81238 10.1249C4.23491 10.1249 2.92093 11.2482 2.62478 12.7384L3.6056 12.9333C3.81054 11.9021 4.72125 11.1249 5.81238 11.1249V10.1249Z" fill="#6B7280"/>
</svg>
