<svg width="14" height="14" viewBox="0 0 14 14" fill="none" xmlns="http://www.w3.org/2000/svg">
<path d="M10.0947 5.51147H7.08691C6.85202 5.51147 6.65723 5.31668 6.65723 5.08179C6.65723 4.84689 6.85202 4.6521 7.08691 4.6521H10.0947C10.3296 4.6521 10.5244 4.84689 10.5244 5.08179C10.5244 5.31668 10.3354 5.51147 10.0947 5.51147Z" fill="#6B7280"/>
<path d="M4.07913 5.94681C3.97028 5.94681 3.86143 5.90671 3.77549 5.82077L3.3458 5.39108C3.17965 5.22493 3.17965 4.94994 3.3458 4.78379C3.51195 4.61764 3.78695 4.61764 3.95309 4.78379L4.07913 4.90983L5.06455 3.92441C5.2307 3.75827 5.5057 3.75827 5.67184 3.92441C5.83799 4.09056 5.83799 4.36556 5.67184 4.53171L4.38278 5.82077C4.30257 5.90098 4.19372 5.94681 4.07913 5.94681Z" fill="#6B7280"/>
<path d="M10.0947 9.52197H7.08691C6.85202 9.52197 6.65723 9.32718 6.65723 9.09229C6.65723 8.85739 6.85202 8.6626 7.08691 8.6626H10.0947C10.3296 8.6626 10.5244 8.85739 10.5244 9.09229C10.5244 9.32718 10.3354 9.52197 10.0947 9.52197Z" fill="#6B7280"/>
<path d="M4.07913 9.95731C3.97028 9.95731 3.86143 9.9172 3.77549 9.83127L3.3458 9.40158C3.17965 9.23543 3.17965 8.96043 3.3458 8.79429C3.51195 8.62814 3.78695 8.62814 3.95309 8.79429L4.07913 8.92033L5.06455 7.93491C5.2307 7.76877 5.5057 7.76877 5.67184 7.93491C5.83799 8.10106 5.83799 8.37606 5.67184 8.5422L4.38278 9.83127C4.30257 9.91147 4.19372 9.95731 4.07913 9.95731Z" fill="#6B7280"/>
<path d="M8.59342 13.034H5.15592C2.04499 13.034 0.71582 11.7048 0.71582 8.59391V5.15641C0.71582 2.04548 2.04499 0.716309 5.15592 0.716309H8.59342C11.7044 0.716309 13.0335 2.04548 13.0335 5.15641V8.59391C13.0335 11.7048 11.7044 13.034 8.59342 13.034ZM5.15592 1.57568C2.51478 1.57568 1.5752 2.51527 1.5752 5.15641V8.59391C1.5752 11.2351 2.51478 12.1746 5.15592 12.1746H8.59342C11.2346 12.1746 12.1742 11.2351 12.1742 8.59391V5.15641C12.1742 2.51527 11.2346 1.57568 8.59342 1.57568H5.15592Z" fill="#6B7280"/>
</svg>
